<?xml version="1.0" encoding="UTF-8" standalone="no"?><!DOCTYPE svg PUBLIC "-//W3C//DTD SVG 1.1//EN" "http://www.w3.org/Graphics/SVG/1.1/DTD/svg11.dtd"><svg width="100%" height="100%" viewBox="0 0 722 806" version="1.1" xmlns="http://www.w3.org/2000/svg" xmlns:xlink="http://www.w3.org/1999/xlink" xml:space="preserve" xmlns:serif="http://www.serif.com/" style="fill-rule:evenodd;clip-rule:evenodd;stroke-linejoin:round;stroke-miterlimit:2;"><path d="M604.453,406.6c1.292,0.137 2.667,0.121 2.5,-1.883c-0.542,-8 -1.375,-15.971 -3.75,-23.667c-0.417,-1.337 -0.875,-3.562 -2.917,-2.916c-2.083,0.654 -1,2.492 -0.625,3.963c1.542,6.158 2.959,12.346 2.5,19.229c0.25,0.804 0.166,2.017 -0.167,3.308c-0.458,2.067 1.291,1.846 2.458,1.967Z" style="fill:#f2c4ce;fill-rule:nonzero;"/><path d="M620.912,624.254c-7.875,-6.763 -16.5,-11.029 -26.917,-12.354c-7.375,-0.942 -14.417,-3.671 -21.375,-6.425c-3.875,-1.525 -7.792,-3.004 -11.666,-4.571c-4.25,-1.729 -6.708,-4.775 -6.667,-9.592c0.042,-2.971 1.083,-4.088 3.917,-2.546c2.958,1.633 6.083,2.996 8.458,5.579c0.542,0.575 1.375,1.296 2.25,0.6c0.917,-0.754 0.125,-1.517 -0.291,-2.208c-2.834,-4.371 -6.208,-8.058 -11.333,-9.846c3.208,-2.188 11.083,-2.321 14.25,0.325c2.625,2.187 6.167,2.967 8.333,5.829c0.583,0.767 2,1.154 3.083,1.217c17.75,1.087 29.875,11.158 39.125,25.2c3.792,5.717 7.458,11.65 9.542,18.309c0.458,1.483 2.083,1.804 3.625,3.983c-6.25,-4.179 -9.625,-9.496 -14.333,-13.5Zm-273.209,-85.921c-5.667,2.621 -9.042,0.133 -9,-6.283c0.042,-1.708 1.208,-3.237 0.583,-5.004c-0.917,-2.567 0.5,-3.637 2.708,-3.25c4.083,0.713 8.125,-0.583 12.209,-0.083c0.875,0.108 2.042,-0.467 2.625,0.746c0.291,0.65 -2.25,9.946 -2.917,10.334c-2.042,1.217 -4.042,2.542 -6.208,3.542Zm3.125,43.804c0.75,12.071 4.125,23.396 8.458,34.496c3.208,8.283 7.792,16.521 15.333,20.875c9,5.213 18.667,11.375 30.292,6.95c0.167,-0.063 0.458,0.238 0.917,0.504c-2.333,2.525 -5.708,2.4 -8.5,3.454c-7.417,2.804 -14.917,4.333 -22.292,-0.366c-2.5,-1.592 -3.5,0.012 -3.375,2.254c0.083,1.646 0.792,3.263 1.292,5.217c-3.917,-0.429 -7.75,-0.296 -11.25,-1.367c-4.625,-1.417 -6.083,-6.258 -8.25,-9.962c-4,-6.713 -4.583,-14.396 -4.917,-22.013c-0.083,-1.737 -0.917,-2.254 -2.333,-2.346c-1.333,-0.083 -2.625,0.017 -2.875,1.767c-0.166,1.379 -0.583,2.675 -0.625,4.137c-0.25,9.509 -4.125,17.292 -11.375,23.354c-1.5,-1.008 -0.917,-1.754 -0.625,-2.533c0.583,-1.521 2.125,-3.321 0.208,-4.583c-1.625,-1.058 -3.667,-0.621 -5.5,0.446c-4.5,2.613 -9.084,5.096 -14.583,4.671c-0.417,-0.029 -0.792,-0.204 -1.5,-0.412c9.875,-5.65 16.958,-13.904 23.166,-22.708c5.459,-7.713 7.292,-16.996 8.667,-26.317c1.625,-10.892 3.75,-21.708 6.458,-32.683c1.083,5.717 2.834,11.4 3.208,17.167Zm-28.125,-73.954c-7.5,-7.679 -8.125,-16.334 -7.75,-25.754c0.083,-1.942 0.125,-3.508 -2.167,-3.7c-1.875,-0.154 -3.916,-0.792 -4.125,2.508c-0.333,4.663 -3.375,6.246 -7.917,7.117c-4.375,0.833 -8.333,-0.862 -12.5,-0.429c-1,0.104 -1.542,-1.088 -2.125,-1.892c-1.5,-2.046 -2.708,-4.338 -5.042,-5.667c-0.542,-0.308 -1.167,-1.125 -1.167,-1.696c0.125,-6.717 -4.167,-13.304 -1.833,-19.833c2.708,-7.487 4.125,-15.538 12.333,-20.596c4.208,-2.583 8.5,-4.2 12.792,-5.171c2.833,-0.638 6.458,0.304 9.75,0.025c2.5,-0.213 4.416,-0.092 1.958,-3.537c-1.708,-2.396 0.458,-5.563 1.875,-7.3c2.792,-3.4 3.834,-7.537 6.417,-11.979c1.708,4.875 3.167,9 3.25,13.625c0.167,5.196 1,10.375 1.542,15.558c0.042,0.417 0.333,0.85 0.25,1.237c-0.375,2.254 0.459,5.842 -2.5,5.988c-2.708,0.133 -2.167,-3.417 -2.291,-5.383c-0.125,-2.708 -0.458,-5.083 -2.917,-6.646c-0.875,-0.554 -1.875,-0.937 -2.833,-0.479c-1.125,0.525 -1.042,1.725 -0.792,2.633c1.708,5.988 0.583,10.838 -5.833,13.917c2.875,2.158 5.375,0.75 7.542,0.083c3.792,-1.162 6.917,-1.121 10.166,1.725c3.083,2.671 6.875,2.879 10.834,0.779c0.166,1.3 0.291,2.517 0.458,3.929c-0.5,-0.046 -0.917,0.021 -1.208,-0.133c-8.458,-4.375 -23.792,2.858 -26.458,11.433c-0.792,2.554 -0.625,4.254 1.75,5.208c2.417,0.954 4.584,0.025 4.75,-2.6c0.25,-4.529 3.959,-5.088 6.792,-6.175c3.125,-1.183 6.625,-1.079 9.792,-2.592c1.625,-0.767 3.291,0.421 4.583,2.104c3.042,4.1 6,8.175 6.5,13.512c0.083,0.992 -0.042,2.604 1.625,2.492c1.334,-0.087 2.083,-0.946 2.542,-2.408c2.959,-9.258 10.125,-13.7 19,-15.571c5.042,-1.058 8.25,2.575 11.166,6.079c4.792,5.838 5.5,12.992 5.833,20.096c0.083,2.021 -2.708,3.175 -3.792,5.133c-1.125,2.017 -3.25,3.45 -4.75,5.288c-1.208,1.5 -3.584,2.162 -2.5,5.333c0.542,1.708 -2.458,3.263 -3.916,4.617c-5.083,4.621 -11.709,6.612 -17.833,9.217c-2.416,1.021 -6.25,0.65 -9.042,0.133c-8.125,-1.504 -15.791,-3.617 -22.208,-10.229Zm-15.333,-111.65c-1.625,-0.863 -3.208,-1.904 -4.917,-2.416c-8,-2.367 -11.292,-1.233 -16.292,5.058c-2.458,3.067 -5.792,4.871 -8.417,7.608c-1.917,1.992 -11.166,0.671 -13.25,-1.204c-1.458,-1.35 -0.709,-2.713 0.083,-3.805c1.417,-1.958 2.458,-4.167 3.542,-6.237c1.167,-2.283 3.125,-3.458 4.667,-5.562c-6.542,1.775 -13.417,1.271 -19.542,4.225c-2.875,1.379 -5.916,2.542 -7.625,5.609c-1.042,1.842 -2.583,1.383 -3.958,0.183c-3.75,-3.312 -3,-7.562 0.042,-11.479c4.875,-6.333 11.125,-7.421 18.291,-6.875c0.792,0.058 1.75,0.329 2.417,-0.742c-1.042,-1.775 -2.792,-2.538 -4.708,-3.125c-1.542,-0.466 -4.459,1.021 -4.167,-2.021c0.25,-2.217 2.416,-4.571 4.542,-4.583c5.75,-0.046 11.333,-2.196 17.25,-0.709c3.25,0.817 5.667,3.15 8.958,3.642c1.208,0.184 2.583,1.334 3.5,-0.071c1,-1.509 -0.291,-3.208 -1.291,-3.654c-5.959,-2.609 -10.167,-7.925 -16.667,-9.846c-8.333,-2.467 -16.75,-5.284 -24.042,-10.154c-3.334,-2.254 -6.25,-5.729 -7.5,-10.063c-0.667,-2.358 -0.208,-3.125 2.417,-2.733c3.291,0.492 5.791,2.3 8.5,4.233c-2.291,-5.058 -8.458,-7.167 -9.208,-13.367c-0.667,-5.5 -3.583,-10.662 -2.542,-16.591c3.333,12.65 11.5,22 20.833,30.358c4.833,4.333 10.208,8.1 15.5,11.896c5.875,4.212 11.917,8.171 17.875,12.225c1.042,0.713 2,2.488 3.416,0.446c1.083,-1.513 1.208,-3.233 -0.375,-4.142c-5.667,-3.241 -9.958,-8.463 -16.042,-10.962c-1.917,-0.783 -2.75,-2.375 -4.042,-3.554c-3.167,-2.887 -7.416,-4.121 -10.541,-6.875c-5.625,-4.946 -11.167,-10.054 -14.334,-17.146c-0.875,-2.025 -2.458,-3.758 -4.125,-6.241c7.167,2.071 13.708,4.083 19.625,7.662c8.958,5.404 18.084,10.575 26.792,16.367c12.083,8.054 20.375,19.771 28.625,31.383c5.5,7.671 9.875,15.988 13.042,24.9c0.375,1.138 1.375,2.413 -0.333,3.321c-1.75,0.933 -2.708,-0.254 -3.375,-1.562c-3.167,-6.017 -8.041,-10.695 -12.25,-15.863c-3.959,-4.842 -7.833,-9.942 -13.209,-13.47c-0.792,-0.513 -1.458,-1.65 -2.542,-0.754c-0.75,0.621 -0.334,1.538 -0.167,2.387c0.792,4.104 4.583,5.629 7.125,8.129c6.167,6.079 11.458,12.871 16.542,19.858c0.458,0.645 0.583,1.587 0.708,2.416c0.125,0.912 1.042,1.892 0,2.767c-1,0.791 -1.917,0.208 -2.791,-0.254c-5.333,-2.858 -10.667,-5.754 -16.042,-8.613Zm28.042,50.35c-0.709,0.425 -1.167,1.521 -2.083,1.146c-1,-0.388 -1.5,-1.45 -1.292,-2.454c1.834,-11.163 0.125,-22.188 -1.167,-33.238c-0.083,-0.696 -0.042,-1.412 0,-2.121c0.167,-2.187 1.959,-2.871 3.542,-3.017c1.666,-0.154 1.666,1.759 1.875,2.838c1.417,8.517 2.125,17.109 2.25,26.5c-0.625,3.025 1.291,7.621 -3.125,10.346Zm-36.167,-121.504c-1.375,-6.617 0.042,-12.583 2.583,-19.321c1.875,2.846 1.667,5.425 1.834,7.596c0.542,5.838 2.667,11.2 3.916,16.796c1.875,8.629 7.584,14.987 11.709,22.238c5.416,9.437 12.125,18.233 15.5,28.65c1.667,5.05 2.958,10.296 4.125,15.517c0.209,0.816 0.875,2.271 -0.458,2.587c-1.167,0.279 -1.958,-0.696 -2.292,-1.988c-2.083,-7.833 -5.083,-15.27 -9.333,-22.237c-3.667,-6.058 -7.125,-12.633 -12.291,-17.2c-10,-8.913 -12.792,-20.521 -15.292,-32.638Zm49.167,116.2c0.042,0.917 1.208,2.579 -0.834,2.633c-1.333,0.037 -2.833,-0.379 -3,-2.304c-0.083,-0.834 -0.5,-1.646 -0.542,-2.475c-0.542,-8.867 0.75,-17.784 -0.958,-26.629c5.458,8.975 5.125,18.929 5.333,28.775Zm3.167,13.196c0.083,-1.254 0.291,-2.8 0.25,-4.329c-0.042,-1.075 -0.291,-2.1 1.208,-2.1c1.042,0.004 2,0.375 2.125,1.646c0.291,3.675 0.625,7.346 0.791,11.029c0.083,1.804 -1.375,2.533 -2.833,2.575c-1.5,0.042 -1.5,-1.425 -1.542,-2.562l0,-6.258Zm0.875,-32.316c0,-4.484 0.625,-5.542 5.583,-9.088c-2.958,10.404 -3.208,20.537 -5.625,30.237c0,-7.05 0,-14.1 0.042,-21.15Zm18.917,-1.588c1.666,1.904 1.375,4.296 0.833,5.967c-1.042,3.358 -0.25,6.367 0.458,9.509c1.334,5.925 -2.75,9.85 -5.25,14.817c-0.917,-6.896 1.583,-25.896 3.959,-30.292Zm4.458,27.763c1.625,-2.521 3.5,-3.129 5.833,-0.846c2.667,2.567 5.583,4.887 6.917,8.512c0.291,0.833 0.666,1.883 1.583,1.617c1,-0.287 1.291,-1.337 0.958,-2.471c-1.042,-3.667 -1.875,-7.417 -4.959,-10.108c-2.75,-2.371 -4.542,-5.4 -6.041,-8.662c-2.292,-4.908 -0.458,-7.905 7.167,-7.837c5.792,-1.125 12.25,2.479 18.541,6.629c0.792,0.5 1.375,0.821 1.5,1.813c0.458,3.533 2.583,6.179 4.542,8.987c1.5,2.167 3.583,4.612 0.417,7.284c-0.833,0.696 -0.583,1.967 0.083,2.758c3.875,4.562 1.5,9.667 0.625,14.183c-1.959,9.804 -9.792,14.579 -18.125,18.5c-2.083,0.967 -2.667,0.729 -2.792,-2.079c-0.292,-6.017 -0.625,-12.308 -2.625,-17.892c-2.125,-6.041 -8.542,-8.729 -13.583,-12.267c-2.375,-1.654 -2.5,-4.379 -0.042,-8.121Zm10.458,309.638c-6.541,0.337 -13.167,2.596 -18.875,-1.746c6.25,-1.508 13.292,-8.513 18.875,1.746Zm-65.334,-0.879c-3.416,1.462 -6.708,2.229 -9.5,-1.175c-0.458,-0.558 -1.042,-1.058 -0.875,-1.829c0.209,-0.987 1.042,-1.354 1.875,-1.433c2.416,-0.225 4.875,0.312 7.208,-0.729c1.625,0.217 3.167,0.975 3.583,2.521c0.333,1.383 -1.083,2.121 -2.292,2.646Zm-68.833,-113.125c0.583,-2.667 2,-4.696 3.625,-6.638c2.291,-2.762 5.708,-2.596 8,0.204c1.917,2.263 2.459,5.075 3.208,7.808c0.167,0.733 0.083,1.787 -0.583,1.858c-3.416,0.354 -6.041,2.879 -8.167,3.325c-6.833,-0.383 -7.208,-1.1 -6.083,-6.558Zm-186.917,-12.092c-1.417,1.862 -4.5,1.016 -5.916,2.967c6.667,-9.108 13.042,-18.404 20.041,-27.229c2.917,-3.663 4.542,-8.771 8.417,-10.984c4.417,-2.508 5.833,-7.596 10.833,-9.646c4.75,-1.958 9.333,-4.704 14.208,-6.567c5.667,-2.146 11.625,-2.346 17.625,-2.237c1.834,0.033 2.708,1.15 3.25,2.808c1.583,4.708 0.583,9.538 0.833,14.304c0.042,1.217 -1.042,1.188 -1.625,1.683c-7.5,6.554 -16.833,9.171 -26.292,9.313c-9.708,0.142 -16.875,5.054 -24.291,9.75c-6.584,4.183 -12.334,9.546 -17.084,15.838Zm85.167,-55.475c2.792,2.863 2.834,7.221 2.292,11.15c-1.208,8.517 -6.917,11.541 -15.042,11.412c2.042,-1.896 3.875,-3.891 6.25,-5.192c4.042,-2.171 4.042,-8.346 2.625,-13.583c-1.375,-5.017 -5,-7.267 -10.083,-7.592c4.958,0.284 10.292,0.017 13.958,3.804Zm38.667,29.971c4.167,-1.963 8.583,-3.204 12.791,-5.013c10.042,-4.312 18.083,-10.925 24.75,-19.442c1.083,-1.4 0.958,-2.921 0.958,-4.462c-0.042,-8.837 -2.708,-16.992 -6.917,-24.616c-7.75,-13.992 -9.166,-28.883 -6.5,-44.3c1.125,-6.404 3.291,-12.625 3.25,-19.238c0,-1.2 0.625,-2.4 1.083,-4.083c6.333,7.587 12.917,14.217 13.042,24.908c3.167,-5.775 1.875,-12.4 -2.167,-17.579c-4.375,-5.654 -9.583,-10.967 -10.875,-18.437c-0.666,-3.708 -0.791,-7.492 1.834,-11.625c3.667,10.267 11.583,16.671 17.125,24.746c3.875,5.65 6.708,11.954 7.5,19.021c0.875,7.479 0.459,14.967 3.084,22.454c2.375,6.921 2.166,14.742 -0.667,21.996c-1.875,4.737 -1.458,10.241 -4.25,14.562c-4.333,6.704 -5.75,15.166 -11.958,20.625c-11.709,10.292 -24.542,18.617 -40.458,20.759c-0.5,0.067 -1.042,0.067 -1.625,-0.275Zm51.042,-243.933c-1.75,0.641 -4.833,0.346 -4.667,2.713c0.208,2.25 2.875,1.15 4.5,1.025c1.75,-0.133 1.792,0.854 1.625,2.146c-0.417,3.133 -2.958,4.933 -6.041,4.058c-1.208,-0.35 -2.834,-0.355 -3.542,-0.946c-1.917,-1.508 -5.625,-0.3 -6,-3.5c-0.417,-3.825 -1.167,-7.913 3,-10.709c4,-2.658 6.917,0.254 10.084,1.6c1.083,0.467 1.917,1.65 3.375,2.979c-1.291,0.346 -1.833,0.45 -2.333,0.634Zm-27.583,11.675c-2.417,0.429 -7.458,-3.746 -7.917,-6.192c-0.5,-2.625 2.208,-5.375 5.25,-5.287c2.125,0.063 8.541,6.066 7.958,7.846c-0.75,2.296 -3.084,3.242 -5.292,3.634Zm-6.167,-57.963c-2,-1.475 -4.5,-0.054 -6.5,-1.154c-1.75,-0.95 -5.042,-0.038 -4.667,-3.6c0.291,-3.117 1.875,-5.242 5.167,-5.763c0.709,-0.108 1.375,-0.246 1.708,-0.296c3.708,-0.004 7.958,3.654 8.5,6.95c0.625,3.5 -3.333,1.983 -4.208,3.863Zm3.666,6.638c-0.666,3.321 -8.25,10.366 -11.417,9.545c-2.833,-0.733 -5.375,-2.829 -7.792,-4.612c-2.166,-1.554 -4,-3.513 -6.541,-5.8c8.417,-2.525 16.208,-2.954 24.167,-1.342c1.375,0.283 1.875,0.658 1.583,2.208Zm-34.833,17.525c2.417,-6.054 4.333,-11.283 7.584,-16.375c2.5,2.762 4.542,5.846 8.208,7.575c-6.208,0.675 -10.25,5.179 -15.792,8.8Zm-55.5,42.596c-0.875,4.612 -1,9.55 0.167,14.367c0.958,3.992 1.417,8.121 1,12.25c-0.25,2.475 -1.292,5.296 -3.834,5.379c-2.292,0.075 -1.667,-3.033 -2.292,-4.75c-0.083,-0.254 -0.041,-0.562 -0.041,-0.85c-0.167,-6.15 -0.334,-12.3 -0.417,-18.45c0,-0.717 0.083,-1.396 -0.417,-1.787c0.792,-10.4 4.708,-21.304 10.958,-29.871c0.917,-0.079 1.875,-0.854 2.834,-1.329c-5.459,7.588 -6.417,16.488 -7.958,25.042Zm11.166,25.35c4.125,-1.534 7.667,-4.275 12.75,-3.254c3.083,0.612 5.417,1.992 7.667,3.621c8.167,5.912 11.583,15.479 17.292,23.283c1.917,2.554 3.75,5.013 6.5,6.546c3.291,1.821 6.667,3.425 10.375,5.292c-5.708,2.942 -11.292,3.879 -17.25,2.125c-1.083,-0.321 -2.959,-1 -2.458,-1.813c2.75,-4.567 -3.084,-2.779 -3.542,-4.983c-0.125,-0.633 -1.291,-0.2 -1.833,0.188c-1.334,0.925 -0.917,2.333 -0.667,3.525c1.125,5.679 1.125,6.183 -5,5.429c-5.792,-0.721 -11.542,-1.446 -14.875,-8.371c-2.291,-4.729 -4.167,-9.121 -4.875,-14.334c-0.667,-4.891 -2.375,-9.666 -5.042,-13.917c-1.083,-1.754 -1.166,-2.554 0.958,-3.338Zm-26,46.763c-0.166,-2.508 -2,-5.55 0.167,-8.213c0.5,-0.646 0.709,-1.633 1.708,-1.688c1.25,-0.067 1.875,0.963 2,1.867c0.791,5.983 4.708,10.092 8.167,14.563c2.5,3.204 1.792,4.3 -1.75,5.466c-1.75,0.583 -2.208,2.213 -1.875,4.4c1.167,7.788 5.333,14.075 9.625,20.354c-11.417,-9.613 -17.167,-22.167 -18.042,-36.75Zm-3.125,-9.275c-6,2.271 -7.5,10.621 -14.833,11.058c-1.208,0.071 -2.292,1.146 -3.667,0.175c-1.458,-1.05 -1.75,0.042 -1.5,1.221c0.208,1.167 -0.834,1.992 -1.292,1.717c-3.458,-2.121 -4.792,0.233 -6.167,2.692c-0.083,0.187 -0.5,0.2 -0.75,0.317c-6.792,3.154 -22.167,0.458 -27.875,-4.883c4.459,-0.496 8.875,0.696 13.583,-0.937c5.708,-1.967 9.333,-5.775 12.542,-10.096c2.583,-3.508 4.333,-7.471 4.792,-12.333c0.833,-8.487 4.416,-16.266 10.083,-22.929c4.042,-4.796 14.667,-5.15 19.167,-0.509c0.458,0.467 0.917,1.175 0.958,1.8c0.708,11.125 -0.792,21.921 -4.875,32.333c-0.042,0.129 -0.083,0.342 -0.167,0.375Zm-23.083,-61.546c-7.25,3.75 -15.083,6.479 -22.125,12.384c2.625,-8.242 18.083,-17.9 27.375,-17.75c-0.25,3.317 -2.959,4.167 -5.25,5.367Zm-42.417,-1.787c-4.042,-0.175 -8,-1.746 -12.042,-2.675c0.125,-0.517 0.209,-1.029 0.292,-1.546c13,2.35 25.083,-0.488 36.458,-6.288c3.833,-1.954 7.167,-5.071 10.417,-7.996c2.791,-2.538 6.083,-2.371 8.666,-0.991c3.083,1.65 1.625,4.95 0.709,7.579c-2,5.8 -7.417,7.012 -12.334,8.479c-10.5,3.116 -21.333,3.896 -32.167,3.437Zm47.292,-88.258c-2.791,1.308 -7.416,-2.112 -8.625,-5.946c-0.375,-1.183 -0.333,-6.767 0.167,-9.25c2.875,2.217 4.333,4.813 4.291,7.825c-0.083,1.733 0.292,1.75 1.667,2.62c4.25,2.671 4.125,2.988 5.5,-2.042c1.542,-5.562 3.042,-11.112 6.292,-16.071c-1.083,4.542 0.25,9.113 -0.667,13.7c-1.042,5.071 -4.625,7.313 -8.625,9.162Zm357.792,11.867c-0.583,1.579 -2.291,1.684 -3.667,1.287c-1.333,-0.367 -2.625,-0.871 -3.042,-2.6c-1.166,-4.712 1.334,-8.321 6.208,-8.775c1.083,-0.104 2.25,-0.017 3.459,-0.017c0.291,3.821 -1.75,6.863 -2.959,10.104Zm27.375,54.296c1.708,-0.713 6.208,4.146 6.25,6.325c0.083,3.588 -2.875,5.946 -7.625,6.059c-2.833,0.483 -4.708,-2.942 -5.25,-7.517c-0.542,-4.683 4.083,-3.825 6.625,-4.867Zm21.792,1.038c2.334,-0.492 2.5,1.65 2.458,3.833c-0.833,1.775 0.209,5.054 -3.125,5.713c-2,0.387 -8.292,-4.479 -7.667,-5.8c1.583,-3.412 5.333,-3.112 8.333,-3.746Zm-15.625,237.646c-1.792,1.492 -2.875,-0.442 -3.708,-1.583c-5.375,-7.5 -8.666,-15.887 -9.25,-25.108c-0.25,-3.846 -1.583,-7.433 -1.958,-10.742c1.25,-4.967 0.208,-9.688 2.458,-14.1c1.791,-3.454 -1.208,-6.629 -2.458,-9.571c-2.334,-5.438 -3.834,-11 -4.375,-16.758c-0.5,-4.746 -3.416,-8.042 -5.875,-11.571c-3.916,-5.642 -5.042,-11.992 -5.333,-18.525c-0.667,-13.342 4.916,-24.992 10.541,-36.592c0.209,-0.512 0.417,-1.046 0.667,-1.55c0.709,-1.346 0,-4.112 2.625,-3.508c1.958,0.454 2.458,3.108 2.375,4.579c-0.083,1.729 0.125,3.883 -0.375,5.133c-1.042,2.596 0.458,3.913 1.542,5.275c4.792,6.117 10.292,11.758 14.625,18.183c2.875,4.233 5.25,8.942 7.5,13.675c2.708,5.767 3.916,12.021 6.792,17.658c0.625,1.233 0.708,2.479 0.542,3.729c-1.125,8.663 -3.75,16.892 -8.333,24.304c-5.667,9.079 -9.875,18.925 -13.25,28.867c-2.833,8.379 -2.458,17.604 4.292,25.071c0.667,0.729 2.583,1.829 0.958,3.133Zm182.25,37.017c-2.792,-1.346 -5.417,2.046 -7.375,0.575c-4.208,-3.113 -10.542,-4.296 -11.208,-11.079c-0.083,-1 -1.25,-1.4 -2.042,-1.992c-1.25,-0.896 -2.583,-1.996 -3.208,-3.321c-3.792,-7.721 -8.042,-15.142 -13.792,-21.583c-7,-7.804 -14.791,-14.129 -25.75,-15.6c-2.625,-0.354 -5.25,-0.508 -7.833,-0.888c-4.25,-0.625 -7.208,-3.763 -10.209,-6.596c-2.791,-2.658 -5.916,-3.6 -9.708,-2.45c-1.167,0.363 -2.375,0.6 -3.75,0.467c-8.25,-0.833 -15.916,5.358 -15.458,13.646c0.25,4.579 -1.875,6.058 -4.875,7.463c-1.875,0.871 -3.291,2.196 -4.75,3.454c-1.708,1.442 -3.25,2.392 -5.625,1.767c-1.458,-0.379 -4,-0.262 -3.833,1.546c0.333,4.146 -2.667,3.171 -4.625,3.417c-6.375,0.804 -12.875,1.05 -19.208,2.121c-4.083,0.687 -7.5,-0.717 -10.292,-2.729c-2.25,-1.6 -4.375,-2.725 -6.833,-2.571c-2.125,0.134 -3.125,-0.933 -4.25,-2.183c-4.25,-4.683 -5.167,-10.625 -5.916,-16.521c-0.5,-3.904 -1.792,-7.808 -0.792,-11.817c2.334,-9.596 8.417,-17.396 12.625,-26.096c4.375,-9.096 10.292,-18.029 8.417,-28.721c-2.375,-13.596 -6.917,-26.562 -15.542,-37.613c-2.042,-2.567 -2.25,-6.367 -5.125,-8.025c-6.375,-3.621 -10.5,-8.359 -9.958,-16.129c0.042,-0.992 -0.125,-1.967 -0.75,-2.833c-3.208,-4.333 -6.292,-8.717 -9.542,-13.008c-0.666,-0.875 -1.625,-1.696 -2.666,-2.071c-0.959,-0.363 -2.167,-1.325 -3.167,-0.446c-1.125,0.97 -0.209,2.004 0.291,3.05c2.667,5.958 2.083,11.858 -1.708,16.963c-2.042,2.713 -3.5,5.492 -5.042,8.442c-4.542,8.662 -5.833,17.867 -5.292,27.221c0.417,6.788 2.083,13.421 6.417,19.392c2.416,3.325 5.083,7.008 5.125,12.113c0,4.937 1.125,10.062 3.416,14.8c2.292,4.825 2.875,9.954 1.5,15.358c-0.667,2.538 -0.417,5.413 -0.083,8.075c0.708,5.713 1.583,11.429 2.75,17.067c2.75,13.217 10.334,23.192 22.209,29.154c4.458,2.229 8.958,4.771 14.167,5.925c-3.459,2.804 -6.667,0.121 -9.834,0.512c-8.541,1.042 -16.875,-1.437 -25.25,-2.392c-6.541,-0.75 -13.5,-1.558 -19.792,-4.233c-9.208,-3.917 -19.958,-4.321 -26.75,-13.775c-3.25,-4.537 -8.25,-7.854 -9.292,-13.85c-0.75,-4.342 -3.916,-7.633 -4.458,-12.213c-0.75,-6.283 -0.5,-12.404 0.125,-18.646c0.667,-6.733 3.959,-11.971 8.417,-16.625c4.417,-4.642 10.583,-4.862 16.417,-5.683c4.416,-0.629 7.917,2.058 9.083,6.296c1.292,4.654 -3.25,9.771 -7.708,8.279c-3.958,-1.321 -7.625,0.654 -12.417,-0.708c2.583,3.125 4.917,4.504 7.208,5.783c5.875,3.263 15.875,0.658 17.959,-4.629c2.916,-7.225 -1.583,-17.158 -7.167,-19.483c-8.083,-3.363 -15.791,-1.275 -23.375,1.958c-0.75,0.321 -1.5,0.9 -1.958,1.558c-5.083,6.842 -10.958,12.854 -12.417,22.162c-1.792,11.2 -0.542,21.596 3.792,31.767c1.583,3.7 4,7.046 6.041,10.554c-10.958,-9.95 -24.833,-16.804 -31.625,-30.871c-0.292,-0.583 -0.917,-1.262 -1.5,-1.379c-1.667,-0.342 -3.667,-0.917 -4.833,0.496c-1.042,1.267 0.417,2.579 1.208,3.738c1.166,1.754 2.333,3.529 3.5,5.296c2.833,4.821 7.958,7.25 11.833,10.975c5.625,5.392 11.958,10.013 17.708,15.271c11.292,10.304 24.917,15.408 39.25,19.863c9.25,2.871 18.416,5.075 27.958,5.9c3.708,0.321 7.5,-0.058 11.25,-0.375c5.125,-0.433 10.166,0.488 15.25,0.863c8.167,0.604 15.708,-1.609 23.333,-3.767c10.917,-3.079 20.75,-8.171 29.292,-15.704c0.209,-0.187 0.5,-0.254 0.709,-0.429c4.083,-3.279 3.792,-3.088 6.833,1.812c3.542,5.675 9.417,8.421 15.625,10.2c4.416,1.266 8.833,2.687 13.375,3.508c-40.416,-3.529 -73.792,10.971 -100.833,41.929c1.708,-6.658 12.708,-17.533 17.291,-22.058c1.875,-1.829 3.292,-4.158 5.75,-5.479c1.334,-0.7 1.042,-2.567 0.542,-3.933c-0.542,-1.446 -1.75,-0.987 -2.916,-0.925c-7.583,0.408 -15.208,0.929 -22.792,1.071c-7.75,0.15 -15.125,-2.2 -22.584,-3.883c-15.416,-3.496 -29.916,-9.741 -44.417,-15.771c-10.292,-4.267 -19.208,-10.592 -27.416,-18.112c-4.75,-4.342 -8.5,-9.5 -12.917,-14.058c-1.875,-1.908 -2.667,-4.175 -2.208,-6.833c-0.917,-1.458 -2.834,-1.625 -3.708,-3.329c-3.416,-6.521 -6.333,-13.233 -8.666,-20.208c-0.292,-0.875 -0.292,-1.429 0.417,-2.233c4,-4.562 6.417,-9.75 5.959,-16.008c-0.125,-1.767 5.708,-10.596 7.208,-10.479c4.667,0.367 6.583,-3.108 9.083,-5.887c4.125,-4.588 6.292,-11.296 13.5,-12.6c0.125,-0.021 0.25,-0.183 0.375,-0.25c3.5,-1.879 6.708,-4.183 10.125,-6.2c5.625,-3.312 11.917,-6.275 13.5,-13.754c0.5,-2.475 0.917,-5.013 2.583,-7.125c2.459,-3.167 2.334,-6.813 2.042,-10.592c-0.375,-4.758 -1.75,-9.346 -1.958,-14.171c-0.125,-2.637 0.542,-6.359 -2.958,-7.9c-4.542,-2 -7.917,-5.42 -11.417,-8.775c-4.25,-4.071 -9.084,-6.771 -15.292,-5.175c-2.042,0.529 -3.5,-0.521 -5.083,-1.537c-4.083,-2.617 -6.875,-6.767 -11.209,-9.108c-4,-2.15 -5.875,-1.742 -6.583,2.825c-1.291,8.804 -4.625,17.317 -3.875,26.4c0.209,2.416 -1.291,2.858 -3.042,3.142c-2.667,0.425 -2.333,-2.046 -2.291,-3.129c0.542,-10.846 1.375,-21.9 5.375,-31.891c2.25,-5.675 3.917,-11.596 6.417,-17.167c4.708,-10.363 9.75,-20.525 18.417,-28.267c4.958,-4.446 9.208,-9.546 13.958,-14.179c7.667,-7.508 15.458,-14.95 26.167,-18.367c5.208,-1.658 10.333,-3.625 15.291,-6.087c4.667,-2.321 10,-3.371 15.042,-4.984c0.25,0.304 0.542,0.604 0.792,0.904c-4.459,4.525 -6.5,11.046 -11.458,14.875c-7.042,5.404 -13.125,12.413 -22.333,14.617c-1.167,0.283 -2.208,1.229 -3.25,1.979c-5.959,4.309 -12.458,7.662 -18.292,12.279c-6.917,5.458 -13.583,10.904 -18.875,17.942c-4.708,6.266 -8.416,13.067 -10.541,20.658c-0.334,1.133 -0.709,2.329 0.166,3.233c1.042,1.092 2.25,0.625 3.5,0.02c1.917,-0.937 3.833,-1.871 5.875,-2.491c6.625,-2.033 13.167,-3.513 19,2.333c1.833,1.834 4.25,2.979 7.083,3.562c5.917,1.229 11.209,0.121 16.459,-2.458c1.542,-0.742 3.5,-2.225 5.208,-0.85c4.75,3.8 9.958,2.817 15.5,3.013c5.792,0.208 9.083,-1.4 12.042,-5.584c0.542,-0.783 1.75,-1.387 1.125,-2.5c-0.625,-1.233 -2.042,-1.004 -3.042,-0.704c-2.583,0.766 -5.083,1.737 -7.625,2.708c-6.333,2.445 -13,-0.083 -16.875,-5.654c-2.625,-3.775 -5.083,-7.9 -9.416,-10.183c-1.375,-0.725 -2.875,-1.192 -3.875,0.079c-1.375,1.667 0.667,1.98 1.458,2.788c0.875,0.908 1.542,2.275 2.583,2.75c2.583,1.166 1.834,3.55 2.459,5.441c1.166,3.679 -2.417,3.025 -3.834,3.563c-3.042,1.17 -6.583,3.2 -9.584,1.567c-2.625,-1.429 -5.75,-2.688 -7.708,-5.033c-4.667,-5.567 -9.584,-5.025 -15.416,-1.975c-2.542,1.333 -5.167,3.179 -8.542,3.467c2.75,-12.225 12.291,-11.746 22.042,-11.954c-4.583,-4.079 -10,-0.783 -14.375,-3.488c1.583,-2.421 3.459,-4.546 5.417,-6.517c0.125,1.046 1,2.087 2.375,1.837c2.583,-0.487 5.375,0.034 7.792,1.096c0.709,0.316 1.875,-0.429 1.25,-1.246c-2.333,-3.038 -5.75,-4.079 -9.417,-3.571c2.334,-2.046 4.833,-3.879 7.458,-5.471c11.208,-6.725 22.292,-13.704 33.083,-20.942c9.709,-6.479 18.042,-14.775 23.333,-25.896c3.417,-7.146 4.333,-13.529 0.834,-20.555c-0.458,-0.925 -0.667,-1.979 -1.125,-3.433c3.416,4.642 8.042,7.584 10.292,12.534c1.542,3.437 3.417,8.613 1.375,10.287c-4.084,3.329 -4.375,8.087 -5.292,11.746c-2.458,9.604 -9.709,14.992 -15.583,21.687c-0.5,0.558 -1.167,0.946 -1.917,0.667c-2.916,-1.096 -5.083,0.679 -7.458,1.762c-1.667,0.754 -3.459,0.871 -5.167,1.242c-9.167,1.954 -17.625,5.829 -25.834,10.229c-0.333,0.192 -0.583,0.604 -0.833,0.958c-0.75,1.125 -0.292,2.146 0.833,2.275c5,0.558 9.833,2.283 15.042,-0.063c6.208,-2.825 13,-3.783 19.833,-3.984c2.459,-0.071 6.917,3.9 6.167,5.442c-1.125,2.288 -2.916,4.246 -6.041,3.621c-2.042,-0.412 -3.5,0.663 -4.833,2.096c-0.458,0.512 -1.25,0.833 -0.875,1.704c0.291,0.787 1.125,0.925 1.792,0.817c3.125,-0.5 5,1.437 6.958,3.346c3,2.887 5.459,5.971 6.417,10.221c0.542,2.471 3.083,3.188 5.167,2.521c2.625,-0.833 0.791,-2.892 0.333,-4.241c-2.375,-6.892 -8.208,-12.704 -6.167,-20.967c0.375,-1.558 -2.375,-3.746 -0.417,-4.909c2.125,-1.266 3.208,1.642 4.708,2.758c0.583,0.417 0.958,1.1 1.542,1.467c4.292,2.659 8.458,4.912 13.875,2.575c3.667,-1.579 2.917,-5.117 4.292,-7.704c12.375,9.162 15.375,9.25 18.875,0.437c0.583,1.596 1.375,2.979 1.542,4.433c0.417,3.587 2.542,4.408 5.667,4.117c1.875,-0.175 3.625,-0.75 5.25,-1.604c2.375,-1.233 5.125,-7.871 4.208,-9.946c-2.208,-4.854 -5.042,-6.121 -9.833,-4.113c-2.334,0.988 -4.083,1.254 -5.792,-1.233c-3.083,-4.537 -7.25,-5.454 -12.458,-3.583c-2.334,0.825 -3.542,3.279 -5.25,3.646c-2.083,0.441 -2.334,-3.646 -4.833,-4.158c-0.167,-0.03 -0.291,-0.046 -0.417,-0.096c-8.292,-3.229 -12.375,-0.833 -17.792,5.338c-1.583,1.787 -2.958,3.608 -5.583,3.167c-4.75,-0.792 -9.5,0.35 -14.334,-0.042c8.458,-4.037 17.167,-6.588 24.334,-13.446c8.083,-7.696 11.083,-17.354 12.791,-26.983c2.167,-12.05 -3.916,-22.15 -13.958,-29.2c-2.958,-2.067 -6.917,-2.638 -10.209,-4.038c-6.708,-2.867 -11.5,-0.262 -16.333,3.379c-3.375,2.509 -4.917,5.934 -3.208,10.059c1.167,2.842 2.416,5.933 6.167,6.15c4.459,0.262 7.042,-2.312 8.542,-6.271c0.833,-2.125 1.417,-4.271 1.708,-6.55c0.334,-2.312 1.042,-3.25 3.625,-1.304c5,3.8 8.042,8.504 9.458,14.634c0.583,2.504 -0.083,3.383 -2.167,4.029c-4.458,1.404 -8.833,3.488 -13.375,4.05c-4.083,0.512 -6.417,3.637 -10.083,4.787c-7.209,2.288 -14.792,4.004 -20.958,8.763c-10.5,8.104 -18.292,18.808 -27.959,29.05c2.208,-6.225 4.542,-11.446 7.084,-16.621c4.333,-8.85 7.25,-18.154 7.667,-28.092c0.042,-1.479 0.375,-3.425 -2.042,-3.445c-2.333,-0.017 -2.75,1.604 -2.75,3.496c-0.042,1.842 0.917,3.492 0.583,5.458c-2.083,12.179 -6.958,23.417 -12.75,34.075c-6.375,11.7 -11.375,23.967 -16.917,36.009c-1.417,3.083 -2.333,6.379 -3.5,9.588c-0.25,0.754 -0.583,1.341 -1.458,0.983c-0.667,-0.262 -0.667,-1.004 -0.458,-1.467c1.333,-2.658 0.5,-5.625 1.291,-8.37c3.834,-12.7 7.958,-25.271 14.334,-36.984c1.875,-3.475 3.583,-7.179 5.875,-10.275c6.333,-8.517 10.292,-17.817 11.917,-28.221c0.209,-1.371 0.5,-3.312 1.459,-3.896c4,-2.504 0.958,-5.438 0.75,-8.125c-0.125,-1.233 -1.333,-1.746 -2.583,-1.725c-1.542,0.021 -1.917,0.971 -2,2.242c-0.042,0.709 -0.083,1.421 -0.125,2.134c-0.042,7.521 -1,14.616 -4.833,21.52c-3.208,5.771 -6.791,11.292 -10.25,16.887c-2.208,3.588 -2.708,7.838 -4.792,11.309c-6.667,11.133 -10.208,23.271 -12.542,35.87c-0.333,1.663 -1.083,3.246 -1.375,4.909c-0.417,2.192 -2.292,2.104 -3.625,2.075c-1.583,-0.033 -1.208,-1.7 -1.167,-2.754c0.042,-1.692 0.209,-3.396 0.458,-5.066c0.667,-4.258 0.25,-8.533 0.292,-12.8c0,-1.208 -0.458,-2.483 -1.792,-2.504c-1.75,-0.03 -1.25,1.579 -1.291,2.591c-0.167,5.254 -1.334,10.442 -0.917,15.733c0.125,1.579 0.125,3.404 -2.167,3.408c-1.834,0.004 -3.917,0.875 -5.125,-1.75c-1.083,-2.367 -2.167,-4.829 -2.167,-7.292c-0.042,-8.996 -4.333,-16.4 -8.792,-23.583c-8.833,-14.275 -16.417,-29.033 -21.042,-45.288c-2.542,-8.917 -5.042,-17.587 -0.792,-26.612c0.792,-1.737 0.417,-2.592 -1.791,-2.408c-1.958,0.166 -3.458,0.825 -4.917,2.15c-3.291,2.987 -4.667,6.854 -6,10.95c-3.167,9.567 -4.167,18.967 -0.25,28.604c1.125,2.809 3.125,5.559 2.5,9.717c-3.875,-4.488 -7.292,-8.55 -11.625,-11.458c-10.667,-7.162 -21.833,-13.379 -34.042,-17.683c-6.125,-2.154 -8.875,-5.737 -11.292,-11.887c-2.125,-5.475 -0.75,-10.921 2.583,-14.542c3.416,-3.704 8.958,-5.237 14.5,-4.375c4.5,0.704 4.375,4.854 4.417,7.633c0,1.725 -1.583,5.062 -4.667,5.095c-1.583,-0.254 -3.083,-0.733 -4.5,-1.921c-2.125,-1.758 -2.875,-4.121 -4.416,-6.275c-0.5,-0.696 -1.667,-0.675 -1.875,0.25c-1.333,4.925 2.75,9.438 7.5,11.521c0.667,0.658 2,0.762 2.916,1.087c1,0.371 2.292,0.425 3.334,0.192c0.291,-0.063 0.542,-0.179 0.833,-0.262c0.167,-0.029 0.334,-0.042 0.458,-0.083c0.167,-0.046 0.292,-0.129 0.417,-0.196c4.708,-1.842 5.625,-6.271 6.041,-11.046c0.209,-2.783 -3,-8.621 -5.833,-9.887c-8.541,-3.829 -19.333,-0.18 -24.791,6.625c-5.75,7.25 -7.292,16.079 -6.542,25.262c0.209,2.529 -0.208,3.842 -3.291,2.437c-2.417,-1.104 -5.167,-1.479 -7.917,-1.388c-6.583,0.225 -6.583,0.167 -8.666,-5.954c-2,-5.892 -9.417,-9.804 -15,-7.233c-3.167,1.458 -7.25,4.496 -6.667,7.858c0.958,5.775 -1.333,6.158 -5.625,5.541c-0.291,-0.042 -0.583,0.075 -0.833,0.142c-7.625,1.775 -15.334,3.133 -23.209,3.225c-1.667,0.021 -3.792,1.167 -4.875,-0.246c-2.333,-3.025 -5.375,-5.113 -8.083,-7.613c-4.167,-3.796 -4.458,-8.929 -4.208,-14.1c0.083,-1.295 -1.083,-2.762 0.625,-3.904c4,-2.692 7.667,-6.462 13.125,-3.554c0.417,0.933 0.625,1.917 0.125,3.05c-0.875,1.834 -3.083,2.146 -4.875,2.363c-0.709,0.087 -1.083,1.287 -0.167,1.437c2.875,0.488 5.792,0.529 7.584,-2.221c0.917,-1.417 1.042,-3.196 0.666,-4.842c1.292,-1.133 0.083,-2.009 -0.375,-2.958c-1.708,-3.408 -4.333,-4.734 -7.958,-3.358c-2.875,1.096 -5.667,2.408 -8.417,3.792c-4.833,2.437 -6.041,4.716 -5.208,10.166c0.542,3.642 1.334,7.25 2,10.867c1.166,6.15 5.291,9.837 10.583,12.508c1.542,0.775 3.334,1.079 4.583,2.671c-1.958,0.767 -14.583,1.534 -17.042,1.354c-5.458,-0.408 -10.875,-1.042 -16.292,-2.1c-4.916,-0.958 -15.375,-5.342 -19.333,-8.275c-4.625,-3.392 -6.542,-9.025 -11.334,-12.188c-2.25,-1.467 -2.291,-3.646 -0.625,-6.275c3.166,-4.988 5.833,-10.071 4.042,-16.646c-0.875,-3.229 1,-6.854 2.625,-10.034c1.417,-2.675 3.708,0.113 5.375,-1.037c0.667,-0.446 1.75,-0.217 2.459,-0.634c4.167,-2.533 10,-3.287 10.541,-9.808c0.209,-2.192 -0.166,-2.975 -2.458,-1.896c-3.333,1.546 -6.625,3.4 -10.125,4.171c-5.542,1.229 -9.417,4.817 -13.459,8.246c-3.166,2.659 -5.042,6.3 -6.916,9.979c0.542,-4.308 1.333,-8.3 3.125,-12.262c2.125,-4.8 6.541,-7.358 9.25,-11.417c2.834,-4.275 7.458,-4.179 11.542,-5.508c1.208,-0.4 2.167,0.529 2.333,1.871c0.417,2.684 2.208,3.155 4.584,3.217c-0.209,-1.75 -0.334,-3.175 -0.625,-4.542c-0.875,-3.77 -4.917,-6.525 -7.917,-5.017c-4.458,2.225 -10.125,1.287 -13.917,5.621c0.833,-3.996 1.583,-7.679 1.625,-11.491c0,-0.946 0.125,-1.692 -0.792,-2.05c-0.875,-0.316 -2.042,-0.258 -2.167,0.692c-0.875,6.121 -4.167,11.342 -6,17.1c-2.542,7.996 -4.959,16.029 -5.667,25.017c-5.542,-7.238 -3.875,-14.646 -3.208,-21.917c0.417,-3.971 0.833,-8.046 3.583,-11.192c2.958,-3.404 6.083,-6.733 9.458,-9.733c2.125,-1.921 2.916,-4.579 1.958,-6.442c-1.292,-2.542 -4.167,-4.134 -6.917,-5.362c-0.708,-0.334 -1.166,0.658 -1.208,1.383c-0.417,8.059 -7.209,13.079 -9.125,20.859c-2.333,-2.459 -3.542,-4.675 -4.583,-7.021c-0.417,-0.954 -1.208,-2.225 -2.416,-2.163c-1.417,0.075 -1.208,1.704 -1.75,2.617c-2.083,3.591 -0.209,7.492 -0.709,11.275c-0.791,6.304 -0.958,12.825 0.709,19.017c1.333,4.979 4.333,9.592 1.708,15c-0.209,0.4 0.291,1.087 0.291,1.637c0.125,6.271 3.917,10.35 8.25,14.246c2.459,2.233 5.167,3.363 8.084,1.791c3.042,-1.645 3.916,-0.087 5.458,2.15c3.208,4.721 5.417,10.208 10.542,13.508c6.792,4.35 14.167,7.171 21.958,8.979c10.625,2.458 21.125,2.492 31.792,0.021c3.458,-0.796 7.125,-1.638 11.791,-1.663c-3,0.908 -4.958,1.513 -6.833,2.6c-5.5,3.188 -10.958,6.658 -16.791,9.1c-10.958,4.562 -21.209,9.946 -30.417,17.583c-6.208,5.175 -12.333,10.675 -20.084,13.775c-2.458,0.971 -2.583,0.521 -3.291,-1.654c-0.875,-2.542 -0.875,-5.504 -3.459,-7.463c-4.791,-3.621 -10.125,-2.817 -15.458,-2.492c-1.458,0.092 -2.875,0.888 -3.583,2.138c-2.042,3.758 -5.208,6.425 -8.375,9.088c-4.292,3.646 -9.417,6.554 -14.958,6.333c-7.375,-0.291 -14.708,-1.4 -22.125,-0.616c-1.333,0.142 -2.458,-0.287 -3.208,-1.587c-2.583,-4.358 -5.916,-8.254 -7.667,-13.15c-1.625,-4.558 -3.542,-9.421 -2.25,-13.929c1.375,-4.821 3.417,-9.7 6.709,-13.863c0.958,-1.229 1.666,-2.1 3.25,-2.188c4.333,-0.233 8.667,-0.533 13,-0.841c2.75,-0.192 5.292,0.888 7.084,2.496c2.167,1.929 5.25,4.487 2.583,7.937c-1.834,2.367 -2.792,7.917 -8,3.313c-0.583,-0.508 -3.416,-2.883 -5.167,-0.604c-0.958,1.254 -0.917,3.313 0.25,4.387c2.083,1.875 4.125,3.721 7.333,3.921c7.792,0.479 13.083,-7.337 12.125,-15.5c-0.542,-4.188 -3.625,-6.113 -6.375,-8.496c-2.875,-2.521 -6.125,-5.133 -9.917,-4.804c-5.917,0.508 -12.042,0.709 -17.333,4.062c-0.125,0.071 -0.167,0.262 -0.25,0.338c-5.958,4.054 -8.333,10.55 -10.708,16.787c-2.5,6.579 -1.5,13.963 0.917,19.888c2.75,6.579 6.667,12.82 9.458,19.529c0.833,1.954 2.75,2.795 4.833,3.129c0.958,0.158 2.083,0.012 2.916,0.412c10.292,4.787 21,6.087 32.208,4.441c-2.416,3.984 -0.625,13.75 1.834,16.909c0.875,1.083 1.958,1.879 3.25,1.837c1.667,-0.054 1.875,-1.937 1.875,-2.925c0.125,-5.05 3.958,-7.066 7.417,-9.087c5.042,-2.904 10.5,-5.017 15.416,-8.092c3.958,-2.496 8.25,-5.317 7.458,-11.225c-0.167,-1.363 0.5,-1.933 1.75,-2.438c13.917,-5.467 25.25,-14.658 36,-24.683c0.75,-0.671 1.25,-2.042 2.917,-1.321c-1.834,2.279 -3.708,4.367 -5.292,6.675c-0.375,0.554 -0.917,1.162 -1.292,1.816c-6.958,9.1 -13.208,22.205 -11.875,33.304c-0.083,0.162 -0.209,0.325 -0.25,0.534c-0.292,0.791 -0.292,1.671 -0.334,2.521c-0.333,8.821 1.792,17.371 2.959,26.025c0.166,1.092 0.417,2.737 2.125,2.825c2.083,0.1 4,-0.316 5.167,-2.258c1.583,-2.583 3.833,-4.437 6.791,-6.233c0.583,7.337 1.834,14.2 3.25,21.046c0.458,2.208 4,4.937 -0.666,6.766c-0.5,0.2 -0.25,0.95 0.083,1.492c2.334,3.904 3.208,8.338 4.167,12.65c3.167,14.167 4.167,28.792 9.25,42.563c1,2.788 -0.917,2.637 -2.792,2.183c-8.666,-2.058 -15.292,-6.971 -18.667,-15.121c-1.583,-3.804 -6.625,-8.687 0.291,-12.712c0.292,-0.167 0.375,-0.742 0.5,-1.138c1.583,-4.7 0.958,-8.842 -2.583,-12.587c-3.542,-3.721 -6.416,-7.933 -8.208,-13.396c3.083,0.483 5.25,2.746 7.625,1.392c2.083,-1.208 6.708,1.121 6.25,-3.15c-0.417,-3.796 -4.416,-2.088 -6.833,-2.166c-3.25,-0.108 -6.041,-0.604 -8.5,-3.067c-1.458,-1.467 -1.334,-2.609 -0.583,-4.125c1.083,-2.108 2.167,-0.337 3.125,0.042c2.416,0.959 4.792,1.946 7.417,1.646c2.042,-0.238 5.625,0.967 5.292,-2.371c-0.292,-2.967 -3.75,-1.583 -5.792,-1.458c-4.167,0.262 -9.084,-3.692 -9.042,-7.913c0,-2.441 -0.417,-4.792 -0.833,-7.179c-0.875,-5.367 -3.459,-10.162 -8.333,-11.887c-6.459,-2.275 -13.417,-2.225 -19.375,2.295c-6.708,5.096 -7.167,13.542 -10.5,20.446c-3.042,6.413 -3.208,14.225 -8.75,19.446c-1.917,1.808 -2.334,5.342 -4.708,5.821c-14.25,2.862 -27.042,-2.721 -28.708,-19.755c-0.375,-3.795 2.458,-8.008 5.75,-8.437c3,-0.404 6,-0.996 9,-1.417c3.167,-0.45 2.958,2.113 4.083,3.259c1.291,1.362 -0.834,1.441 -1.542,2.083c-0.375,0.337 -0.75,1.021 -0.667,1.429c1.042,4.43 -0.417,8.008 -3.416,11.18c-0.334,0.32 -0.459,1.208 -0.25,1.546c0.458,0.658 1.375,0.679 1.917,0.183c3.459,-3.121 7.292,-5.996 8.084,-11.075c0.958,-5.866 -2.125,-9.996 -5.833,-13.871c-0.917,-0.942 -2.083,-0.379 -3.167,-0.505c-4.458,-0.516 -8.625,1.075 -12.917,1.288c-3.417,0.171 -5.167,1.754 -6,4.912c-1,3.825 -1.375,7.687 -1.708,11.625c-0.542,6.262 1.833,11.142 5.042,16.221c2.625,4.079 6.792,6.321 9.584,9.921c3.875,4.988 9,7.525 14.791,9.35c3.083,0.983 6.292,2.762 9.417,1.867c5,-1.438 9.917,-1.554 15,-1.446c2.5,0.05 5.333,-0.925 7.417,-2.725c5.625,-4.879 11.791,-9.254 16.542,-16.55c0.125,7.912 0.417,14.725 2.875,21.354c3.416,9.271 5.5,18.996 14.75,25c5.416,3.504 9.792,8.487 16.625,9.667c5.708,0.987 11.333,2.567 17,3.742c1.125,0.238 2.792,0.583 3.5,-0.754c0.709,-1.45 -0.917,-2.175 -1.625,-3.142c-3.083,-4.108 -5.625,-8.237 -6.458,-13.621c-1.875,-11.804 -4.792,-23.408 -7.875,-34.962c-1.167,-4.404 -2.083,-8.879 -3.083,-13.321c2.833,1.35 4.583,3.375 6.667,4.954c3.375,2.533 7.25,5.5 11.292,4.904c5.459,-0.8 10.875,-1.217 16.334,-1.258c4.042,-0.029 7.75,-1.2 11.542,-2.542c4.083,-1.442 7.75,-3.721 12.625,-3.871c7.75,-0.242 15.125,-2.937 20.333,-9.6c2.958,-3.775 4.833,-8.033 6.25,-12.467c2.916,-9.029 1.125,-16.775 -5.5,-24.042c-3.083,-3.362 -6.583,-2.816 -9.833,-3.863c-5.5,-1.746 -10.084,0.75 -13.792,4.571c-3.583,3.679 -1.833,13.854 2.875,15.521c5.042,1.792 10.25,1.221 15,-1.725c0.625,-0.384 1.125,-0.912 0.958,-1.725c-0.208,-0.883 -1,-0.875 -1.667,-0.975c-1.208,-0.17 -2.333,0.087 -3.25,0.779c-3.083,2.371 -5.333,0.338 -7.542,-1.412c-1.167,-0.925 -2.667,-1.854 -1.708,-3.863c1.25,-2.65 1.834,-5.6 5.625,-6.187c6.083,-0.929 12.625,4.183 13.542,10.763c1.042,7.609 -5.917,23.7 -15.834,25.375c0.875,1.208 1.708,2.342 3.292,4.504c-6.25,-1.725 -11.625,-2.463 -16.208,-4.721c-3.167,-1.558 -6.75,-1.633 -9.667,-3.854c-4.5,-3.404 -7,-7.884 -9.125,-12.975c-2.834,-6.704 -7.042,-12.496 -13.333,-16.654c-2.667,-1.771 -5.792,-3.825 -6.959,-6.517c-1.083,-2.416 -1.958,-1.971 -3.208,-1.242c-1.042,0.612 -2,0.683 -3.125,0.796c-4.833,0.479 -8.958,2.45 -12.208,6.1c-0.792,0.875 -1.334,1.775 -2.792,1.312c-1.375,-0.433 -2.375,-1.233 -2.458,-2.616c-0.417,-7.142 -1.542,-14.225 -0.25,-21.454c1.208,-6.596 4.083,-12.709 5.167,-19.263c0.875,-5.279 3.208,-9.967 6.792,-13.4c5.167,-4.929 10.042,-10.363 17.208,-14.171c-3,3.571 -5.208,6.929 -8.125,9.508c-5.333,4.754 -7.709,10.296 -7.625,17.546c0.083,11.458 9.709,21.583 21.084,21.37c2.5,-0.046 4.333,-0.791 5.125,-3.412c-14.958,-0.842 -18.417,-5.533 -21.958,-15.358c-2.125,-5.838 -0.125,-12.212 3.667,-15.167c-1,6.859 0.625,13.421 3.042,19.796c1.292,3.375 6.417,6.3 8.25,4.775c3.25,-2.721 6.625,-2.75 10.292,-1.525c2.625,0.867 2.625,-0.85 2.333,-2.533c-0.958,-5.321 -6.125,-7.675 -10.958,-5.058c-1.125,0.608 -2.25,1.175 -3.375,1.833c-0.834,0.521 -1.208,0.633 -1.834,-0.504c-3.208,-5.842 -4.25,-11.95 -2.333,-18.354c1.5,-5.196 4.708,-9.279 8.458,-13.242c5.625,-5.929 12.75,-8.85 19.917,-12.079c-0.5,1.496 -1.333,2.6 -2,3.817c-3.625,6.675 -8.208,13.171 -4.333,21.375c0.125,0.213 -0.166,0.746 -0.458,0.971c-0.917,0.821 -1.125,1.8 -0.125,2.492c1.291,0.879 2.083,-0.075 2.708,-1.142c1.875,-3.188 3.792,-6.471 7.042,-8.446c4.916,-3.004 9.208,-6.813 16.208,-5.179c5.5,1.292 14.166,-7.437 14.916,-13.325c0.375,-2.671 0.75,-5.371 4.5,-4.587c4.167,0.867 8.333,1.708 12.625,1.637c1,-0.016 2.542,0.18 2.5,1.184c-0.375,4.771 4.333,9.662 -0.375,14.358c-0.583,0.617 -1.208,1.733 -0.625,2.763c2.583,4.504 4,9.596 8.5,13.029c6.083,4.613 13.042,7.512 20,11.287c-4.167,-0.75 -7.75,0.633 -11.375,0.346c-1.583,-0.125 -3.625,0.158 -4.167,-1.5c-1.458,-4.596 -5.875,-5.333 -9.041,-7.767c-5.333,-4.096 -14.208,0.271 -14.5,6.483c-0.25,4.566 -1.875,3.383 -4.208,1.242c-4.167,-3.813 -9.167,-3.233 -14.083,-2.058c-1.625,0.388 -3.417,1.775 -3.417,3.463c0.042,3.416 -1.291,3.396 -4.167,3.067c-3.583,-0.408 -7.375,0.546 -9.292,3.963c-1.791,3.241 -1,6.912 0.083,10.35c0.125,0.446 0.75,1.021 1.167,1.063c3.125,0.296 6.375,0.867 9.292,-0.262c2.083,-0.8 4.416,-2.992 3.667,-5.158c-0.75,-2.246 -3.208,-0.142 -4.833,0.137c-1.375,0.233 -2.708,0.408 -3.25,-1.017c-0.458,-1.3 0.458,-2.554 1.542,-3.25c1.25,-0.83 2.75,-0.604 4.042,0.238c1.875,1.254 3.667,2.645 5.541,3.925c4.708,3.233 10.042,6.471 15.083,2.021c4.208,-3.734 7.333,-4.592 11.542,-0.879c0.333,0.3 1.125,0.108 1.667,0.192c7,1.063 10.625,-3.479 13.791,-8.542c0.667,-1.058 0.709,-2.425 2.417,-2.529c4.458,-0.279 8.916,-0.638 13.375,-0.967c-5.333,0.492 -8.75,3.558 -11.083,8.142c-1.5,2.913 -3.375,5.242 -6.541,6.917c-10.667,5.667 -12.542,15.1 -5.084,23.167c3.75,4.029 6.125,3.971 9.792,-0.188c3.042,-3.454 6.041,-7.054 11.5,-6.609c-0.334,1.908 -0.542,3.717 -1.042,5.425c-1.75,5.909 -1.792,5.909 4.042,8.405c1.542,0.671 3.208,1.129 4.708,1.879c3.792,1.863 7.417,1.529 10.917,-0.558c3.167,-1.867 6.208,-3.584 8.5,-6.8c3.791,-5.338 9.166,-9.771 15.875,-6.638c5.417,2.533 10.375,6.229 15.958,8.692c1,0.446 1.25,1.237 1.208,1.975c-0.042,0.758 -0.958,0.979 -1.708,0.958c-2.833,-0.087 -3.833,2 -4.75,4.117c-1.417,3.346 -3.042,6.642 -4.125,10.096c-0.666,2.071 -1.917,2.567 -3.708,2.842c-9.584,1.466 -19.459,2.283 -25.334,11.742c-0.167,0.238 -0.333,0.492 -0.583,0.641c-7.167,4.625 -8.958,12.167 -9.708,19.725c-0.667,6.871 1.083,13.792 2.958,20.404c1.75,6.183 5.792,11.333 11.792,13.821c7.667,3.162 15.416,2.863 22.333,-2.446c0.833,1.383 0.917,2.717 1.375,3.854c2.083,5.283 1.958,11.362 6.292,15.875c5.125,5.291 10.042,10.629 17.708,12.167c2.458,0.488 4.042,1.512 1.792,4.575c-2.834,3.821 -2.5,8.012 0.666,11.733c0.834,0.992 0.917,1.767 0.375,3.038c-3,7.421 -6.125,14.75 -11.292,21.042c-6,7.363 -13.166,13.563 -20.041,20.092c-2.125,2.046 -4.625,3.725 -6.959,5.575c2.5,-6.558 6.542,-12.192 7.958,-18.971c0.25,-1.321 1.417,-4.075 -0.083,-3.7c-2.458,0.617 -6.583,-2.637 -7.292,1.667c-0.667,4.225 -3.042,7.583 -4.125,11.367c-2.875,9.896 -9.958,15.596 -18.5,19.308c-13.542,5.879 -27.333,11.129 -42,13.975c-13.125,2.542 -25.791,2.971 -38.333,-3.212c1.666,-0.408 3.167,-0.621 4.583,-1.15c9.5,-3.621 19.541,-5.612 27.708,-12.825c9.417,-8.375 16.75,-17.917 21.5,-29.533c3.375,-8.254 6.292,-16.312 5.417,-25.817c-0.667,-7.513 -0.5,-14.917 -3.834,-21.929c-0.583,-1.237 -0.833,-2.883 -0.708,-4.546c0.542,-9.375 -0.834,-18.633 -6.584,-26.129c-6.875,-9.013 -13.625,-18 -18.667,-28.204c-0.791,-1.671 -2.333,-2.929 -0.958,-5.296c0.75,-1.254 -0.125,-2.683 -2.334,-1.516c-4.583,2.425 -5.583,6.754 -6.458,11.229c-1.458,7.346 -4.583,14.471 -2.875,22.229c0.042,0.233 -0.166,0.533 -0.25,0.8c-2.667,7.179 -2.416,15.117 -5.917,22.083c-0.5,0.937 -0.583,2.283 -0.333,3.321c1.542,6.833 0.291,13.867 1.625,20.725c1.667,8.513 3.75,16.808 7.375,24.817c1.791,3.983 4.458,7.504 5.75,11.8c0.5,1.617 -0.75,2.979 0.375,4.521c2.375,3.158 1.667,7.083 -1.625,9.404c-2.583,1.829 -5.167,3.738 -6.5,6.6c-1,2.221 -2.542,3.379 -4.667,3.963c-6.375,1.766 -12.75,3.487 -19.167,5.104c-2.042,0.512 -4,0.242 -6.125,-0.592c-6.041,-2.362 -12.333,-3.991 -17.75,-7.854c-1.792,-1.271 -4.792,-3.338 -6.375,-0.542c-1.667,2.867 1.834,3.792 3.708,5.075c4.417,3.079 9.208,5.717 13.209,9.225c7.417,6.462 15.708,10.408 25.25,12.992c13.792,3.729 27.459,1.85 40.917,0.063c14.25,-1.888 26.958,-9.246 39.667,-15.817c5.875,-3.025 11.958,-5.646 17.583,-9.092c8.625,-5.321 15.542,-12.796 23.166,-19.421c6.375,-5.575 11.875,-11.792 14.417,-20.179c0.542,-1.742 1.583,-3.334 2.5,-4.933c0.542,-0.921 1.458,-1.513 2.542,-0.946c1.042,0.529 0.583,1.396 0.333,2.221c-2,6.4 -3.5,12.879 -7.375,18.638c-3.334,4.962 -6.25,10.671 -10.75,14.146c-7.875,6.05 -14.375,13.8 -23.208,18.604c-3.834,2.083 -7.375,4.683 -11,7.025c-6.292,4.025 -12.458,8.008 -19.25,11.121c-5.667,2.579 -12.25,2.562 -17.333,6.596c-0.458,0.367 -1.417,0.029 -2.083,0.209c-6.875,1.837 -14.042,1.508 -20.958,3.05c-7.541,1.679 -15.291,2.991 -22.958,-0.167c-1.375,-0.567 -3.875,-1.112 -4.583,0.629c-0.583,1.442 1.458,2.463 2.834,3.246c0.958,0.563 1.958,1.113 2.958,1.65c10.5,5.696 19.417,13.229 26.292,23.05c2.333,3.367 3.625,7.225 4.208,11.396c-4.25,-6.087 -9.25,-11.3 -14.792,-16.113c-9.084,-7.888 -18.875,-14.746 -30.292,-18.583c-8,-2.692 -14.417,-7.025 -19.375,-13.691c-1.125,-1.521 -2.625,-2.392 -4.5,-2.979c-5.667,-1.746 -11.209,-3.737 -16.792,-5.696c-2.75,-0.975 -2.167,-2.233 -0.417,-3.938c2.333,-2.242 5.083,-4.162 6,-7.6c0.459,-1.696 0.375,-3.654 -0.917,-4.225c-1.958,-0.888 -1.833,1.562 -2.375,2.637c-3.292,6.954 -8.125,12.154 -16.167,12.717c-7.084,0.5 -14.042,1.65 -21,2.804c-8.75,1.454 -17.375,3.575 -25.791,6.492c-4.792,1.65 -9.709,2.975 -14.583,5.096c0.917,-5.238 4.708,-6.429 8.416,-7.4c2.375,-0.621 5,-1.292 6.375,-3c2.083,-2.583 4,-2.529 6.708,-1.721c1.042,0.325 3.042,1.304 3.5,0.012c1.375,-3.546 4.167,-2.325 6.458,-2.35c2.459,-0.029 4.75,-0.542 7.084,-1.292c4.167,-1.35 8.292,-3.367 12.542,-3.708c4.083,-0.321 7.958,-0.963 11.541,-2.496c7.209,-3.075 15.292,-5.371 17.375,-14.613c1.208,-5.379 1.125,-10.775 -1.917,-15.458c-3.208,-4.942 -8.125,-7.967 -14.083,-8.204c-4.625,-0.179 -9.625,0.004 -13.334,2.958c-1.833,1.437 -3.375,3.033 -5.667,3.233c-7.541,0.671 -14.667,3.242 -21.958,4.85c-5.75,1.258 -10.375,4.966 -13.708,9.387c-3.583,4.779 -7.333,9.246 -11.875,13.146c-1.667,1.438 -3.625,3.171 -4.167,5.129c-2.875,10.25 -8.792,18.629 -15.75,26.296c-2.667,2.912 -5.375,6.025 -9.792,7.037c-2.792,0.633 -4.833,-0.275 -5.875,-2.096c-1.125,-1.958 0.167,-4.254 2.083,-5.479c2.75,-1.733 4.292,-4.508 6.5,-6.683c0.709,-0.679 1.708,-1.512 1,-2.542c-0.625,-0.921 -1.791,-0.571 -2.75,-0.292c-4.208,1.183 -7.75,3.458 -11.042,6.246c-3.334,2.862 -5.333,8.492 -4.167,11.737c2.208,5.967 6.375,8.946 12.167,8.779c7.375,-0.212 13.958,-2.75 20.333,-6.413c4.5,-2.579 8.458,-6.017 13.375,-8.029c2.667,-1.083 5.583,-1.292 8,-2.567c5.625,-2.975 11.75,-3.942 17.708,-5.708c3.708,-1.1 8.375,0.275 11,-2.45c3.583,-3.688 7.625,-3.404 11.917,-3.783c5.125,-0.454 10.625,0.963 15.125,-2.962c0.834,-0.721 1.792,-0.533 2.75,0.063c6.375,3.9 13.583,5.229 20.708,6.917c1.75,0.417 2.834,1.137 4.042,2.571c5.875,6.875 10.792,15.071 21.292,15.996c1.708,0.154 3.291,1.583 4.958,2.346c1.167,0.521 2.375,1.154 3.583,1.304c8.292,1.008 14.5,5.783 20.209,11.229c2.125,2.008 4.333,3.55 6.792,5.004c9.541,5.675 15.5,15.667 10.792,27.579c-1.5,3.85 -3.583,7.337 -5.167,11.104c-3.417,8.162 -8.25,14.596 -18.417,13.933c-0.667,-0.046 -1.417,0.138 -2.083,0.308c-7.375,1.862 -13.583,-1.6 -18.875,-5.512c-5.958,-4.438 -9.583,-16.125 -4.458,-24.079c2.5,-3.846 5.416,-4.937 9.292,-5.267c4.042,-0.346 7.625,-0.388 9.584,4.6c1.791,4.671 0.708,8.213 -4.042,9.088c-1.25,0.225 -2.583,-0.008 -3.791,0.354c-1.917,0.579 -4.833,0.704 -4.833,3.1c0.042,2.783 2.875,2.558 5,2.608c1.125,0.025 2.292,0.012 3.417,-0.133c5.458,-0.704 10.708,-5.683 11,-9.779c0.666,-8.292 -9.209,-19.696 -19.084,-17.475c-7.792,1.742 -13.042,5.075 -16.167,12.554c-2.042,4.833 -0.791,9.346 -0.833,14.054c-0.083,6.742 0.417,12.8 6.625,17.25c4.75,3.421 8.5,8.121 15.375,7.546c2.833,-0.242 5.958,0.612 8.708,1.646c6.625,2.509 12.083,-1.45 18,-2.916c0.542,-0.142 1,-0.938 1.375,-1.517c3.583,-5.408 6.667,-11.242 10.833,-16.179c7.5,-8.938 5.5,-19.575 5.917,-29.659c0.166,-4.475 -1.917,-9.079 -3.208,-13.558c-1.667,-5.65 -4.625,-10.263 -9.333,-14.192c-3.334,-2.775 -6.875,-5.392 -9.958,-8.471c-0.625,-0.646 -1.958,-1.192 -1.458,-2.288c0.417,-0.862 1.708,-1.329 2.667,-0.929c4.833,2.062 9.375,-0.446 13.917,-1.096c11,-1.575 21.833,-4.317 32.375,-7.875c6.875,-2.333 14.25,-4.775 20,-8.842c9.209,-6.483 18.667,-12.825 26.792,-20.783c4.833,-4.725 10.583,-8.637 14.875,-13.771c6.833,-8.129 11.917,-17.463 15.25,-27.671c-1.208,5.937 -3.083,11.762 -4.167,17.646c-2.583,13.496 -4.959,27.012 -9.875,39.871c-1.75,4.483 -3.542,9.058 -6.959,12.813c-4.667,5.096 -9.041,10.296 -14.625,14.625c-4.333,3.412 -8.5,6.896 -13.958,7.729c-3.625,0.558 -6.917,2.133 -10.542,2.446c0.209,1.621 1.083,2.367 2.25,2.592c12.333,2.367 24.542,2.383 36.583,-3.192c-2.834,8.554 -8.958,13.029 -15.917,16.488c-9.041,4.458 -18.708,6.529 -28.708,5.933c-5.584,-0.329 -11.417,1.787 -16.708,-2.467c-5.417,-4.354 -7.875,-10.141 -11.125,-16.637c3.542,0.65 6,1.371 8.5,1.492c3.542,0.171 7.125,0.133 9.541,-3.321c2.792,-3.962 2.875,-8.362 -0.583,-13.104c-1.542,-2.117 -2.25,-5.167 -5.875,-5.525c-5.875,-0.571 -12,3.604 -14.583,8.908c-2.917,6.071 -3.25,11.95 -1.334,18.15c0.417,1.358 -0.542,2.863 0.667,4.075c4.292,4.3 8.542,8.667 12.917,12.917c1.167,1.167 2.583,2.408 4.333,2.458c6.833,0.2 13.417,2.354 20.417,1.433c11.958,-1.562 22.708,-5.467 32.5,-12.529c7.667,-5.533 15.667,-10.625 22.417,-17.496c-2.833,9.079 -5.583,18.042 -11,25.908c-3.125,4.571 -6.125,9.246 -10.583,12.691c-1.375,1.058 -3.083,1.925 -2.5,3.983c0.625,2.15 2.667,1.646 4.333,1.838c5.125,0.596 9.917,-1.383 15.125,-2.642c-1.25,3.279 -2.042,6.146 -4.208,8.375c-5.792,5.942 -13.375,8.858 -20.541,12.454c-4.167,2.075 -8.209,2.979 -12.958,1.092c-2.959,-1.167 -4.959,-3.146 -7.333,-4.871c-4.084,-2.996 -5.292,-8.508 -2.667,-12.7c1.125,-1.779 2.542,-4.204 5.416,-2.312c2.583,1.692 3.708,3.833 2.042,6.862c-0.875,1.658 -2.666,2.292 -4.416,3.746c4.458,0.85 7.958,-0.209 9.5,-3.708c1.25,-2.854 1.542,-6.638 -1.167,-9.158c-2.917,-2.733 -5.75,-5.275 -10.75,-2.775c-5.625,2.817 -6.833,7.458 -7.792,12.692c-0.708,4.008 1.292,7.313 2.459,10.917c1.208,3.879 3.583,5.787 7.25,6.833c4.708,1.329 9.333,1.521 14.25,0.987c8.209,-0.896 15.25,-4.588 21.584,-9.179c5.959,-4.346 10.25,-10.554 11.625,-18.258c0.208,-1.129 0.5,-2.508 1.917,-3.067c1.292,1.371 0.75,3.021 0.75,4.525c0.083,5.625 -0.209,11.263 0.042,16.883c0.375,10.067 -0.125,20.004 -3.375,29.642c-0.667,1.975 -1.667,3 -4.167,2.146c-4.792,-1.638 -9.625,-2.279 -13.583,2.217c-0.333,0.375 -1.125,0.767 -1.5,0.608c-4,-1.846 -6.625,1.083 -9.708,2.667c-7.417,3.825 -8.292,13.225 -1.583,18.279c5.792,4.371 15.375,2.821 21.125,-4.213c5.333,-6.504 10.958,-12.875 13.708,-21.225c1,-2.983 1.917,-6.092 3.291,-9.017c-2.708,7.975 0.709,16.121 -1.083,24.262c-1.792,8.062 -1.875,16.504 -2.708,24.775c-0.709,6.579 -1.625,13.142 -1.917,19.733c-0.083,2.217 0.125,5.504 3.875,5.458c4.833,-0.058 6.292,-1.883 6.333,-6.221c0.083,-3.938 0.791,-7.888 1.458,-11.779c1.542,-8.7 0.542,-17.513 1.292,-26.262c0.291,-3.675 0.583,-7.404 0.875,-11.275c1.5,4.612 5.583,6.738 8.541,9.867c6.375,6.688 14.875,8.3 23.292,10.021c2.042,0.412 4.458,-0.479 6.208,-2.254c1.667,-1.704 3.5,-3.271 5.208,-4.929c1.791,-1.733 1.958,-3.725 0.667,-5.779c-3.625,-5.617 -9.417,-8.404 -15,-11.396c-0.5,-0.271 -1.375,-0.004 -2,0.171c-8.292,2.225 -8.458,2.217 -16.25,-0.363c-0.791,-0.267 -1.708,-0.187 -2.5,-0.458c-1.791,-0.608 -4.5,-0.85 -5.125,-2.1c-2.167,-4.25 -5.083,-8.912 -4.958,-13.342c0.208,-7.363 0,-14.854 1.542,-22.221c1.083,-5.283 1.542,-10.7 3.042,-16.204c1.5,1.367 1.75,2.779 2.25,4.092c3.417,8.996 8.042,17.158 16.292,22.704c9.542,6.392 29.875,8.15 39.458,-6.396c4.917,-7.438 3.708,-15.929 -6.125,-18.271c-4.083,-0.983 -10.5,1.242 -12.583,4.408c-2.042,3.104 -1.667,8.879 0.709,12.1c0.833,1.096 1.708,2.213 3.125,1.538c1.708,-0.804 0.083,-1.879 -0.125,-2.783c-0.875,-4.167 2.917,-9.521 7.292,-9.721c2.208,-0.1 3.834,1.646 3.334,3.825c-0.792,3.592 -2.167,6.912 -5.917,8.804c-5.042,2.542 -10.333,3.963 -15.833,4.642c-2.292,0.283 -4.333,-0.563 -6.542,-1.442c-8.292,-3.354 -12.875,-10.387 -17.416,-17.362c-1.75,-2.679 -4.959,-4.892 -4.333,-8.954c4.375,3.442 9.375,3.821 14.5,3.479c1.583,-0.104 3.125,-0.746 3.583,-2.533c0.542,-2.038 -1.375,-2.229 -2.458,-2.887c-4.083,-2.467 -7.25,-5.617 -9.958,-9.658c-2.416,-3.621 -3.334,-7.808 -5.583,-11.421c-1.375,-2.179 -2.792,-2.579 -4.917,-1.604c-2.583,1.171 -1.167,2.858 -0.375,4.212c3.5,6.292 7.583,12.225 12.333,18.296c-4.542,-1.546 -7.292,-4.275 -9.542,-7.679c-0.666,-0.962 -1.458,-2.317 -3.042,-1.792c-0.917,0.304 -1.208,1.296 -1.083,2.146c1,6.704 -1.625,12.9 -2.791,19.275c-0.792,4.388 0.083,9.188 -2.792,13.875c-3.542,-10.362 -4.458,-20.229 -2.25,-30.308c0.167,-0.854 0.709,-1.579 -0.125,-2.267c-1.167,-0.921 -1.459,0.329 -1.959,0.837c-5.208,5.042 -12.041,7.029 -18.5,9.833c6.792,-5.35 10.042,-13.096 14,-20.258c4.083,-7.392 5.792,-15.804 8.917,-23.466c2.916,4.946 1.291,10.979 5.083,15.687l0,-7.9c1.5,0.7 2.5,1.208 3.542,1.613c10.375,4.096 16.959,13.65 26.625,18.821c4.875,2.592 9.542,6.059 14.917,6.758c7.333,0.95 15,1.596 22.292,0.092c9.25,-1.908 19,-2.604 26.875,-9.225c5.584,-4.7 9.084,-10.467 10.792,-17.309c0.958,-3.891 0.125,-8.021 -1.959,-11.479c-6.167,-10.375 -13.291,-9.037 -22.958,-4.042c-5.5,2.821 -5.042,13.408 0,16.408c3,1.808 5.708,0.542 8.375,-0.754c3.042,-1.475 4.375,-4.304 5.459,-7.284c0.166,-0.5 -0.083,-1.242 -0.75,-1.296c-0.5,-0.037 -1.25,0.15 -1.5,0.504c-1.542,2.221 -4.042,2.604 -6.25,3.35c-3.125,1.038 -4.083,-0.104 -3.667,-3.25c0.583,-3.954 4.042,-4.375 6.542,-5.042c2.5,-0.658 5.541,-0.308 7.625,2.375c5.959,7.796 0.875,21.833 -8.958,23.929c-4.833,1.029 -9.041,3.529 -14.125,4.263c-8.292,1.179 -16.75,2.483 -24.833,1.925c-10.292,-0.713 -19.542,-5.625 -25.625,-14.767c1.25,-0.992 3.834,-0.679 3.834,-2.313c0,-4.15 2.708,-2.1 4.292,-2.067c1.208,0.025 2.458,0.713 3.75,0.4c6.333,-1.517 12.792,-2.692 18.833,-5.133c7.042,-2.846 13.167,-7.033 17.542,-13.587c-1.292,-1.067 -2.625,-0.617 -3.792,-0.408c-7.292,1.333 -14.375,3.267 -22.084,2.938c-6.375,-0.271 -12.583,-1.679 -17.292,-4.896c-5.25,-3.558 -10.333,-8.271 -13.042,-14.638c-3.667,-8.612 -7.833,-17.15 -9.083,-26.467c-1.042,-7.904 -2.708,-15.621 -4.583,-23.325c-1.959,-7.942 -2.167,-16.092 -3.042,-24.213c0.75,0.479 1.125,1.042 1.417,1.642c4.833,9.775 9.541,19.654 15.625,28.687c10.083,15.017 23.708,26.329 40,33.975c12.5,5.866 24.583,12.858 38.209,16.166c11.583,2.813 23.166,5.329 35.166,5.033c5.333,-0.129 10.667,-0.021 16.375,-0.021c-12.917,10.588 -27.042,19.346 -36.083,33.679c-6.583,10.429 -13.542,20.633 -16.042,32.971c-0.5,2.6 -1.375,4.742 -3.167,6.567c-2.708,2.746 -3.167,5.975 -1.958,9.458c0.833,2.367 -0.167,5.429 1.958,7.158c3.083,2.471 11.083,-0.175 13,-3.854c2.542,-4.966 3.834,-10.287 4.625,-15.754c0.5,-3.392 -2.667,-8.529 -5.333,-8.287c-4.375,0.4 -2.916,-2.129 -1.875,-3.846c1.708,-2.758 3.583,-5.333 5.042,-8.325c4.959,-10.367 11.667,-19.546 20.584,-27.696c-0.583,4.867 -3.75,7.883 -5.208,11.708c-2.459,6.534 -3.25,13.383 -4.667,20.142c-2.708,12.937 6.833,25.917 14.125,32.492c5.208,4.738 12,5.346 18.292,6.675c3.459,0.725 7.5,1.534 11.209,-0.35c5,-2.554 11.333,-2.954 14.125,-9.017c0.166,-0.442 0.833,-0.767 1.375,-0.95c3.292,-1.179 4.292,-3.692 4.375,-6.946c0.042,-1.371 0.417,-2.912 1.166,-4.042c1.292,-1.979 1.292,-3.808 0.792,-6.05c-1.708,-7.287 -6.25,-12.941 -11.25,-17.879c-5.5,-5.479 -12.75,-4.638 -18.167,0.779c-0.917,0.904 -1.833,1.804 -2.708,2.721c-3.25,3.304 -3.959,7.471 -1.917,11.617c2.625,5.333 9.958,7.787 14.375,4.754c0.875,-0.633 2.042,-1.325 1.708,-2.662c-0.375,-1.284 -1.666,-0.883 -2.583,-0.942c-2.625,-0.175 -4.958,-1.063 -7.292,-2.233c-0.917,-0.467 -2.083,-1.242 -1.666,-2.175c1.417,-3.042 2.166,-7.2 5.416,-8.275c2.75,-0.9 6.042,0.458 8.292,3.133c6.375,7.579 6.5,12.729 0.417,20.446c-4.25,5.387 -9.875,7.262 -16.458,6.646c-9.5,-0.887 -17,-4.454 -23.542,-12.375c-4.875,-5.9 -3.708,-12.008 -5.208,-17.992c-0.917,-3.688 3.875,-6.012 3.875,-8.633c-0.042,-5.037 3.333,-6.658 5.875,-9.708c7.375,-8.904 14.958,-17.437 25.541,-22.629c5.792,-2.838 11.125,-6.912 17.833,-7.371c6,-0.408 10.625,-4.942 16.959,-5.033c4.416,-0.063 8.458,-3.379 13.25,-4.054c8.084,-1.142 16.542,-0.317 24.292,-3.296c4.458,-1.704 6.333,3.108 10.583,3.221c4.708,0.125 10.042,1.938 14.834,4.325c4.375,2.2 8.208,5.413 13.291,6.633c2.667,0.642 4.792,3.783 7.042,5.913c9.208,8.696 20.208,11.888 32.75,5.021c3.542,-1.938 4.625,-5.313 4.042,-9.125c-0.625,-4.142 -3.916,-1.208 -5.708,-2.067Z" style="fill:#f2c4ce;fill-rule:nonzero;"/><path d="M637.87,376.121c-3.083,-1.058 -6.292,-2.554 -9.792,-1.962c-1.25,0.209 -2.25,-0.142 -2.667,-1.525c-0.917,-3.088 1.708,-7.413 4.875,-8.263c1,-0.258 1.875,-0.804 2.875,-0.137c5.917,4.071 12.083,7.596 19.083,9.9c-4.625,2.671 -9.166,3.771 -14.375,1.987Zm3.292,24.367c-0.5,0.396 -1.083,0.392 -1.542,-0.038c-4.959,-4.517 -11.292,-7.65 -14.583,-13.871c-0.542,-0.95 -0.542,-2.158 -0.792,-3.246c-0.25,-3.071 1.834,-3.567 3.375,-2.121c5.375,5.142 10.708,10.409 13.917,17.333c0.291,0.654 0.25,1.425 -0.375,1.941Zm-44.125,33.354c-1.875,4.7 -4.791,8.292 -8.333,11.167c-3.125,2.538 -5.5,1.3 -6.125,-2.642c-0.083,-0.558 0,-1.142 -0.083,-1.704c-0.25,-1.979 0.75,-5.27 -2.083,-5.208c-2.667,0.058 -5.708,-1.883 -8.458,2.33c-3.459,5.346 -9.875,7.508 -16.542,7.65c-1.125,0.025 -2.375,-0.342 -3.375,0.054c-4.542,1.829 -7.417,0.137 -9,-4.134c-1.417,-3.95 -3.167,-2.162 -5,-0.508c-5.417,4.858 -17.5,5.971 -22.875,1.479c-7.709,-6.479 -14.875,-13.538 -18.75,-23.234c-1.875,-4.737 0.417,-11.791 4.375,-16.129c3.625,-4.021 7.958,-4.154 12.583,-4.075c-0.167,0.592 -0.458,1.159 -0.583,1.75c-0.5,1.792 3,2.604 1.375,4.354c-2.083,2.262 -3.916,4.833 -6.667,6.483c-1,0.609 -3.167,0.021 -2.916,1.784c0.208,1.708 1,4.329 2.167,4.758c5.416,1.983 7.958,7.208 12.417,10.225c6.875,4.646 15.625,4.383 22.166,-0.925c5.167,-4.196 10,-8.708 14.875,-13.233c5.667,-5.288 19.958,-6.909 24.5,-2.267c4.167,4.212 8.792,8.629 6.167,15.358c-1.292,3.35 -1.208,6.129 1.667,8.283c3.042,2.283 5.541,-0.071 8.5,-1.617Zm1.834,14.729c0.875,0.283 2,1.058 1.917,2.525c-0.5,8.579 1.25,17.313 -2.583,25.638c-3.708,7.996 -8.833,14.583 -16,19.775c-2.542,1.862 -5.167,3.758 -7.584,5.8c-7.083,5.971 -15.375,9.538 -24.041,12.408c-2.292,0.754 -4.417,1.729 -6.667,2.821c7.75,-6.408 14.625,-13.788 22.292,-20.204c3.583,-3.013 4.583,-7.029 6.625,-10.671c3.792,-6.829 8.041,-13.433 13.875,-18.616c5.417,-4.788 7.292,-11.354 10.25,-17.396c0.458,-0.925 0.417,-2.558 1.917,-2.079Zm-61,-103.821c1.042,2.087 3.125,4.925 1.167,6.45c-2.625,2.038 -3.917,-1.7 -5.459,-3.179c-4.792,-4.634 -7.333,-10.608 -9.375,-16.85c-0.833,-2.538 -2.167,-4.921 -3.416,-7.3c-0.542,-1.108 -1.375,-2.542 -2.834,-2.054c-1.625,0.55 -0.125,1.946 -0.25,2.95c-0.083,0.417 0,0.85 0.042,1.383c-0.167,1.425 0.708,3.492 -0.5,4.379c-1.542,1.15 -3.25,-0.495 -4.5,-1.421c-2.958,-2.229 -7,-3.129 -8.75,-6.913c-0.417,-0.946 -1.917,-1.691 -0.667,-2.858c1.083,-0.967 1.708,-2.562 3.834,-2.009c5.333,1.392 10.708,2.412 16.292,1.192c1.166,-0.258 2.458,0.275 2.625,1.591c1.333,9.475 7.667,16.521 11.791,24.638Zm-25.833,-36.738c2.416,-1.704 4.375,-4.833 8.125,-2.925c0.5,0.254 0.917,0.879 1.375,0.921c4.5,0.383 5.917,2.77 4.792,7c-2.5,-0.316 -5.042,-0.654 -7.5,0.392c-0.375,0.158 -0.834,0.217 -1.25,0.179c-2.583,-0.2 -5.167,-0.633 -6.833,-2.858c-0.958,-1.304 0.458,-2.129 1.292,-2.708Zm138.458,-25.754c-1.083,0.733 -1.792,-0.392 -2.583,-0.908c-5.459,-3.625 -8.792,-8.875 -11.375,-14.7c-1.208,-2.696 -2.334,-5.429 -3.292,-8.212c-0.375,-1.042 -0.834,-2.579 1.417,-2.788c4.083,1.933 7.917,4.396 10.084,8.508c2.583,4.867 4.542,10.033 5.916,15.408c0.25,0.975 0.834,2 -0.166,2.692Zm69.75,65.083c-0.583,-3.521 -4.083,-7.087 -6.708,-10.233c-3.417,-4.121 -8.25,-5.687 -13.708,-6.142c-3.834,-0.317 -6.833,1.441 -10.084,2.608c-2.042,0.733 -4.542,-0.067 -6.167,2.317c-5.792,8.666 -8.208,18.366 0.5,26.871c3.125,3.046 6.542,3.2 10.667,1.733c-4.459,-1.33 -4.792,-5.971 -7.584,-8.683c-4.708,-4.638 -1.708,-13.558 4.25,-15.929c9,-3.575 22.25,5.541 21.667,15.129c-0.459,7.404 0.291,15.558 -6.125,21.65c-1.75,1.634 -3.916,2.642 -5.375,4.625c-2.875,3.883 -7.209,5.554 -11.792,5.921c-2.375,0.184 -3.916,0.684 -5.375,2.621c-2.208,3.021 -7.917,4.212 -11.167,2.496c-2.416,-1.275 -5.042,-1.775 -7.625,-2.546c-5.625,-1.696 -11.125,-3.621 -16.334,-7.725c2.958,-1.392 5.5,-2.533 8,-3.796c3.375,-1.733 6.875,-3.383 9.25,-6.584c0.542,-0.75 1.5,-1.508 0.5,-2.587c-0.75,-0.795 -1.458,-0.225 -2.292,-0.096c-5.167,0.812 -10.583,1.254 -15.083,-1.558c-4.875,-3.071 -9.792,-5.921 -15.25,-7.792c-5.292,-1.829 -9.458,-0.087 -12.125,4.829c-0.917,1.771 -0.834,4.095 -2.416,5.333c-14.75,-15.317 -32.125,-25.892 -51.75,-32.783c8.292,2.479 16.875,3.129 25.417,3.554c8.833,0.442 17.375,-1.145 25.667,-4.787c12,-5.259 25.083,-7.875 35.208,-17.279c4.875,-4.554 7.417,-10.038 9,-16.009c0.542,-2.096 1.167,-3.354 2.667,-4.679c2.708,-2.363 4.583,-5.254 4.042,-9.458c-2.708,1.433 -4.833,4.317 -8.167,2.48c-0.334,-0.8 0.25,-1.317 0.583,-1.917c3.375,-5.958 5.833,-12.166 6.458,-19.146c0.542,-6.358 -3,-10.704 -6.625,-14.941c-2.334,-2.713 -5.417,-0.492 -8.042,0.067c-2.208,0.475 -1.375,2.837 -1.417,4.404c-0.042,3.779 -0.291,7.566 0.125,11.425c-1.875,-3.591 -3.625,-7.212 -5,-10.979c-2.5,-6.842 -7.583,-10.275 -14.417,-11.725c-2.375,-0.496 -4.916,-0.342 -6.417,0.929c-1.458,1.254 0.167,3.646 0.667,5.496c2.25,8.4 4.667,16.741 10.25,23.921c-3.25,-3.858 -7.333,-5.762 -11.875,-7.25c-4.708,-1.534 -8.75,0.271 -10,5.146c-0.333,1.229 -0.375,2.575 -0.917,3.692c-1,2.113 -0.917,4.212 1.042,5.242c2.583,1.338 2.917,-1.437 3.667,-2.883c2.125,-3.834 7.584,-5.838 10.75,-3.604c8.292,5.875 15.542,12.646 16.958,23.504c0.375,3.029 1.958,2.517 3.875,1.621c2.125,-0.996 3.208,-3.509 5.583,-4.167c0.417,2.746 -0.625,4.754 -2.292,6.7c-2.958,3.463 -5.75,7.071 -8.5,10.717c-2.083,2.746 -3.084,1.933 -4.084,-0.8c-1.833,-4.929 -1.625,-10.033 -1.708,-15.145c-0.083,-8.23 -3.292,-13.988 -8.958,-15.409c-4.542,-1.141 -9.084,-0.866 -13.75,0.459c-3.125,0.896 -2.542,2.158 -1.833,4.204c0.791,2.342 2.125,2.737 4.25,1.587c1.208,-0.662 2.625,-0.983 3.916,-1.521c3.083,-1.258 10.709,2.246 11.417,5.43c0.958,4.312 1.583,8.708 0.542,13.092c-0.667,2.779 -0.625,5.396 1.042,7.771c2.167,3.192 0.792,4.679 -2.333,5.891c-2.334,0.917 -5.417,0.342 -7.084,2.383c-1.75,2.108 -3.916,2.429 -6.208,3.171c-2.291,0.738 -5.416,-0.421 -6.667,1.138c-3.5,4.308 -8.666,2.9 -12.875,4.596c-3.334,1.341 -7.292,-0.35 -10.667,-0.159c-6.708,0.379 -12.833,-1.708 -19.167,-2.608c-3.083,-0.433 -5.917,-1.591 -9.125,-0.592c-2.333,0.717 -4.791,-0.104 -7.792,-1.167c6.709,-1.646 11.667,-5.125 16.959,-8.029c9.042,-5.004 13.875,-14.462 12.458,-24.863c-0.167,-1.229 -0.458,-2.104 -1.333,-2.933c-4.459,-4.171 -8.625,-8.267 -15.875,-6.72c-4.708,1.004 -10.084,5.75 -9.458,10.662c0.334,2.579 0.209,5.708 3.167,7.346c1.042,-1.45 0.458,-2.971 0.833,-4.317c0.583,-2.295 0.583,-4.95 2.75,-6.521c3.834,-2.817 10.583,-1.604 13.75,2.338c1.25,1.579 -1.208,10.95 -3.042,12.754c-1.834,1.809 -3.875,3.342 -6.125,4.188c-1.875,0.68 1.5,3.467 -1.625,2.95c-5.125,-0.854 -9.5,2.117 -13.792,3.8c-5.917,2.33 -10.917,2.942 -16.833,0.438c-3.75,-1.583 -5.667,-3.242 -5.167,-7.405c0.583,-4.471 -0.042,-8.537 -4.708,-10.837c-3.416,-1.692 -6.041,-4.775 -11,-2.621c-2.166,0.954 -5,0.846 -6.667,3.108c-2.791,3.9 -5.416,7.929 -8.125,11.896c-0.625,0.871 -0.792,1.954 -2.5,1.546c-6.084,-1.45 -12.334,-1.509 -18.542,-1.742c-1.75,-0.063 -4.333,-0.392 -4.167,2.271c0.125,2.387 0.583,5.292 4.333,5.146c3.125,-0.121 6.25,-0.037 9.417,0.071c4.167,0.145 7.75,0.512 10.166,5.225c2.5,4.904 7.667,8.725 12.917,8.804c5.792,0.083 8.125,2.675 10.084,7.046c0.667,1.554 1.375,3.146 2.375,4.513c3.958,5.517 8.333,10.471 16.042,10.275c2.75,-0.067 3.25,-1.208 3.083,-3.733c-0.417,-6.183 -3.542,-11.234 -6.167,-16.562c-1.75,-3.542 -4.667,-6.567 -5.917,-11.292c5.25,2.396 8.792,5.766 12.875,8.183c10.125,5.929 18.667,13.258 22.875,24.666c0.583,1.592 1.75,3.63 1,4.75c-3.542,5.417 -5.708,11.446 -8.375,17.25c-0.667,1.412 -1.625,1.85 -3.084,1.2c-0.666,-0.291 -1.542,-0.233 -1.958,0.433c-0.583,0.908 0.167,1.587 0.709,2.225c1.208,1.425 2.25,1.658 4.333,0.892c5,-1.821 6.75,-6.225 9.416,-10.033c-1,6.708 -4.708,11.708 -10.083,15.392c-1.417,0.975 -3.25,2.367 -5.5,1.116c-6.833,-3.729 -7.125,-6.813 -0.875,-11.454c1.542,-1.134 1,-1.85 -0.042,-2.588c-3.042,-2.171 -9.083,-0.141 -10.458,3.442c-1.5,4 1.5,12.029 5.625,14.912c6.167,4.367 17.75,0.567 21.75,-7.138c3.667,-7.108 4.5,-14.333 2.583,-22.525c-0.083,-0.325 0.208,-0.837 0.458,-1.116c1.291,-1.359 0.333,-2.688 0,-4c-1.958,-8.175 -5.625,-15.367 -12.834,-20.992c1.167,-0.096 1.542,-0.125 1.959,-0.162c1.708,-0.167 2.833,1.221 4.25,1.787c15.708,6.2 23,18.463 24.958,34.637c0.75,6.442 1.333,12.888 1.75,19.371c0.458,6.741 0,13.112 -3.042,19.096c-1.167,-0.046 -1.333,-0.883 -1.791,-1.317c-3.542,-3.1 -4.75,-8.4 -10.209,-9.775c-3.042,-0.771 -5.958,-0.325 -8.833,-0.117c-8.167,0.587 -15.958,2.829 -22.375,8.187c-5.042,4.225 -9.542,8.617 -16.667,9.796c-6.041,0.996 -11.583,0.35 -15.75,-4.413c-0.958,-1.1 -0.625,-1.862 -0.125,-3.021c1.291,-2.983 2.5,-6.029 3.458,-9.142c1.167,-3.904 -2.834,-11.179 -6.25,-11.708c-6.333,-0.975 -15.334,3.304 -18.708,8.879c-4.917,8.183 -4.333,18.266 1.542,25.825c2.875,3.692 5.416,7.7 8.666,11.004c6.833,6.912 14.125,13.2 25,11.942c3.042,-0.35 5.792,-1.425 8.5,-2.596c1.75,-0.754 3.5,-0.987 4.792,0.354c5.375,5.692 11.208,3.442 17.292,1.546c3.5,-1.1 6.208,-4.071 10.166,-4.212c-2.334,1.771 -3.834,4.1 -5.375,6.441c-6.833,10.533 -10.625,22.375 -14.958,34.042c-2.083,5.667 -3.334,12.037 -9.166,15.741c-1.334,0.863 -2.208,2.554 -3.167,3.938c-0.709,0.971 -2.459,1.987 -1.417,3.175c1.208,1.321 3.208,0.992 4.75,0.142c0.875,-0.463 1.625,-1.213 2.25,-1.975c5.667,-6.95 10.208,-14.675 13.583,-22.9c4.083,-10.025 6.459,-20.721 11.833,-30.258c0.417,-0.717 0.625,-1.8 1.625,-1.758c1.083,0.037 1.042,1.092 1.208,1.937c0.417,2.383 0.75,5.592 4,4.612c3.25,-0.975 0.625,-3.891 0.667,-5.937c0.042,-0.379 -0.292,-0.792 -0.5,-1.15c-1.667,-2.579 -1,-5.192 -0.083,-7.783c0.417,-1.225 1,-2.583 2.542,-2.517c1.75,0.079 0.958,1.758 1.25,2.7c2.75,8.604 4.958,9.4 13,4.588c0.291,-0.179 0.666,-0.225 1.125,-0.358c-1.917,9.117 -6.5,12.496 -15.25,11.354c-1.125,-0.146 -2.375,-0.492 -3,0.804c-0.583,1.296 0.125,2.271 0.958,3.413c1.542,2.179 3.416,1.392 5.541,1.071c-1.833,1.383 -3.667,2.204 -4.708,4.308c-5.583,11.225 -10.833,22.508 -21.041,30.888c-6.625,5.467 -13.583,9.433 -21.75,11.529c-3.208,0.817 -4.75,-0.784 -4.833,-3.638c-0.125,-4.258 -1.417,-9.042 3.75,-11.708c0.292,-0.167 0.5,-0.675 0.667,-1.063c0.542,-1.371 2.25,-2.896 0.792,-4.192c-1.208,-1.096 -3,-0.05 -4.084,1.017c-2.791,2.633 -5.625,5.267 -7.375,8.713c-4.584,8.858 0.958,18.533 10.833,19.125c2.167,0.125 4.25,0.104 6.333,0.846c6.083,2.179 12.166,1.408 17.75,-1.254c12.333,-5.892 24.875,-11.625 34.708,-21.563c4.583,-4.637 7.958,-10.15 10.084,-16.342c2.208,-6.408 2.375,-13.242 3.958,-20.417c1.917,2.317 3.416,4.387 5.208,6.142c3,2.946 5.833,6.35 10.583,6.429c6.041,0.096 12,-0.096 18.083,0.467c7.041,0.658 14.417,-0.254 21.458,-1.596c5.875,-1.121 11.75,-2.975 15.333,-8.896c4.208,-6.95 9,-13.35 11.583,-21.396c2.292,-7.138 2.292,-13.725 -1.125,-19.779c-3.292,-5.792 -8.167,-9.971 -16,-9.804c-4.125,0.087 -5.792,3.133 -8.792,4.425c-4.125,1.779 -5.875,6.759 -4.459,11.834c1.417,5.054 4.083,6.804 9.542,6.225c1.5,-0.159 3.625,-0.213 3.834,-1.796c0.208,-1.513 -1.917,-1.7 -3.208,-2.154c-2.5,-0.871 -5.042,-1.754 -4.208,-5.225c0.625,-2.634 5.833,-5.708 8.583,-5.179c4.959,0.95 9.125,6.733 8.833,11.842c-0.458,7.721 -5.541,12.562 -10.917,16.929c-2.125,1.746 -5.333,2.729 -8.333,2.621c-11.917,-0.408 -18.958,-8.808 -24.5,-17.341c-6.333,-9.684 -14.25,-16.05 -24.875,-19.517c-1.75,-0.575 -5,-1.662 -5.541,0.367c-0.625,2.329 2.125,3.954 4.458,4.862c0.375,0.15 0.958,-0.054 1.25,0.167c3.167,2.363 7.625,2.462 10.166,5.75c5.292,6.808 10.084,14.038 16.25,20.146c5.417,5.375 10.292,11.663 18.959,11.617c3.416,-0.017 6.583,0.817 10.083,1.337c-0.833,1.429 -2.208,1.613 -3.25,2.283c-3.417,2.204 -7.5,2.142 -11.167,3.396c-8.167,2.792 -16.708,0.783 -22,-5.921c-0.75,-0.954 -1.583,-1.837 -2.833,-1.237c-1.334,0.621 -1.083,1.921 -0.75,2.996c0.583,1.812 1.292,3.575 2,5.546c-12.458,-2.079 -12.333,-2.229 -19.708,-7.967c-3.5,-2.713 -3.833,-6.829 -5.625,-10.271c-3.792,-7.383 -3.708,-15.137 -1.917,-23.166c1.042,-4.854 2.5,-9.542 3.875,-14.284c0.417,-1.358 0.834,-3.754 -1.542,-4.275c-2.25,-0.495 -3.375,1.117 -3.833,3.092c-0.917,3.863 -1.834,7.721 -2.583,11.617c-1.292,6.963 -2.083,7.713 -10.042,8.633c2.833,-2.55 3.416,-5.762 4.333,-8.833c4.042,-13.163 6.667,-26.35 5.709,-40.379c-0.75,-10.471 -3.584,-19.583 -9.792,-27.846c-0.958,-1.266 -1.833,-2.704 -2,-4.412c4.5,0.933 6.584,4.654 9.625,7.1c7.125,5.763 14.375,11.413 20.667,18.192c0.958,1.063 1.125,2.05 1.042,3.434c-0.333,5.608 0.167,10.516 5.583,14.421c6.625,4.788 12.5,10.592 15.459,18.712c0.75,2.071 2.791,1.996 4,0.2c0.917,-1.375 1.25,-3.113 1.333,-4.875c0.167,-5.6 -1.75,-10.767 -3.083,-16.254c4.833,2.4 9.584,4.85 14.417,7.121c2.042,0.95 4.125,2.371 6.416,2.046c7.75,-1.104 15.708,0.229 23.417,-2.558c10.583,-3.812 21.5,-5.446 28.917,-16.192c7.625,-10.991 7.125,-22.221 5.208,-33.812Z" style="fill:#f2c4ce;fill-rule:nonzero;"/><path d="M328.87,237.733c1.875,-4.246 3,-9.204 8.417,-12.341c-2.583,4.821 -1.833,9.52 -2.792,13.804c-1.333,6.029 1.292,11.708 0.209,17.542c-0.167,1.096 -0.25,2.229 -0.583,3.296c-0.208,0.709 -0.208,1.888 -1.5,1.575c-0.875,-0.213 -1.542,-0.692 -1.375,-1.784c0.417,-3.125 -2.167,-5.741 -2.042,-8.425c0.166,-4.621 -2.25,-9.358 -0.334,-13.667Zm-30,38.321c-1.958,1.013 -4.083,1.663 -6.25,2.283c-3.125,0.896 -3.417,-0.291 -3.417,-2.645c0.583,-2.517 1.375,-4.883 2.625,-7.15c2.75,-5.008 2.667,-5.042 6.125,-0.9c0.375,0.412 0.791,0.779 1.25,1.067c4.25,2.713 4.208,4.971 -0.333,7.346Zm26.333,-18.796c-3.958,-2.042 -8.417,-3.7 -12.625,-2.616c-4.875,1.271 -9.709,2.217 -14.708,2.837c-2.708,0.334 -5.917,0.796 -7.5,3.417c-2.167,3.595 -4.125,7.387 -5.625,11.3c-1.917,4.946 1.958,10.15 7.333,9.975c6,-0.196 13.25,-3.825 14.875,-9.354c1,-3.375 2.75,-6.575 3.125,-10.125c0.375,-3.942 2.792,-4.775 5.917,-4.008c3.792,0.933 7.458,2.3 11.125,3.658c3.5,1.292 2.875,5.138 4.458,7.638c0.583,0.942 0.792,2.467 2.083,2.471c1.375,0.009 1.834,-1.358 2.5,-2.513c2.875,-5.104 2.083,-10.704 2,-16.066c-0.042,-3.25 1.917,-6.187 0.917,-9.408c-2.334,-7.375 -1.667,-14.263 3.125,-20.567c0.458,-0.625 1.333,-1.367 0.666,-2.196c-0.583,-0.692 -1.625,-0.579 -2.416,-0.233c-4.083,1.838 -9.625,1.283 -11.667,6.604c-1.583,4.192 -5.291,7.671 -3.875,13.775c-1.458,-2.325 -2.334,-3.671 -4.125,-3.788c3,-4.025 -1.334,-5.658 -2.792,-8.146c-0.917,-1.6 -2.833,-1.266 -4.208,-0.492c-1.75,0.975 -0.917,2.504 -0.166,3.7c0.958,1.562 2.166,2.971 3.208,4.488c4.667,6.712 9.375,13.388 12.25,21.229c-1.792,0.388 -2.667,-0.962 -3.875,-1.579Z" style="fill:#f2c4ce;fill-rule:nonzero;"/><path d="M291.704,530.483c4.75,3.192 9.583,6.508 11.666,12.333c0.667,1.934 2.125,2.633 4.042,1.9c1.917,-0.725 1.292,-2.237 0.917,-3.596c-1.875,-6.971 -6.917,-11.612 -12.292,-15.737c-4.333,-3.35 -9.875,-4.729 -15.208,-3.742c-10.5,1.963 -16.791,11.462 -15.333,21.996c1,6.904 10.333,12.325 16.625,9.367c4.375,-2.054 6.792,-5.992 7.625,-10.654c0.417,-2.442 -1.042,-4.692 -3.416,-5.271c-2.208,-0.542 -4.792,-1.921 -6.959,0.862c-1.583,2.013 0.25,3.771 -0.583,6.067c2.208,-0.933 3.667,-1.767 5.25,-2.175c1.083,-0.275 2.042,0.279 1.417,1.733c-0.667,1.608 -8,4.712 -9.542,4.05c-2.958,-1.233 -6.083,-9.817 -4.625,-12.638c3.208,-6.325 13.917,-8.887 20.417,-4.496Z" style="fill:#f2c4ce;fill-rule:nonzero;"/><path d="M291.12,121.05c2.416,0.908 4.875,1.466 7.375,1.991c1.583,0.334 3.5,0.267 4.042,2.471c0.208,0.7 0.958,1.288 1.667,1.104c4.291,-1.092 6.541,2.184 9.375,4.275c6.041,4.471 10.292,10.742 15.875,15.667c4.542,4.021 7.25,9.3 10.667,14.083c1.083,1.492 1.833,2.916 -0.167,4.367c-1.417,1.029 -0.709,2.159 0.458,2.592c2.5,0.921 2.75,3.021 3.208,5.112c1.291,6.167 3.458,12.133 2.5,18.713c-0.709,4.837 -1.542,6.35 -6.375,6.621c-5.958,0.329 -10.666,-2.675 -15.125,-6.054c-2.208,-1.696 -3.916,-4.188 -6.292,-5.6c-3.875,-2.321 -4.75,-6.438 -4.833,-9.817c-0.167,-5.667 -2.125,-10.558 -3.917,-15.662c-2.208,-6.267 -4.125,-12.617 -6.292,-18.892c-3.291,-9.596 -10.166,-15.929 -19.708,-20.296c2.917,-1.958 5.333,-1.505 7.542,-0.675Zm60.125,77.683c3.042,-0.408 8.584,2.679 8.625,4.329c0.083,1.85 -5.084,6.691 -7.208,6.537c-3.417,-0.246 -2.625,-3.437 -3.875,-5.537c1.917,-1.367 -1,-4.858 2.458,-5.329Zm1.917,-72.516c-1.75,-2.246 -4.625,-3.729 -4.875,-7.067c-0.042,-0.7 -0.25,-1.9 -1.458,-1.662c-1.042,0.212 -0.917,1.295 -0.917,2.091c-0.083,3.825 3.25,5.729 5.083,8.883c-6.875,2.729 -13.209,-1.538 -13.042,-8.679c0.042,-2.087 0.583,-4.183 1.042,-6.241c0.458,-2.029 1.667,-3.013 3.958,-2.984c4.459,0.054 9.084,1.038 13.25,-1.679c0.5,-0.338 0.958,-0.229 1.5,0.146c5.416,3.671 5.167,14.587 -0.375,17.971c-1.708,1.021 -3.167,0.508 -4.167,-0.779Zm8.75,62.483c2.958,-11.65 5.792,-23.379 12.375,-33.692c1.292,-2.016 2.542,-4.196 4.292,-5.766c4.833,-4.379 7.708,-10.375 12.333,-14.904c1.042,-0.996 2,-1.546 3.334,-1.496c1.375,0.05 2.458,-0.471 3.5,-1.312c5.5,-4.5 12.375,-6.346 18.875,-7.775c6,-1.308 12.25,-2.662 18.667,-2.179c2.916,0.221 5.541,0.837 8.292,2.163c-4.125,1.458 -8.5,0.762 -12.583,2.625c-2.208,0.984 -4,2.292 -5.958,3.488c-8.75,5.421 -15.167,12.892 -20.667,21.617c-3.333,5.238 -4.958,11.009 -7.792,16.317c-0.125,0.25 -0.166,0.625 -0.375,0.762c-5.667,3.925 -5.25,10.617 -7.417,16.142c-1.708,4.263 -4.875,7.704 -8.5,10.316c-2.292,1.638 -3.708,4.542 -7.209,4.755c-5.75,0.346 -11.166,0.483 -14.5,-5.675c2.25,-0.904 2.708,-3.046 3.334,-5.383Zm5.875,-72.121c-0.417,-3.463 2.125,-4.909 4.625,-4.8c2.458,0.104 1.833,2.846 1.917,4.763c0.333,6.313 -3.416,8.804 -8.958,9.662c2.042,-2.854 2.834,-6.087 2.417,-9.625Zm5.75,143.416c1.292,-5.266 3.125,-10.183 6.292,-14.75c-1.042,3.912 -0.291,8.033 -1.666,11.991c-1,2.834 0.125,5.771 1.625,8.421c0.542,0.892 1.375,2.042 0.042,2.996c-1.042,0.721 -2.083,0.079 -2.75,-0.517c-2.375,-2.133 -4.625,-3.975 -3.542,-8.142Zm43.75,-49.975c1,-3.692 2.208,-7.337 4.042,-10.704c3,-5.5 2.208,-11.121 0.208,-17.163c5.292,3.204 6.959,9.342 4.959,15.98c-1.625,5.391 -2.583,11.008 -5.833,15.808c-0.709,1.058 0.042,2.204 0.042,3.304c-0.042,1.396 -1.625,1.417 -2.334,2.296c-0.25,0.359 -0.75,0.054 -0.875,-0.433c-0.291,-1 -0.375,-1.888 0.75,-2.571c0.75,-0.471 2.042,-1.392 0.208,-2.033c-2.791,-0.987 -1.667,-2.75 -1.167,-4.484Zm107.084,60.142c-3.042,1.771 -4.792,4.946 -7.833,6.746c-2.583,1.533 -5.667,-0.792 -8.084,1.55c3.334,-8.729 7.417,-12.75 14.208,-12.175c1.042,0.087 2.625,-0.563 2.917,0.875c0.166,0.921 -0.417,2.562 -1.208,3.004Zm-51.25,-25.35c0.583,2.083 2.125,4.179 0.042,6.358c-1.75,1.85 -3.875,2.637 -6.541,2.833c-0.125,-2.158 -0.542,-4.275 -0.334,-6.333c0.25,-2.304 1.959,-3.708 4.125,-4.321c1.25,-0.35 2.375,0.204 2.708,1.463Zm-46.583,28.517c4.375,0.166 0.291,4.475 2.5,5.596c0,2.12 -4.375,7.029 -5.875,6.408c-2,-0.838 -5.583,0.25 -5.667,-3.65c-0.083,-3.654 4.875,-8.513 9.042,-8.354Zm-161.542,-114.246c7.875,-2.975 14.375,-6.287 9.75,-17.583c-0.958,-2.359 -2.125,-3.3 -4.416,-3.817c-2.5,-0.575 -4.459,0.063 -6.25,1.737c-0.5,0.496 -1.042,1.117 -0.75,1.854c0.333,0.82 1.083,0.491 1.792,0.537c3.458,0.229 7.125,3.525 7.083,6.146c-0.083,2.758 -3.792,6.229 -7.041,6.483c-4.333,0.338 -8.292,-0.358 -10.458,-4.758c-2.208,-4.416 -2.334,-9.125 -1.542,-13.854c0.875,-5.259 5.333,-7.425 9.292,-9.704c3.5,-2.004 7.541,-5.046 11,-4.617c5.042,0.629 10.083,3.45 14.208,6.937c3.875,3.259 6.084,7.925 9.084,11.896c1.167,1.517 1.791,3.091 2.208,4.983c0.625,3.188 1.75,6.288 2.75,9.396c1.042,3.192 0.834,8.279 2.583,9.354c4.084,2.509 -0.083,5.838 2.042,7.954c0.083,0.096 0.125,0.254 0.166,0.383c1.542,3.796 2.917,7.684 4.667,11.371c5.208,10.863 17,20.413 30.792,17.784c2.416,-0.467 2.708,0.662 3.125,2.696c0.709,3.817 0.792,8.329 4.875,10.279c2.542,1.217 2.5,2.896 2.833,5.058c0.375,2.542 -2.125,4.862 -1.166,6.742c1.375,2.666 1.083,5.183 1.083,7.812c-0.041,5.508 -0.125,11.15 0.375,16.491c1.333,13.775 -0.083,27.459 0.042,41.175c0.042,7.483 -1.459,14.975 -2.25,22.467c-1.792,-8.379 -4.542,-16.412 -6.917,-24.567c-1.375,-4.887 -3.708,-9.475 -4.542,-14.558c-0.291,-1.55 -1.333,-3.116 -3.334,-2.346c-2.208,0.842 -0.542,2.5 -0.291,3.634c1.083,5.241 2.416,10.625 4.542,15.362c4.375,9.767 5.459,20.246 7.708,30.379c2.459,11.108 3.375,22.667 3,34.221c-0.167,5.379 -0.625,10.8 0.166,16.192c0.167,1.021 -0.666,2.6 1.125,2.65c1.375,0.034 2.25,-1.217 2.458,-2.525c0.25,-1.25 0.125,-2.562 0.209,-3.838c0.417,-4.937 -0.25,-10.316 1.5,-14.708c3.167,-7.808 4.917,-15.867 6.542,-23.983c2.25,-11.1 5.667,-21.854 9.541,-32.421c3.583,-9.825 8.667,-19.104 12.458,-28.858c0.75,-1.817 1.334,-3.634 2.042,-5.409c7.584,-3.517 15.167,-4.858 23,-4.146c2.834,2.217 7.833,-0.116 10.458,3.309c-2.583,1.096 -3.708,2.879 -3.708,5.408c0,0.996 -0.125,1.9 -0.917,2.721c-4.667,4.813 -4.208,10.354 -1.458,15.675c1.542,3.042 4.916,5.387 8.292,4.896c5.875,-0.854 11.083,-8.446 10.917,-14.571c-0.125,-4.867 -1.875,-9.425 -3.042,-14.067c-0.25,-1.046 -1.125,-3.229 -2.834,-2.604c-1.917,0.708 -3.208,0.054 -4.375,-0.863c0.083,-0.792 -0.25,-1.587 -1.125,-2.009c-10.833,-5.104 -23.667,-4.008 -33.375,2.638c0.25,-0.375 0.458,-0.758 0.709,-1.121c1.166,-1.625 2.875,-2.141 4.042,-3.575c6.375,-7.983 13.667,-15.142 20.75,-22.513c2.958,-3.116 7.125,-5.675 7.75,-10.358c0.625,-4.75 2.625,-3.963 6.042,-2.767c5.291,1.838 11.083,4.504 16.333,3.338c8.708,-1.937 15.417,1.767 22.458,5.212c2.458,1.2 4.375,8.542 2.708,9.171c-4.959,1.892 -6,6.825 -8.667,10.479c-2.708,3.75 0,7.2 1.708,10.212c1.75,2.992 4.792,1.55 7.25,0.5c7.542,-3.196 9.5,-6.229 9,-13.425c-0.291,-4.067 -1,-8.187 -3.042,-11.534c-1.834,-2.933 -0.583,-7.204 -4.459,-9.104c-5.583,-2.717 -10.875,-6.329 -17.25,-6.592c-7.667,-0.317 -15.334,-0.321 -22.958,-2.371c2.208,-1.159 4.291,-2.329 6.458,-3.342c13.958,-6.533 28.708,-10.475 43.792,-13.063c3.083,-0.534 6.333,-1.758 9.792,-1.175c10.875,1.85 20.709,6.471 30.542,11.125c2.291,1.083 2.625,2.975 2.667,5.263c0.083,4.675 -2.292,8.658 -4.792,11.854c-4.959,6.28 -5.125,13.013 -4.375,20.238c0.167,1.392 0.458,2.363 1.958,2.929c1.625,0.629 2.459,-0.338 3.25,-1.288c5.667,-6.887 9.792,-14.625 12.417,-23.141c0.167,-0.529 0.083,-1.275 0.75,-1.325c0.458,-0.034 1.125,0.304 1.375,0.692c0.583,0.958 1.167,2.004 1.334,3.079c1.458,7.779 4.458,15.329 0,23.462c-1.542,2.812 -2.75,5.558 -5.584,5.979c-4.25,0.634 -8.458,1.671 -12.25,3.271c-8.917,3.762 -17.917,7.85 -19.333,19.413c-0.375,2.879 0.25,3.863 3.125,3.983c3.75,0.15 7.333,-0.654 10.958,-1.325c6.417,-1.188 12.542,-3.163 15.708,-9.491c1.625,-3.208 3.625,-6.088 5.625,-9.004c2.125,-3.129 4.625,-6.042 6.5,-9.321c1.625,-2.829 -0.792,-6.988 2.75,-9.387c0.167,-0.104 0.167,-0.558 0.083,-0.825c-1.125,-6.755 -1.333,-13.75 -5.042,-19.85c-1.167,-1.879 -2.25,-3.771 -2.542,-5.85c7.5,7.454 12.333,17.154 20.208,24.463c2.208,2.075 4,2.233 6.417,1.225c2.708,5.021 4,10.454 4.416,16.071c0.709,10.15 -3.792,13.1 -11.417,9.5c-1.792,-0.841 -3.625,-0.75 -4.583,1.562c-0.875,2.15 0.125,3.646 1.708,4.78c4.875,3.55 14.375,0.45 16.5,-5.229c2.083,-5.708 2.916,-11.517 1.667,-17.75c4.583,5.167 9.458,9.775 14.291,14.404c1.417,1.337 3.542,2.295 3.125,5.125c-0.708,4.833 1.917,7.841 6,10.191c3.167,1.825 5.875,4.179 6.292,8.487c0.208,1.996 0.083,6.109 3.125,5.517c3.167,-0.613 0.708,-3.917 0.417,-5.833c-0.834,-5.246 -0.875,-10.888 -5.459,-14.788c-2.458,-2.116 -3.958,-4.787 -4.708,-7.929c-0.833,-3.504 -3.167,-6.758 -5.916,-7.983c-6.292,-2.846 -9,-9.833 -15.625,-11.983c16.583,-2.808 17,-3.138 25.791,-11.679c3.125,-3.046 3.834,-6.558 4.208,-10.642c0.333,-3.445 -2.125,-6.279 -1.5,-9.508c0.833,-4.479 -1.75,-6.796 -4.875,-8.987c-1.375,-0.979 -2.875,-1.871 -4.083,-3.05c-7.208,-7.171 -19.5,-3.434 -23.875,3.608c-2.292,3.696 -1.958,11.429 0.625,14.062c1.375,1.383 9.708,1.787 11.708,0.417c1.334,-0.925 3.5,-1.95 2.625,-3.825c-0.708,-1.604 -2.542,-0.083 -3.833,0.112c-1.125,0.171 -2.208,0.667 -3.334,0.717c-2.667,0.112 -4.292,-0.875 -4.208,-3.971c0.125,-3.271 3.542,-7.221 7.125,-7.866c1.5,-0.271 9.584,4.141 9.667,5.521c0.042,1.925 1.167,2.834 2.625,3.479c1.583,0.696 2.5,1.984 2.958,3.45c2.542,8.104 -3.083,19.596 -11,22.446c-0.833,0.316 -1.875,1.021 -2.833,0.408c-5.208,-3.254 -10.875,0.525 -16.167,-1.179c0.083,-1.579 -0.709,-2.525 -1.958,-3.492c-5.459,-4.179 -10.875,-8.196 -15.459,-13.704c-7,-8.371 -14.708,-16.588 -25.583,-20.538c-1.458,-0.533 -2.583,-1.945 -4.625,-3.525c3.875,0.079 6.792,-0.342 9.75,0.492c3.375,0.962 6.625,0.25 9.292,-1.842c3.5,-2.737 7.375,-4.771 11.041,-7.217c1.917,-1.279 3.542,-2.754 4.833,-4.704c3.542,-5.287 1.667,-12.283 5.625,-17.429c0.417,-0.558 0.25,-1.667 0.209,-2.504c-0.291,-4.275 1.291,-7.867 3.625,-11.342c2.542,-3.842 2.083,-8.191 0.958,-12.287c-0.833,-2.988 -2.458,-6.329 -6.292,-5.737c-3,0.462 -5.833,2.112 -8.666,3.371c-1.083,0.475 -2.083,1.766 -1.708,2.729c1.708,4.246 -1.5,9.491 2.708,13.183c0.042,0.05 -0.209,0.454 -0.291,0.692c-5.292,-2.254 -6.417,-4.425 -5.125,-10.787c0.834,-4.142 -2.833,-3.271 -4.583,-4c-2,-0.854 -2.375,1.229 -2.542,2.867c-0.542,4.996 1.042,9.462 4.458,12.858c2.667,2.613 4,5.463 3.708,8.896c-0.208,2.604 0.583,4.288 2.583,5.809c2,1.525 2.625,3.079 1.375,5.963c-2.25,5.2 -5.833,9.045 -9.917,12.629c-2.959,2.583 -6.167,4.295 -10.333,3.367c-0.917,-0.204 -2,0.121 -2.959,0.254c-5.333,0.733 -10.458,-0.316 -16.542,-1.1c5.459,-4.225 9.375,-8.425 11.292,-14.125c0.542,-1.613 1.417,-3.529 -0.833,-4.313c-1.958,-0.675 -3.375,-0.337 -4.5,2.279c-2.125,4.929 -4.292,10.221 -10.25,12.054c-1.875,0.567 -3.667,1.279 -6.541,2.308c1.625,-2.679 2.083,-4.813 4.333,-5.967c2.875,-1.488 5.708,-3.154 8.583,-4.667c1.625,-0.859 3,-2.042 2.708,-3.925c-0.417,-2.229 -2.542,-1.633 -3.875,-1.446c-6.416,0.896 -11.166,4.829 -14.208,10.046c-3,5.134 -4.542,6.342 -10.834,5.121c-2.166,-0.421 -6.083,-0.45 -6.541,0.025c-3.667,3.65 -8.5,2.159 -12.583,3.558c-9.75,3.334 -19.583,6.354 -28.375,11.9c-3.75,2.358 -7.417,4.813 -11.875,7.696c2.083,-4.246 3.667,-7.671 5.417,-11.008c1.958,-3.792 0.583,-7.871 1.208,-11.767c0.125,-0.7 0.417,-1.371 0.542,-2.067c1.333,-7.629 -5.833,-17.192 -13.417,-17.883c-1.458,-0.133 -3.25,-1.125 -4.333,0.537c-1,1.63 0.542,2.867 1.333,4.146c3.708,5.983 4.417,11.846 0.917,18.459c-3.75,7.042 -5.125,15.054 -3.083,22.742c1.125,4.267 0.334,6.896 -2.667,9.067c-1.958,1.429 -2.791,3.483 -4.25,5.137c-5.167,5.75 -10.542,11.275 -14.334,18.183c-2.042,3.696 -4.292,7.554 -8.5,9.834c-0.083,-0.688 -0.208,-1.109 -0.166,-1.509c1.083,-8.854 2.083,-17.733 0.75,-26.621c-0.458,-3.175 -1.042,-6.504 -4,-8.742c-1.5,-1.108 -2.916,-2.233 -4.583,-1.112c-2.042,1.371 -0.083,3.013 0.5,4.054c2.167,3.9 2.208,7.413 0.542,11.679c-2.834,7.496 -6.459,14.788 -7.375,22.975c-0.542,4.633 0.958,8.138 4.833,10.379c2.5,1.442 4,3.396 1.917,6.533c-2.292,3.421 -3.583,7.354 -5.25,11.1c-3.083,6.895 -4.167,14.337 -6.375,21.463c-2.333,7.545 -4.291,15.162 -5.625,22.95c-0.791,4.529 -1.958,8.987 -2.958,13.479c-0.125,-12.129 0.5,-24.083 0.958,-36.046c0.375,-9.833 0.709,-19.675 0.917,-29.513c0.125,-7.637 1.75,-15.283 0.542,-22.891c-0.791,-5.088 -0.125,-10.108 -0.208,-15.142c-0.083,-6.738 0.708,-13.475 0.5,-20.271c-0.083,-3.642 -1.667,-7.567 0.625,-11.108c1.75,-2.721 3.667,-5.325 5.333,-8.084c0.542,-0.841 0.875,-1.262 1.917,-1.25c2.417,0.038 4.959,-0.6 7.209,0c8.041,2.158 12.208,-3.488 16.208,-8.363c5.875,-7.146 8.083,-16.3 11.333,-24.758c3.875,-10.034 8.708,-19.767 15.375,-27.729c8.292,-9.837 20.292,-14.429 33.458,-14.442c1.708,-0.004 3.542,-1.546 4.917,-0.212c3.25,3.079 7.041,5.642 9.375,9.55c1.375,2.254 -0.042,9.567 -2.042,10.154c-1.666,0.495 -2.625,0.529 -3.166,2.8c-0.417,2 -3.125,3.012 -5.625,2.941c-2.166,-0.067 -4,-0.133 -5.291,-2.554c-1.459,-2.721 -1.834,-5.612 -2.459,-8.492c-0.25,-1.188 2.042,-3.317 -1.125,-3.308c-2.375,0.008 -2.5,2.296 -2.5,3.796c0.042,2.808 0.709,5.604 0.958,8.421c0.292,3.071 2.25,4.77 4.708,6.096c6.459,3.466 17.792,0.246 21.417,-6.142c0.458,-0.821 0.709,-1.892 0.709,-2.85c-0.042,-4.971 0.542,-10.166 -1.208,-14.8c-2.208,-5.891 -4.458,-12.016 -12.042,-13.783c-8.875,-2.071 -17.542,-4.271 -26.958,-3.108c-13.083,1.616 -25.209,5.346 -35.958,12.966c-4.167,2.975 -9.584,4.717 -11.833,9.962c-1,2.288 -2.5,4.067 -4.208,5.78c-7.833,7.658 -13.625,16.42 -15.583,27.483c-0.834,4.771 -2.542,9.388 -3.959,14.4c-1.458,-9.021 -0.791,-17.675 -0.166,-26.233c0.375,-5.338 -1.167,-10.692 0.542,-15.996c0.958,-2.954 1.291,-6.037 0.208,-9.196c-0.791,-2.329 0.334,-4.288 2.917,-3.638c4.916,1.246 7.375,-2.916 11.041,-4.333c4.875,-1.888 5.417,-5.738 5.917,-10.204c0.625,-5.663 -1.375,-8.271 -7.125,-7.846c-2.042,0.15 -3.875,0.85 -5.542,2.054c-0.833,0.629 -1.833,1.354 -2.166,-0.35c-0.709,-4.125 -3.708,-5.217 -7.833,-5.363c3.667,-3.883 2.75,-8.617 3.958,-12.708c2.875,-9.608 6.667,-18.846 10.125,-28.225c1,-2.762 2.791,-5.6 5.458,-7.25c3.458,-2.171 7.125,-4.05 10.875,-5.721c2.375,-1.067 4.792,-2.48 7.584,-2.225c7.583,0.684 11.083,7.033 15.875,11.533c0.625,0.554 0.083,1.367 0.209,2.004c1.291,7.521 -3.792,11.417 -9,14.654c-2.292,1.404 -5.75,1.237 -8.375,-0.709c-2.625,-1.941 -2.083,-5.308 -2.5,-7.804c-0.291,-1.721 3.75,-2.125 5.917,-2.917c0.625,-0.229 1.417,-0.096 2.125,-0.141c1.791,-0.112 1.708,-0.925 0.958,-2.221c-1.667,-2.754 -3.917,-1.521 -6.042,-0.954c-6,1.587 -9.5,5.467 -8.208,9.604c2,6.28 7.125,12.429 15.875,10.317c6.375,-1.538 10.417,-4.371 13.666,-9.625c4.667,-7.583 4.625,-13.304 -0.666,-20.333c-0.667,-0.892 -1.083,-1.983 -1.75,-2.879c-3.542,-4.716 -9.292,-6.062 -14.25,-7.05c-4.416,-0.879 -9.833,0.579 -14.166,2.975c-9.958,5.487 -16,14.454 -20.5,24.558c-1.792,4.046 -3.417,8.171 -5.125,12.262c0.875,-10.012 -3.208,-19.958 0.208,-29.771c0.417,-1.15 -0.166,-2.062 -1.208,-2.4c-1.792,-0.592 -3.625,-0.596 -5.25,0.633c-1.167,0.871 -1,1.954 -0.458,3.042c3.875,7.683 1.375,16.125 2.916,24.258c-0.583,-2.533 -3.208,-2.833 -4.375,-4.992c-3.791,-7.246 -7.416,-14.904 -14.208,-19.904c-6.333,-4.675 -12.334,-11.754 -21.709,-6.708c-3.375,1.8 -8.5,1.917 -10,5.075c-2.583,5.612 -6,11.237 -5.25,18.079c0.458,4.129 7.75,12.804 11.708,11.929c5.083,-1.121 11.209,0.221 14.834,-5.587c1.125,-1.825 2.791,-3.654 1.125,-5.008c-1.417,-1.2 -3.625,0.092 -4.959,1.904c-1.542,2.154 -10.375,1.879 -11.875,-0.304c-0.25,-0.329 -0.417,-0.792 -0.417,-1.188c0.083,-1.929 -1.167,-2.992 -2.375,-4.287c-2.791,-3.071 -2.708,-6.188 0.417,-7.9c6.375,-3.5 13.292,-4.867 20.5,-3.459c1.5,0.3 3.958,1.108 4,3.225c0.042,2.208 1.459,2.425 2.792,3.091c6.792,3.346 10.667,9.308 12.958,16.009c2.416,7.15 3.625,14.717 5.625,22.033c0.709,2.692 0.5,5.075 -0.333,7.65c-1.625,-0.692 -2.875,-1.534 -4.25,-1.737c-3.375,-0.517 -7.041,-1.929 -10.084,0.662c-7.333,6.158 -6.875,12.713 -1.833,20.708c2.458,3.883 6.459,4.842 10.667,4.984c2,0.067 4.167,-2.338 5.958,-0.75c1.834,1.613 -0.125,3.984 -0.167,6.034c-0.291,16.842 -0.125,33.683 0.083,50.55c-1.291,-0.125 -1.083,-1.142 -1.25,-1.917c-0.917,-4.563 -1.75,-9.163 -2.875,-13.675c-0.958,-3.821 0.667,-8.737 -4.416,-10.975c-0.375,-0.159 -0.292,-1.317 -0.417,-2.009c-1.542,-6.904 -5.833,-12.504 -10.208,-17.429c-3.875,-4.333 -7.792,-9.413 -13.875,-11.392c-0.709,-0.225 -1.334,-1.1 -1.667,-1.825c-3.042,-6.567 -9,-9.438 -15.25,-11.667c-5.5,-1.97 -11.125,-3.712 -17.208,-2.637c-1.958,0.346 -4.416,0.071 -5.916,-1.317c-1.834,-1.696 -4.042,-1.604 -5.5,-0.821c-3,1.604 -6.125,0.971 -9.125,1.459c-4.792,0.775 -9.875,2.254 -12.375,6.483c-2.708,4.621 -3.542,10.312 -5.167,15.454c-1.666,5.229 0.083,11.525 3.292,16.7c2.25,3.659 10.375,7.496 14.125,6.083Z" style="fill:#f2c4ce;fill-rule:nonzero;"/><path d="M192.412,263.784c1.417,0.217 0.542,-2.437 1.083,-3.65c0.5,-1.087 0.583,-2.904 2.208,-2.675c1.708,0.238 1.333,1.98 1.291,3.171c-0.125,2.579 -1,4.95 -2.166,7.263c-0.542,1.163 -0.709,2.7 0.625,3.438c1.625,0.921 2.25,-0.733 2.75,-1.779c1.083,-2.442 1.958,-4.988 3.375,-8.592c0.042,6.366 0.833,11.746 -1.834,16.946c-1.25,2.5 -3.042,2.783 -5.167,2.175c-2,-0.558 -3.916,-1.242 -3.916,-4.163c0.042,-2.933 -1.125,-5.846 -0.709,-8.841c0.209,-1.438 -1.167,-3.863 2.458,-3.292Zm1.792,-46.688c2.375,4.575 5.833,8.492 4.333,14.117c-6.791,-4.188 -7.875,-7.55 -4.333,-14.117Zm10.75,-33.346c-0.5,-1.396 -0.917,-2.733 0.958,-3.421c0.292,0.163 0.709,0.233 0.792,0.425c2.167,5.192 8.041,6.254 11.375,10.196c1.042,1.246 2.958,2.379 1.375,4.258c-1.375,1.683 -2.791,0.542 -4.458,-0.204c-5.083,-2.295 -8.208,-6.167 -10.042,-11.254Zm-26.291,-39.096c1.166,-4.1 0.458,-9.458 5.458,-12.621c2.167,-1.359 5.25,-2.892 6.625,-1.546c1.625,1.55 0.667,5.154 -1.042,6.85c-2.791,2.721 -3.208,6.292 -4.75,9.429c-0.792,1.538 -1.125,4.192 -3.917,3.683c-3.208,-0.587 -1.917,-3.258 -2.375,-5.796Zm15.042,-2.538c1.458,-2.246 3.416,-2.158 5.583,-1.954c1.042,0.1 1.5,0.229 1.083,1.505c-1.292,3.838 -9.584,10.521 -13.792,10.821c2.542,-3.658 4.959,-6.942 7.125,-10.371Zm49.833,91.596c0.375,2.092 -4.167,8.538 -6.375,8.958c-0.125,0.025 -0.291,0.004 -0.417,0.038c-5.958,1.441 -6.583,0.941 -6.625,-5.704c-1.208,-4.596 3.125,-3.912 5.5,-4.542c2.042,-0.542 4.459,0.175 6.667,0.35c0.583,0.046 1.083,0.204 1.25,0.9Zm-122.958,19.104c2,-1.429 4.417,-1.45 6.542,-1.529c5.541,-0.213 8.167,-3.879 10.541,-7.958c0.542,-0.921 0.875,-1.795 2.042,-1.808c5.459,-0.058 8.709,-3.9 13.459,-7.708c0.083,0.621 -0.042,1.383 -0.5,2.371c-1.459,3.329 -2.167,6.979 -3.334,10.454c-3.542,10.683 0,18.083 10.5,21.875c4.25,1.546 9.417,0.287 12.25,-3.208c1.083,-1.3 1.917,-2.929 1.042,-4.729c-0.75,-1.567 -0.958,-3.241 -1.333,-4.896c-1.208,-5.075 -6.708,-8.771 -11.083,-7.667c0.375,1.471 1.834,1.621 2.834,2.325c4.791,3.421 5.416,8.621 1.625,13.1c-0.792,0.954 -1.667,1.325 -2.959,1.175c-7.375,-0.85 -9.917,-3.621 -9.875,-11.046c0,-2.546 0,-5.117 0.417,-7.621c0.459,-3.225 1.917,-6.621 4.167,-8.463c4.708,-3.842 9.333,-8.259 16.042,-8.862c2.791,-0.254 5.125,-1.871 7.25,-3.95c2.458,-2.379 5.292,-4.371 8.875,-5.484c-1.625,8.3 -3.083,16.142 -2.75,24.316c0.125,2.9 1.083,5.925 0.291,8.788c-1.375,4.984 -0.75,10.121 -1.583,15.129c-0.875,5.525 0.625,10.1 4.459,14.363c2.75,3.004 6.125,3.342 9.166,3.042c3.083,-0.3 5.25,-3.204 6.25,-6.354c0.375,-1.067 0.292,-2.288 0.709,-3.325c4.5,-11.3 -0.583,-21.271 -12.375,-23.979c-0.959,-0.221 -1.459,-0.508 -1.667,-1.516c-1.208,-6.658 -0.625,-13.304 -0.625,-21.225c3.5,4.554 6.167,8.008 8.792,11.491c0.75,0.962 1.625,1.842 2.834,1.562c1.5,-0.358 1.042,-1.871 1,-2.875c-0.209,-3.109 -0.292,-6.292 -1,-9.288c-1.25,-5.038 0.5,-10.679 -3.042,-15.213c-1.667,-2.146 -1.625,-3.588 1.166,-4.675c5.708,-2.2 10.917,-5.375 16.75,-7.5c4.333,-1.571 8.25,-4.175 13.25,-4.959c11.292,-1.762 22.208,-0.179 33.167,1.925c1.125,0.221 2.542,0.529 3.125,2.067c-5.625,1.729 -11.292,3.279 -16.25,6.654c-5.25,3.554 -9.417,8.237 -14.083,12.396c-4.375,3.908 -7.708,8.267 -10.041,13.466c-2.834,6.35 2.458,16.058 9.25,17.229c0.833,0.142 1.75,0.075 2.542,-0.183c10.042,-3.342 12.667,-15.087 4.958,-22.171c-0.375,-0.379 -0.5,-0.762 -0.25,-1.029c2.416,-2.758 2.375,-6.35 3.375,-9.6c1.208,-3.842 5.084,-4.6 8.125,-6.241c3.708,-2 8,-3.05 11.458,-5.204c4.042,-2.529 8.125,-2.475 11.542,-1.025c7.541,3.225 15.916,5.483 21.666,11.779c3.292,3.579 9.25,4.817 9.792,10.938c0.125,1.654 1.792,1.654 3.083,1.083c1.292,-0.579 2.625,-1.238 1.875,-3.175c-1.334,-3.412 -3.25,-6.292 -6.5,-8.183c-5.583,-3.275 -9.292,-9.175 -15.625,-11.471c-0.417,-0.155 -0.791,-0.85 -0.917,-1.363c-2.583,-8.992 -9.125,-16.279 -10.958,-25.608c-0.333,-1.654 -1.125,-2.942 -3.292,-2.05c-2.167,0.896 -1.625,2.433 -0.958,3.858c1.75,3.863 3.667,7.671 5.5,11.496c1.5,3.062 3.125,6.083 2,9.529c-0.709,-2.112 -2.834,-2.867 -4.583,-3.971c-12.292,-7.746 -8.458,-20.434 -1.834,-27.958c1.625,-1.821 2.5,-3.484 3.167,-5.584c-8.042,-1.62 -8,6.304 -11.083,9.808c-5.375,6.096 -2.583,13.796 0.209,21.188c-3.083,-1.042 -5.625,-1.613 -7.875,-2.692c-6.125,-2.904 -12.583,-0.325 -18.875,-1.446c-5.292,-0.941 -10.958,-1.946 -16.083,1.45c-2.083,1.354 -2.542,-0.6 -3.125,-2.1c-1.042,-2.591 -2,-4.858 -5.333,-5.996c-2.5,-0.85 -5.958,-2.921 -5.667,-6.413c0.25,-2.583 0.083,-4.65 -1.291,-6.779c-0.5,-0.825 -1.708,-2.062 0.042,-2.8c2.25,-0.946 2.208,-3.5 3.833,-4.908c-5.458,0.65 -9.208,3.575 -11.791,8.296c-2.5,4.608 -2.792,9.392 -1.583,14.388c0.209,0.817 1.167,2.167 -0.709,2.091c-3.375,-0.133 -6.875,-0.175 -9.833,-1.992c-3.625,-2.242 -6.541,-5.471 -9.125,-8.796c-2.667,-3.429 -3.208,-8.046 -1.917,-11.787c1.25,-3.679 4.542,-6.675 6.959,-9.962c0.042,-0.087 0.25,-0.112 0.375,-0.108c4.667,0.171 7.958,-2.654 11.292,-5.309c4.125,-3.329 7.625,-7.216 9.125,-12.483c0.542,-2.071 0.5,-4.05 -2.667,-2.359c-0.708,0.367 -1.667,0.171 -2.458,0.404c-5.333,1.583 -5.333,1.596 -5.708,-3.717c-0.542,-8.154 -4.083,-11.433 -11.209,-9.529c-4.083,1.092 -9.666,1.012 -10.666,6.671c-1.167,6.779 -1.917,13.688 -1.167,20.609c0.417,3.508 1.667,8.25 0.417,10.267c-1.917,3.058 -1.083,5.396 -1.042,8.067c0.209,9.642 7.209,19.908 16.5,23.025c7.083,2.375 14.458,3.854 22.625,5.979c-5.541,3.154 -10.5,5.742 -15.208,8.763c-4.708,3.013 -9.208,6.354 -13.625,9.754c-3.834,2.954 -8.125,5.017 -12.5,7.017c-5.167,2.375 -10.5,2.075 -15.75,0.495c-1.292,-0.392 -2.292,-0.3 -3.583,-0.179c-4.459,0.412 -9.25,0.963 -12.583,-2.863c-2.208,-2.533 -4,-5.587 -5.375,-8.671c-1.708,-3.858 -1.583,-8.038 -0.083,-11.996c2.334,-6.129 9.084,-6.771 13.375,-10.446c2.833,1.937 6.416,0.82 9.5,2.692c3.208,1.954 4.833,4.454 4.292,7.662c-0.333,2.125 -3.5,1.921 -5.416,2.596c-1.334,0.463 -3.167,0.363 -2.542,2.242c0.542,1.654 2.208,1.888 3.959,1.221c1,-0.367 1.542,-1.684 3,-1.092c2.875,1.187 3.208,0.82 4.667,-1.675c3.167,-5.466 -0.417,-16.125 -7.875,-18.354c-1.25,-0.371 -2.375,-0.783 -3.416,-1.583c-3.417,-2.592 -12.417,-3.083 -16,-0.617c-7.75,5.309 -14.542,13.33 -11.667,25.142c1.958,8.271 4.167,16.7 13.083,20.391c3.5,1.459 7.208,2.796 11.125,3.3c1.667,0.212 3.334,0.725 3.542,2.291c-5.625,0.067 -9.458,2.908 -13.792,2.796c-3.042,-0.079 -4.708,0.967 -5.458,4.05c-0.542,2.387 -1.75,4.017 -5,4.042c-4,0.029 -7.583,2.108 -10.333,5.25c-0.709,0.812 -1.125,1.654 -0.25,2.625c0.666,0.725 1.5,0.883 2.291,0.32Z" style="fill:#f2c4ce;fill-rule:nonzero;"/><path d="M351.412,21.025c1.5,-0.18 1.917,-1.005 2.042,-2.088c0.167,-1.713 1.375,-1.837 2.416,-1.183c4.333,2.679 4,-1.371 3.834,-3.092c-0.291,-2.687 -0.291,-5.367 -0.458,-8.045c-0.167,-2.208 -6.667,-7.092 -8.708,-6.58c-1.125,0.279 -1.292,1.217 -1,1.992c2.166,6.158 1.833,12.592 1.875,18.996Z" style="fill:#f2c4ce;fill-rule:nonzero;"/><path d="M460.287,466.296c-1.542,-0.371 -1.542,1.321 -2.042,2.242c-0.25,0.483 -0.209,1.117 -0.375,1.65c-3.875,10.862 -3.459,22.275 -4.125,33.521c-0.208,3.567 0.792,7.2 1.334,11.892c2.167,-2.625 1.667,-4.525 1.667,-6.258c0.042,-9.379 1,-18.592 3.167,-27.762c0.958,-3.913 0.583,-8.154 1.833,-12.133c0.417,-1.267 0.042,-2.796 -1.458,-3.15Z" style="fill:#f2c4ce;fill-rule:nonzero;"/><path d="M128.995,594.525c0.958,-3.254 1.667,-10.088 -1.375,-12.483c-0.334,-0.267 -0.792,-0.175 -0.917,0.246c-0.583,1.554 -0.083,3.454 -0.125,5.108c-0.042,2.121 -0.542,4.125 -1.083,6.167c-0.583,2.25 2.833,3.192 3.5,0.963Z" style="fill:#f2c4ce;fill-rule:nonzero;"/><path d="M117.287,591.496c-0.083,1.654 -0.417,3.275 -0.583,4.925c-0.167,2.075 3.375,2.587 3.708,0.496c0.334,-2.342 0.125,-4.704 -0.208,-7.046c-0.25,-1.85 -0.458,-4.092 -1.958,-5.362c-1.083,-0.896 -2.625,0.579 -1.583,1.562c1.166,1.079 0.708,4.021 0.625,5.425Z" style="fill:#f2c4ce;fill-rule:nonzero;"/><path d="M110.954,598.225c0.083,-2.938 0.5,-5.767 0.917,-8.671c0.208,-1.271 -1.625,-1.859 -1.958,-0.546c-0.75,2.979 -1.5,5.854 -2.542,8.729c-0.917,2.383 3.5,3.333 3.583,0.488Z" style="fill:#f2c4ce;fill-rule:nonzero;"/><path d="M103.37,600.6c-0.208,-1.913 -0.417,-3.821 -0.833,-5.7c-0.292,-1.358 -2.583,-1.087 -2.458,0.333c0.166,1.667 0.208,3.25 -0.125,4.9c-0.583,2.646 3.667,2.85 3.416,0.467Z" style="fill:#f2c4ce;fill-rule:nonzero;"/><path d="M236.912,556.067c3.458,-7.529 6,-15.213 5.583,-23.571c-0.042,-0.758 -1.291,-1.025 -1.417,-0.187c-1.334,7.704 -2.875,15.371 -6.584,22.329c-0.875,1.629 1.708,3.062 2.417,1.429Z" style="fill:#f2c4ce;fill-rule:nonzero;"/></svg>