<?xml version="1.0" encoding="UTF-8" standalone="no"?><!DOCTYPE svg PUBLIC "-//W3C//DTD SVG 1.1//EN" "http://www.w3.org/Graphics/SVG/1.1/DTD/svg11.dtd"><svg width="100%" height="100%" viewBox="0 0 448 496" version="1.1" xmlns="http://www.w3.org/2000/svg" xmlns:xlink="http://www.w3.org/1999/xlink" xml:space="preserve" xmlns:serif="http://www.serif.com/" style="fill-rule:evenodd;clip-rule:evenodd;stroke-linejoin:round;stroke-miterlimit:2;"><path d="M90.742,31.361c5.079,8.012 13.721,11.808 22.708,13.675c10.3,2.142 21.113,2.221 31.592,2.054c41.333,-0.642 83.787,-11.829 124.579,-0.275c17.646,5.004 33.383,14.612 45.442,28.483c11.554,13.279 19.563,29.608 23.033,46.867c7.183,35.712 -6.675,73.096 -32.121,98.488c-3.042,3.033 -6.262,5.921 -9.542,8.696c-0.129,0.113 0.029,0.308 0.163,0.204c25.25,-18.742 41.7,-49.296 44.8,-80.425c3.108,-31.288 -8.813,-63.229 -31.483,-84.992c-12.029,-11.537 -26.858,-19.442 -42.908,-23.796c-17.392,-4.717 -35.396,-5.542 -53.325,-4.917c-20.067,0.696 -40.008,3.267 -60.067,4.104c-10.062,0.425 -20.167,0.367 -30.196,-0.658c-8.421,-0.858 -16.921,-2.679 -23.842,-7.833c-5.775,-4.304 -10.483,-12.604 -7.558,-19.837c2.904,-7.196 12.029,-11.029 19.142,-7.921c7.583,3.321 11.663,13.008 7.812,20.529c-2.042,3.983 -6.887,7.513 -11.529,5.642c-2.696,-1.079 -5.008,-5.175 -3.196,-7.812c1.133,-1.65 3.513,-2.608 5.192,-1.842c4.204,1.921 6.642,-3.821 3.696,-6.563c-6.454,-5.992 -16.925,-0.079 -17.267,8.092c-0.346,8.267 9.921,13.062 16.925,10.196c15.121,-6.192 9.771,-29.183 -5.171,-31.35c-7.029,-1.021 -14.633,2.658 -18.225,8.767c-4.162,7.079 -2.913,15.708 1.346,22.425Z" style="fill:#d4899a;"/><path d="M339.996,28.957c-6.017,-2.292 -13.638,5.75 -16.2,10.579c-1.504,2.842 -2.092,5.608 -2.025,8.758c0.062,3.187 -0.304,6.358 -0.437,9.542c-0.021,0.454 0.617,0.496 0.754,0.104c0.863,-2.496 2.092,-5.179 4.217,-6.833c1.95,-1.508 3.863,-2.938 5.717,-4.608c1.742,-1.571 3.175,-3.433 4.929,-5.004c1.683,-1.5 3.771,-2.604 5.204,-4.35c2.45,-2.992 1.458,-6.808 -2.158,-8.188Z" style="fill:#d4899a;"/><path d="M331.855,15.548c-8.146,-1.687 -14.996,9.704 -15.429,16.7c-0.529,8.575 0.771,17.238 2.483,25.6c0.062,0.313 0.513,0.217 0.533,-0.071c0.483,-7.238 0.342,-15.967 4.854,-22.05c1.579,-2.133 3.079,-4.371 4.717,-6.458c2.067,-2.642 5.512,-4.133 6.321,-7.579c0.592,-2.496 -0.762,-5.575 -3.479,-6.142Z" style="fill:#d4899a;"/><path d="M296.788,28.957c6.013,-2.292 13.638,5.75 16.196,10.579c1.508,2.842 2.092,5.608 2.029,8.758c-0.071,3.187 0.3,6.358 0.437,9.542c0.017,0.454 -0.617,0.496 -0.754,0.104c-0.871,-2.496 -2.096,-5.179 -4.225,-6.833c-1.946,-1.508 -3.858,-2.938 -5.708,-4.608c-1.746,-1.571 -3.179,-3.433 -4.933,-5.004c-1.683,-1.5 -3.771,-2.604 -5.204,-4.35c-2.45,-2.992 -1.458,-6.808 2.162,-8.188Z" style="fill:#d4899a;"/><path d="M304.93,15.548c8.137,-1.687 14.992,9.704 15.425,16.7c0.529,8.575 -0.771,17.238 -2.483,25.6c-0.067,0.313 -0.513,0.217 -0.533,-0.071c-0.479,-7.238 -0.342,-15.967 -4.854,-22.05c-1.579,-2.133 -3.083,-4.371 -4.717,-6.458c-2.067,-2.642 -5.508,-4.133 -6.321,-7.579c-0.592,-2.496 0.758,-5.575 3.483,-6.142Z" style="fill:#d4899a;"/><path d="M314.659,196.478c-0.212,-0.583 -0.408,-1.167 -0.613,-1.75c0.221,0.579 0.442,1.158 0.671,1.733c0.017,0.037 -0.046,0.054 -0.058,0.017Z" style="fill:#d4899a;"/><path d="M307.992,172.673c1.454,7.442 3.508,14.779 6.054,22.054c-2.729,-7.067 -4.746,-14.475 -6.054,-22.054Z" style="fill:#d4899a;"/><path d="M305.588,145.898c0.3,-16.112 3.592,-32.288 9.958,-47.112c11.867,-27.629 38.129,-52.413 70.229,-49.358c14.55,1.383 27.446,9.075 35.588,21.229c7.896,11.783 9.392,27.15 1.633,39.375c-7.717,12.15 -20.125,20.917 -34.95,20.425c-13.342,-0.433 -25.267,-8.4 -28.738,-21.683c-3.646,-13.946 6.167,-29.654 20.383,-32.637c15.425,-3.233 30.796,13.771 22.908,28.396c-0.729,1.358 -2.85,0.712 -2.85,-0.767c-0.008,-10.708 -9.25,-21.246 -20.104,-21.525c-14.454,-0.375 -22.708,14.654 -18.9,27.512c4.158,14.038 18.496,22.025 32.663,19.538c6.804,-1.192 13.042,-4.475 17.942,-9.329c4.854,-4.808 7.192,-10.596 8.621,-17.167c5.45,-25.012 -15.917,-47.342 -40.208,-48.646c-28.8,-1.546 -51.408,19.646 -62.596,44.413c-10.179,22.533 -13.458,49.238 -9.175,74.113c-1.704,-8.754 -2.579,-17.65 -2.404,-26.775Z" style="fill:#d4899a;"/><path d="M283.334,420.944c-1.929,-11.583 -1.1,-23 1.038,-34.488c2.275,-12.25 5.871,-24.2 10.179,-35.875c4.317,-11.7 9.321,-23.133 12.175,-35.317c3.154,-13.463 3.775,-27.346 3.083,-41.117c-1.442,-28.583 -8.346,-56.654 -11.829,-85.021c-3.154,-25.721 -4.104,-52.463 3.675,-77.496c6.992,-22.496 20.792,-43.454 42.25,-54.304c0.179,-0.087 0.333,0.175 0.158,0.271c-19.512,10.537 -32.558,29.738 -39.054,50.592c-7.75,24.908 -5.742,51.129 -1.004,76.421c2.558,13.679 6.112,27.138 8.925,40.758c2.796,13.571 5.196,27.221 6.508,41.021c1.308,13.725 1.371,27.512 -0.521,41.188c-1.742,12.596 -5.471,24.687 -10.329,36.412c-2.704,6.525 -5.817,12.779 -8.796,19.163c-2.846,6.092 -6.471,11.867 -9.054,18.075c-5.229,12.567 -8.625,26.008 -7.142,39.683c0.017,0.142 -0.237,0.179 -0.263,0.033Z" style="fill:#d4899a;"/><path d="M338.613,458.678c-26.213,-1.25 -45.871,-23.917 -45.283,-49.788c0.392,-17.217 7.167,-33.517 12.992,-49.45c6.4,-17.483 13.267,-34.858 19.275,-52.483c0.013,-0.033 0.075,-0.017 0.058,0.021c-4.267,12.212 -7.929,24.663 -11.925,36.971c-3.846,11.867 -7.942,23.687 -11.438,35.671c-3.383,11.613 -6.067,23.896 -3.667,35.983c1.921,9.683 7.104,18.213 14.712,24.492c14.913,12.3 36.5,12.733 51.692,0.625c7.475,-5.967 13.262,-14.825 13.142,-24.667c-0.108,-8.829 -6.4,-16.392 -14.575,-19.35c-9.529,-3.458 -18.054,5.896 -17.046,15.204c0.283,2.6 1.429,5.058 3.354,6.85c2.062,1.925 6.467,3.563 8.85,1.333c1.554,-1.45 0.504,-2.575 -0.338,-4.408c-0.375,-0.825 -0.692,-1.521 -1.167,-2.287c-0.192,-0.304 -0.479,-0.546 -0.662,-0.858c-0.625,-1.033 -0.004,-0.483 -0.446,-0.775c-0.454,-0.296 -0.829,-0.942 -0.613,-1.504c1.996,-5.187 8.704,-3.458 11.046,0.658c2.696,4.75 0.429,10.854 -4.846,12.292c-9.637,2.637 -18.35,-5.042 -17.571,-14.846c0.754,-9.479 8.412,-17.4 17.825,-18.438c12.529,-1.375 23.358,9.042 25.408,20.958c4.737,27.617 -23.258,49.013 -48.779,47.796Z" style="fill:#d4899a;"/><path d="M300.338,254.407c-0.858,-3.433 -1.846,-6.85 -2.954,-10.258c1.167,3.35 2.15,6.779 2.954,10.258Z" style="fill:#d4899a;"/><path d="M296.642,241.928c0.254,0.742 0.496,1.483 0.742,2.221c-0.258,-0.738 -0.525,-1.471 -0.8,-2.204c-0.017,-0.038 0.046,-0.054 0.058,-0.017Z" style="fill:#d4899a;"/><path d="M237.501,370.461c-13.017,-0.663 -24.529,-7.683 -30.854,-19.1c-5.862,-10.583 -6.654,-24.283 0.571,-34.467c6.458,-9.1 22.421,-17.613 32.758,-9.596c7.225,5.596 12.512,15.517 10.563,24.8c-2.325,11.071 -18.171,17.833 -25.379,7.083c-3.029,-4.508 -3.817,-10.446 0.142,-14.667c4.033,-4.292 11.017,-4.983 14.946,-0.208c1.65,2.004 -0.467,5.504 -2.983,3.863c-3.038,-1.983 -8.3,-1.35 -10.333,1.842c-3.187,5.004 1.371,10.9 6.454,11.904c5.508,1.092 11.383,-2.396 13.679,-7.371c1.717,-3.729 1.517,-8.058 0.142,-11.854c-1.329,-3.675 -4.554,-7.596 -8.679,-8.213c-3.875,-0.571 -8.633,-0.329 -12.337,0.925c-7.746,2.608 -12.975,10.125 -13.05,18.204c-0.075,8.267 3.85,16.329 10.213,21.579c7.571,6.25 18.137,8.229 27.692,6.983c22.254,-2.892 37.054,-22.867 44.533,-42.492c7.742,-20.321 9.717,-43.8 4.763,-65.271c2.417,9.733 3.733,19.625 3.537,29.85c-0.271,14.346 -3.192,28.654 -8.762,41.883c-9.783,23.229 -30.233,45.708 -57.613,44.321Z" style="fill:#d4899a;"/><path d="M244.213,458.878c-1.529,-2.45 -3.325,-4.488 -3.846,-7.413c-0.437,-2.496 -0.6,-5.1 -0.471,-7.621c0.25,-4.971 1.229,-9.929 2.654,-14.688c3.063,-10.229 8.287,-19.542 14.171,-28.383c11.717,-17.617 27.208,-33.104 35.158,-53.042c0.071,-0.183 0.362,-0.113 0.296,0.083c-6.408,19.012 -18.792,34.717 -29.021,51.746c-5.254,8.754 -9.513,18.15 -11.829,28.121c-1.112,4.792 -1.658,9.667 -1.517,14.592c0.071,2.437 0.229,4.896 0.513,7.317c0.312,2.671 -0.463,5.104 -0.446,7.754c0.021,3.079 -4.092,4.046 -5.662,1.533Z" style="fill:#d4899a;"/><path d="M215.667,402.594c-2.129,-0.187 -3.833,-0.675 -5.579,-1.904c-1.392,-0.992 -3.167,-1.321 -4.438,-2.512c-0.587,-0.554 -0.458,-1.642 0.258,-2.021c1.25,-0.662 2.583,-0.283 3.742,-0.721c0.708,-0.267 1.438,-1.142 2.212,-1.467c0.992,-0.417 1.813,-0.546 2.892,-0.692c3.446,-0.446 6.983,-0.417 10.45,-0.688c7.075,-0.542 14.087,-1.417 20.771,-3.925c6.837,-2.567 13.079,-6.929 18.442,-11.829c2.692,-2.458 5.179,-5.133 7.458,-7.975c2.242,-2.788 3.933,-6.129 6.346,-8.742c0.025,-0.029 0.062,0 0.054,0.025c-0.762,3.471 -3.15,6.796 -5.167,9.663c-2.05,2.929 -4.354,5.675 -6.842,8.237c-5.308,5.471 -11.5,9.842 -17.963,13.833c-6.429,3.971 -13.2,7.529 -20.55,9.446c-3.829,1 -8.133,1.625 -12.088,1.271Z" style="fill:#d4899a;"/><path d="M441.005,108.803c-1.825,-2.612 -1.762,-6.071 -1.954,-9.133c-0.233,-3.658 -0.396,-7.258 -1.133,-10.867c-1.438,-7.025 -3.963,-13.825 -7.796,-19.892c-3.542,-5.596 -7.792,-10.446 -12.912,-14.65c-5.746,-4.713 -12.137,-7.467 -18.971,-10.171c-0.275,-0.108 -0.275,-0.596 0.075,-0.567c14.013,1.192 28.433,10.312 36.838,21.321c4.817,6.312 8.4,13.625 10.204,21.371c1.462,6.292 4.033,18.067 -1.808,22.921c-0.842,0.7 -1.908,0.583 -2.542,-0.333Z" style="fill:#d4899a;"/><path d="M412.626,144.253c-2.004,-0.217 -3.608,-1.504 -3.629,-3.629c-0.017,-2.65 2.296,-4.775 4.158,-6.292c4.029,-3.279 7.704,-6.9 10.9,-11.004c7.663,-9.854 10.008,-22.517 7.812,-34.729c-0.054,-0.308 0.362,-0.425 0.471,-0.129c3.942,10.846 3.779,22.325 0.192,33.258c-1.667,5.079 -3.796,9.592 -7.175,13.788c-2.908,3.608 -7.525,9.283 -12.729,8.738Z" style="fill:#d4899a;"/><path d="M368.421,162.123c-5.083,-9.45 7.442,-19.329 14.638,-22.929c5.229,-2.612 10.788,-3.633 16.317,-5.367c5.762,-1.812 10.471,-4.662 15.067,-8.537c0.258,-0.213 0.683,0.058 0.488,0.379c-2.325,3.783 -6.121,6.517 -9.883,8.758c-4.371,2.6 -8.904,5.025 -13.454,7.304c-4.679,2.346 -9.488,4.467 -13.192,8.283c-3.437,3.542 -4.425,8.025 -6.917,12.108c-0.671,1.096 -2.417,1.204 -3.063,0Z" style="fill:#d4899a;"/><path d="M374.892,196.869c-12.883,-2.8 -19.846,-17.942 -19.992,-30.004c-0.083,-7.087 2.05,-14.133 6.333,-19.808c4.15,-5.508 9.45,-8.9 15.883,-11.208c0.575,-0.208 0.929,0.683 0.412,0.971c-8.846,4.908 -15.2,14.854 -16.208,24.883c-0.971,9.692 3.183,22.163 12.946,26.096c4.679,1.883 10.037,0.579 13.95,-2.429c3.721,-2.871 7.104,-7.142 6.012,-12.075c-1.137,-5.146 -7.917,-8.412 -12.596,-5.508c-3.233,2.008 -4.371,6.887 -1.696,9.833c2.212,2.437 6.008,1.583 7.242,-1.2c-0.362,-0.196 -0.717,-0.408 -1.046,-0.671c-0.363,-0.246 -0.229,-0.808 0.225,-0.825c0.662,-0.071 1.325,-0.05 1.983,0.083c0.646,0.075 1,0.525 0.9,1.179c-0.579,3.625 -5.1,5.508 -8.3,3.925c-3.867,-1.917 -4.333,-7.358 -2.162,-10.7c2.296,-3.521 7.1,-5.383 11.154,-4.55c5.008,1.038 8.279,5.937 9.55,10.562c3.912,14.25 -11.975,24.183 -24.592,21.446Z" style="fill:#d4899a;"/><path d="M332.701,473.04c-9.358,-2.2 -17.85,-7.042 -24.858,-13.571c-12.912,-12.038 -19.562,-31.346 -18.421,-48.708c0.029,-0.4 0.625,-0.408 0.621,0c-0.104,17.346 8.088,33.075 22.138,43.083c6.608,4.708 14.296,7.658 22.183,9.404c3.817,0.842 7.663,1.137 11.546,1.504c4.3,0.404 8.583,1.596 12.863,1.863c1.483,0.087 2.246,2.142 0.796,2.929c-4.196,2.3 -7.792,4.271 -12.663,4.788c-4.712,0.5 -9.612,-0.213 -14.204,-1.292Z" style="fill:#d4899a;"/><path d="M233.246,494.161c-1.15,-1.417 -2.562,-2.2 -3.654,-4.296c-0.929,-1.788 -1.283,-3.95 -1.737,-5.9c-0.979,-4.204 -1.558,-8.525 -1.921,-12.821c-0.717,-8.438 -0.017,-16.992 1.7,-25.271c1.721,-8.304 5.058,-15.65 8.788,-23.204c3.642,-7.383 7.917,-14.263 13.45,-20.388c0.217,-0.237 0.642,0.079 0.454,0.35c-4.533,6.525 -8.667,13.612 -11.375,21.108c-2.617,7.246 -3.725,15.412 -4.421,23.067c-0.704,7.762 -0.521,15.642 0.508,23.367c0.475,3.621 1.254,7.183 2.138,10.717c0.483,1.925 1.233,3.867 1.542,5.825c0.158,1.004 0.221,2.087 0.042,3.1c-0.021,0.471 -0.142,0.921 -0.358,1.337c0.167,-0.229 0.192,0.046 0.067,0.846c0.008,1.013 -0.571,2.188 -1.513,2.642c-0.237,0.121 -0.483,0.233 -0.733,0.312c-0.954,0.288 -2.321,0.021 -2.975,-0.792Z" style="fill:#d4899a;"/><path d="M224.184,210.169c6.454,7.692 18.142,11.471 27.438,6.908c9.208,-4.517 11.171,-14.242 7.962,-23.392c-2.625,-7.496 -12.987,-14.233 -19.704,-7.129c-5.846,6.179 0.412,17.146 8.533,12.883c2.796,-1.471 0.321,-5.7 -2.475,-4.233c-2.429,1.279 -7.1,0.442 -6.729,-3.537c0.379,-4.1 4.313,-6.746 8.204,-6.121c4.812,0.767 8.821,5.642 8.5,10.567c-0.363,5.521 -5.987,11.7 -11.025,13.529c-7.521,2.729 -15.333,0.467 -20.496,-5.613c-5.687,-6.704 -6.217,-16.321 -3.762,-24.467c4.842,-16.092 20.5,-27.938 35.904,-33.033c14.704,-4.862 30.967,-4.338 45.1,2.129c15.292,6.987 28.087,20.433 33.704,36.371c0.021,0.054 0.113,0.033 0.092,-0.025c-6.896,-18.829 -21.696,-33.838 -41.054,-39.85c-19.783,-6.137 -42.312,-1.492 -58.392,11.458c-15.237,12.275 -26.287,36.279 -11.8,53.554Z" style="fill:#d4899a;"/><path d="M335.046,194.928c1.587,0 3.112,-1.4 3.038,-3.046c-0.075,-1.642 -1.338,-3.038 -3.038,-3.038c-1.592,0 -3.113,1.4 -3.042,3.038c0.075,1.65 1.333,3.046 3.042,3.046Z" style="fill:#d4899a;"/><path d="M322.78,229.39c1.321,2.208 3.408,3.95 5.071,5.892c1.65,1.929 3.608,3.721 5.796,5.029c3.854,2.304 8.408,3.438 12.871,2.746c8.171,-1.263 14.788,-10.442 10.3,-18.375c-3.421,-6.042 -13.9,-6.317 -16.467,0.679c-3.754,10.254 12.721,12.542 11.396,4.587c-0.167,-1 -1.587,-1.533 -2.4,-0.975c-1.133,0.779 -2.212,2.467 -3.583,2.729c-3.083,-0.829 -4.25,-2.675 -3.5,-5.533c0.475,-1.617 1.425,-2.829 2.854,-3.633c5.533,-3.258 11.858,1.158 12.092,7.221c0.442,11.45 -14.95,13.662 -21.779,7.187c-3.337,-3.162 -3.5,-5.571 -1.946,-9.554c1.287,-3.3 2.217,-6.625 3.662,-9.867c1.425,-3.183 3.254,-6.792 3.292,-10.367c0.029,-2.904 -1.104,-5.925 -1.546,-8.775c-0.104,-0.663 -1.1,-0.579 -1.263,0c-0.925,3.312 -4.175,4.204 -6.554,6.146c-2.379,1.942 -4.45,4.067 -6.225,6.596c-3.75,5.358 -5.633,12.317 -2.071,18.267Z" style="fill:#d4899a;"/><path d="M113.284,107.648c1.475,6.729 4.646,13.912 8.746,19.458c7.825,10.596 20.021,19.046 33.758,17.429c12.492,-1.467 24.442,-11.829 27.013,-24.25c2.508,-12.133 -5.463,-27.021 -18.596,-28.337c-6.3,-0.629 -15.558,2.287 -19.138,7.871c-4.121,6.425 -3.967,17.325 1.967,22.621c7.079,6.325 25.033,7.942 25.029,-5.271c-0.004,-4.158 -2.242,-8.025 -6.408,-9.05c-0.837,-0.208 -1.188,1.054 -0.354,1.3c6.212,1.833 6.479,11.183 1.158,14.242c-2.867,1.654 -7.067,1.237 -9.7,-0.75c-2.412,-1.817 -3.187,-5.979 -3.654,-8.783c-0.821,-4.887 1.496,-12.396 5.925,-15.054c5.629,-3.379 12.904,-1.146 17.167,3.367c9.554,10.113 4.388,26.013 -5.05,34.067c-9.921,8.471 -24.108,8.054 -34.65,1.029c-10.629,-7.087 -16.392,-19.129 -13.85,-31.771c2.446,-12.15 6.875,-24.046 15.471,-33.25c16.475,-17.646 42.4,-25.425 65.958,-26.229c22.45,-0.767 45.508,4.542 64.771,16.267c21.083,12.833 36.467,32.267 44.225,55.692c8.408,25.388 8.4,53.208 2.717,79.171c-5.817,26.571 -19.042,52.958 -43.475,66.829c-10.829,6.15 -23.742,9.579 -36.15,6.967c-13.458,-2.825 -23.708,-13.629 -23.258,-27.829c0.438,-13.846 12.563,-25.562 26.454,-25.483c7.096,0.042 14.95,3.696 17.375,10.842c1.683,4.95 0.117,13.825 -6.067,14.975c-4.442,0.817 -10.133,-3.979 -8.617,-8.621c1.796,-5.475 -7.196,-7.992 -8.642,-2.383c-3.525,13.654 14.233,21.525 22.946,11.246c3.604,-4.237 4.454,-10.646 2.396,-15.771c-2.271,-5.658 -7.675,-8.979 -13.321,-10.563c-12.862,-3.6 -27.058,4.121 -32.208,16.192c-5.5,12.888 -0.263,28.308 11.604,35.525c12.242,7.438 28.163,6 40.908,0.762c14.083,-5.787 25.896,-16.237 34.529,-28.675c19.238,-27.708 24.996,-65.925 20.854,-98.904c-3.825,-30.467 -18.054,-59.058 -42.596,-77.983c-22.883,-17.646 -52.112,-27.067 -80.971,-26.408c-30.917,0.712 -69.067,13.446 -81.571,44.667c-3.196,7.979 -4.546,16.4 -2.696,24.85Z" style="fill:#d4899a;"/><path d="M288.017,305.719c5.158,4.583 13.775,7.575 20.142,3.617c4.854,-3.017 7.658,-8.875 8.896,-14.171c1.154,-4.937 1.433,-10.404 -3.3,-13.679c-3.292,-2.279 -8.029,-2.067 -10.538,1.321c-2.467,3.329 -1.029,8.746 3.3,9.617c3.988,0.8 7.567,-3.429 5.296,-7.017c-0.354,-0.563 -1.288,-0.354 -1.279,0.342c-0.179,0.875 -0.358,1.746 -0.537,2.617c-4.954,1.633 -6.417,0.738 -4.383,-2.692c-0.162,-2.254 0.746,-3.221 2.729,-2.896c1.271,-0.558 2.375,-0.346 3.321,0.629c3.296,1.65 4.354,6.433 3.05,9.763c-0.787,2.021 -2.979,3.85 -5.062,4.433c-1.929,0.542 -4.233,-0.421 -6.217,-0.7c-3.625,-0.504 -5.896,-1.362 -8.075,-4.375c-2.192,-3.038 -3.7,-6.592 -3.817,-10.367c-0.562,-18.646 20.608,-29.517 20.546,-48.083c0,-0.05 -0.079,-0.067 -0.092,-0.012c-3.263,15.454 -15.2,25.067 -23.842,37.442c-6.933,9.925 -10.429,25.063 -0.138,34.213Z" style="fill:#d4899a;"/><path d="M237.805,292.669c9.217,-2.3 18.387,-5.308 26.858,-9.637c8.304,-4.242 16.008,-9.5 22.758,-15.954c3.217,-3.071 6.183,-6.375 8.879,-9.917c2.567,-3.367 6.283,-7.642 7.104,-11.867c0.025,-0.129 -0.121,-0.225 -0.221,-0.133c-2.467,2.304 -3.975,5.813 -5.983,8.55c-2.687,3.662 -5.687,7.117 -8.9,10.338c-5.983,5.992 -12.821,11.121 -20.237,15.204c-7.137,3.937 -15.054,6.946 -23.125,8.221c-4.246,0.671 -8.987,1.142 -13.254,0.4c-3.863,-0.671 -4.925,-4.204 -8.613,-5.112c-3.221,-0.796 -6.767,1.567 -6.662,5.075c0.342,11.167 14.892,6.454 21.396,4.833Z" style="fill:#d4899a;"/><path d="M204.988,288.686c1.042,0.954 2.329,1.562 3.775,1.562c1.371,0 2.808,-0.6 3.775,-1.562c0.925,-0.929 1.625,-2.446 1.562,-3.779c-0.058,-1.379 -0.513,-2.813 -1.562,-3.775c-1.046,-0.958 -2.329,-1.562 -3.775,-1.562c-1.367,0 -2.804,0.596 -3.775,1.562c-0.925,0.925 -1.621,2.442 -1.562,3.775c0.062,1.383 0.513,2.813 1.562,3.779Z" style="fill:#d4899a;"/><path d="M217.826,218.353c1.813,0 3.546,-1.596 3.467,-3.463c-0.087,-1.879 -1.525,-3.467 -3.467,-3.467c-1.808,0 -3.546,1.596 -3.467,3.467c0.087,1.875 1.529,3.463 3.467,3.463Z" style="fill:#d4899a;"/><path d="M60.971,122.065c8.958,13.454 27.562,15.963 39.975,5.938c7.212,-5.825 10.742,-14.117 12.733,-22.958c2.204,-9.737 3.183,-20.133 10.079,-27.921c0.279,-0.313 -0.154,-0.758 -0.458,-0.458c-8.496,8.467 -9.579,20.721 -13.283,31.567c-4.633,13.579 -17.908,25.792 -33.108,19.904c-6.742,-2.608 -10.917,-9.446 -9.554,-16.742c0.983,-5.283 4.992,-10.988 10.704,-11.521c2.454,-0.225 4.642,0.954 7.013,1.35c3.387,0.575 6.163,1.2 6.313,5.483c0.137,4.062 -2.579,8.221 -6.433,9.533c-2.038,0.692 -4.354,0.646 -6.292,-0.4c-3.137,-1.692 -3.808,-7.958 -0.042,-8.417c-0.121,0.683 -0.133,1.196 -0.154,2.429c-0.042,2.321 3.704,2.308 3.592,0c-0.096,-1.963 -0.104,-2.112 -0.613,-3.992c-0.146,-0.546 -0.679,-0.95 -1.242,-0.95c-4.8,0.004 -8.287,5.071 -5.904,9.508c2.783,5.192 10.192,5.221 14.521,2.167c5.321,-3.746 7.025,-10 6.642,-16.192c-0.575,-9.179 -6.304,-15.017 -15.663,-15.433c-8.692,-0.392 -16.821,5.088 -20.617,12.792c-3.833,7.779 -3.004,17.104 1.792,24.312Z" style="fill:#d4899a;"/><path d="M109.617,127.807c0.308,0.733 0.879,1.558 1.633,1.904c0.646,0.3 1.263,0.592 2.013,0.554c0.742,-0.033 1.317,-0.233 2,-0.554c0.271,-0.204 0.537,-0.417 0.808,-0.625c0.387,-0.358 0.662,-0.787 0.821,-1.279c0.375,-0.879 0.363,-1.646 0.204,-2.596c-0.008,-0.042 -0.017,-0.092 -0.025,-0.142c-0.137,-0.317 -0.271,-0.629 -0.404,-0.946c-0.246,-0.463 -0.588,-0.829 -1.017,-1.113c-0.667,-0.512 -1.529,-0.887 -2.387,-0.846c-0.704,0.033 -1.379,0.213 -2.004,0.537c-0.771,0.408 -1.663,1.483 -1.817,2.367c-0.008,0.05 -0.017,0.1 -0.025,0.142c-0.154,0.917 -0.163,1.717 0.2,2.596Z" style="fill:#d4899a;"/><path d="M176.484,44.557c0.621,-0.213 1.242,-0.421 1.863,-0.625c0.054,-0.017 0.033,-0.108 -0.025,-0.092c-0.621,0.208 -1.238,0.421 -1.858,0.625c-0.058,0.017 -0.033,0.104 0.021,0.092Z" style="fill:#d4899a;"/><path d="M37.138,8.694c-10.846,4.95 -13,18.917 -7.325,28.521c3.3,5.592 8.929,10.129 14.708,12.967c3.171,1.562 6.604,2.375 9.883,3.638c0.504,0.187 3.725,1.225 3.062,0.929c2.533,1.142 4.142,2.233 7.125,2.271c4.642,0.058 8.933,-1.837 13.308,-3.125c3.979,-1.167 8.113,-1.971 12.225,-2.45c2.133,-0.242 4.175,-0.021 6.296,-0.013c1.858,0.008 3.55,-0.275 5.417,0.067c4.642,0.85 7.983,3.9 11.754,6.458c0.692,0.467 1.362,-0.421 1.054,-1.054c-2.525,-5.221 -7.763,-8.9 -12.088,-12.567c-4.871,-4.129 -11.662,-6.713 -18.183,-6.592c-7.108,0.133 -15.633,2.671 -22.063,5.538c-1.304,0.583 -2.504,1.171 -3.629,2.046c-1.692,1.325 -1.667,1.988 -3.462,2.25c-4.063,0.579 -7.412,0.346 -11.375,-1.042c-13.5,-4.717 -22.362,-25.458 -8.258,-35c5.408,-3.667 15.179,-2.621 17.992,3.975c0.979,2.292 0.908,6.717 -1.871,7.967c-1.838,0.829 -4.254,-0.667 -4.967,-2.338c-0.858,-2.004 -4.4,-1.987 -5.267,0c-2.571,5.913 1.55,11.175 7.775,11.675c6.196,0.488 10.521,-5.246 10.3,-11.096c-0.392,-10.621 -13.158,-17.242 -22.412,-13.025Z" style="fill:#d4899a;"/><path d="M37.138,107.323c-10.846,-4.946 -13,-18.908 -7.325,-28.517c3.3,-5.592 8.929,-10.125 14.708,-12.971c3.171,-1.562 6.604,-2.367 9.883,-3.629c0.504,-0.192 3.725,-1.233 3.062,-0.929c2.533,-1.146 4.142,-2.237 7.125,-2.271c4.642,-0.058 8.933,1.833 13.308,3.121c3.979,1.167 8.113,1.967 12.225,2.45c2.133,0.242 4.175,0.017 6.296,0.012c1.858,-0.008 3.55,0.279 5.417,-0.067c4.642,-0.85 7.983,-3.9 11.754,-6.454c0.692,-0.471 1.362,0.417 1.054,1.05c-2.525,5.217 -7.763,8.904 -12.088,12.567c-4.871,4.129 -11.662,6.717 -18.183,6.592c-7.108,-0.138 -15.633,-2.671 -22.063,-5.533c-1.304,-0.583 -2.504,-1.175 -3.629,-2.054c-1.692,-1.317 -1.667,-1.983 -3.462,-2.242c-4.063,-0.583 -7.412,-0.346 -11.375,1.042c-13.5,4.721 -22.362,25.454 -8.258,35c5.408,3.663 15.179,2.621 17.992,-3.979c0.979,-2.288 0.908,-6.717 -1.871,-7.967c-1.838,-0.825 -4.254,0.671 -4.967,2.337c-0.858,2.004 -4.4,1.988 -5.267,0c-2.571,-5.912 1.55,-11.179 7.775,-11.675c6.196,-0.488 10.521,5.246 10.3,11.1c-0.392,10.617 -13.158,17.242 -22.412,13.017Z" style="fill:#d4899a;"/><path d="M8.838,49.148c-1.696,1.663 -2.988,3.762 -4.683,5.396c-1.317,1.271 -3.329,1.529 -4.15,3.187c-0.004,0.012 -0.008,0.033 0,0.046c1.592,2.208 6.225,0.787 8.504,0.492c4.35,-0.567 8.45,-2.2 12.846,-1.933c4.462,0.267 8.233,-0.388 12.612,0.929c3.829,1.154 7.663,2.292 11.608,0.942c0.175,-0.058 0.212,-0.358 0,-0.396c-4.642,-0.888 -9.233,-2.454 -13.025,-5.371c-3.85,-2.962 -5.883,-6.533 -11.196,-7.1c-4.354,-0.463 -9.337,0.679 -12.517,3.808Z" style="fill:#d4899a;"/><path d="M8.838,66.873c-1.696,-1.663 -2.988,-3.758 -4.683,-5.396c-1.317,-1.267 -3.329,-1.525 -4.15,-3.187c-0.004,-0.012 -0.008,-0.029 0,-0.042c1.592,-2.213 6.225,-0.792 8.504,-0.496c4.35,0.571 8.45,2.2 12.846,1.942c4.462,-0.275 8.233,0.379 12.612,-0.938c3.829,-1.154 7.663,-2.292 11.608,-0.937c0.175,0.054 0.212,0.354 0,0.392c-4.642,0.892 -9.233,2.454 -13.025,5.375c-3.85,2.958 -5.883,6.533 -11.196,7.096c-4.354,0.467 -9.337,-0.683 -12.517,-3.808Z" style="fill:#d4899a;"/></svg>