<?xml version="1.0" encoding="UTF-8" standalone="no"?><!DOCTYPE svg PUBLIC "-//W3C//DTD SVG 1.1//EN" "http://www.w3.org/Graphics/SVG/1.1/DTD/svg11.dtd"><svg width="100%" height="100%" viewBox="0 0 2169 221" version="1.1" xmlns="http://www.w3.org/2000/svg" xmlns:xlink="http://www.w3.org/1999/xlink" xml:space="preserve" xmlns:serif="http://www.serif.com/" style="fill-rule:evenodd;clip-rule:evenodd;stroke-linejoin:round;stroke-miterlimit:2;"><g><path d="M951.45,119.067c0.525,0.187 1.05,0.367 1.571,0.55c-0.517,-0.196 -1.038,-0.396 -1.554,-0.604c-0.029,-0.012 -0.05,0.042 -0.017,0.054Z" style="fill:#d4899a;"/><path d="M972.838,125.055c-6.687,-1.3 -13.275,-3.15 -19.817,-5.437c6.35,2.454 13.008,4.267 19.817,5.437Z" style="fill:#d4899a;"/><path d="M996.888,127.217c14.475,-0.271 29.008,-3.229 42.325,-8.946c24.825,-10.663 47.079,-34.254 44.342,-63.092c-1.246,-13.071 -8.15,-24.654 -19.071,-31.971c-10.587,-7.092 -24.392,-8.438 -35.375,-1.467c-10.917,6.929 -18.788,18.075 -18.35,31.396c0.396,11.983 7.546,22.7 19.488,25.821c12.521,3.271 26.638,-5.542 29.317,-18.317c2.904,-13.859 -12.375,-27.663 -25.517,-20.579c-1.217,0.658 -0.637,2.558 0.696,2.558c9.621,0.008 19.083,8.312 19.333,18.062c0.337,12.983 -13.162,20.404 -24.717,16.979c-12.604,-3.733 -19.779,-16.612 -17.554,-29.342c1.075,-6.112 4.025,-11.717 8.388,-16.121c4.317,-4.358 9.517,-6.454 15.417,-7.742c22.475,-4.892 42.533,14.3 43.704,36.121c1.392,25.871 -17.646,46.183 -39.896,56.238c-20.242,9.142 -44.238,12.083 -66.579,8.237c7.862,1.533 15.85,2.317 24.05,2.162Z" style="fill:#d4899a;"/><path d="M749.8,147.205c10.412,1.737 20.658,0.992 30.983,-0.925c11,-2.05 21.742,-5.279 32.221,-9.146c10.517,-3.883 20.783,-8.379 31.738,-10.942c12.088,-2.833 24.562,-3.387 36.929,-2.767c25.683,1.296 50.896,7.496 76.379,10.625c23.108,2.837 47.129,3.688 69.621,-3.304c20.208,-6.279 39.042,-18.675 48.779,-37.954c0.083,-0.158 -0.15,-0.3 -0.238,-0.142c-9.467,17.533 -26.717,29.254 -45.45,35.083c-22.375,6.967 -45.929,5.158 -68.65,0.904c-12.292,-2.3 -24.379,-5.488 -36.617,-8.017c-12.192,-2.512 -24.454,-4.671 -36.85,-5.846c-12.333,-1.175 -24.717,-1.233 -37.004,0.467c-11.312,1.567 -22.175,4.912 -32.708,9.283c-5.858,2.425 -11.479,5.221 -17.217,7.9c-5.471,2.554 -10.662,5.809 -16.238,8.129c-11.292,4.7 -23.367,7.754 -35.646,6.417c-0.133,-0.012 -0.167,0.217 -0.033,0.233Z" style="fill:#d4899a;"/><path d="M715.9,97.55c1.125,23.546 21.487,41.208 44.729,40.679c15.467,-0.354 30.108,-6.437 44.425,-11.675c15.704,-5.742 31.313,-11.913 47.146,-17.308c0.029,-0.012 0.021,-0.071 -0.017,-0.058c-10.975,3.829 -22.158,7.125 -33.212,10.712c-10.663,3.458 -21.283,7.138 -32.046,10.275c-10.433,3.042 -21.471,5.45 -32.325,3.296c-8.7,-1.729 -16.363,-6.384 -22,-13.217c-11.054,-13.4 -11.446,-32.792 -0.563,-46.438c5.35,-6.717 13.317,-11.917 22.158,-11.808c7.929,0.096 14.725,5.754 17.383,13.096c3.1,8.562 -5.296,16.221 -13.658,15.312c-2.338,-0.258 -4.542,-1.284 -6.154,-3.013c-1.733,-1.854 -3.204,-5.813 -1.204,-7.954c1.308,-1.392 2.317,-0.45 3.967,0.304c0.738,0.342 1.362,0.625 2.05,1.05c0.271,0.171 0.496,0.429 0.771,0.596c0.933,0.558 0.433,0.004 0.7,0.4c0.262,0.408 0.842,0.746 1.35,0.55c4.663,-1.796 3.108,-7.817 -0.592,-9.921c-4.262,-2.425 -9.75,-0.388 -11.042,4.35c-2.367,8.658 4.529,16.487 13.333,15.788c8.517,-0.679 15.642,-7.558 16.567,-16.017c1.237,-11.254 -8.125,-20.983 -18.829,-22.825c-24.808,-4.258 -44.029,20.896 -42.937,43.825Z" style="fill:#d4899a;"/><path d="M899.409,131.934c3.087,0.771 6.154,1.654 9.217,2.658c-3.013,-1.058 -6.092,-1.938 -9.217,-2.658Z" style="fill:#d4899a;"/><path d="M910.617,135.251c-0.662,-0.225 -1.329,-0.446 -1.992,-0.658c0.662,0.229 1.321,0.467 1.979,0.717c0.033,0.008 0.046,-0.046 0.013,-0.058Z" style="fill:#d4899a;"/><path d="M795.15,188.384c0.592,11.687 6.904,22.033 17.158,27.717c9.508,5.267 21.821,5.983 30.967,-0.513c8.175,-5.804 15.821,-20.142 8.621,-29.429c-5.029,-6.492 -13.942,-11.242 -22.283,-9.491c-9.942,2.091 -16.017,16.329 -6.363,22.804c4.054,2.721 9.383,3.429 13.175,-0.129c3.858,-3.617 4.479,-9.896 0.192,-13.425c-1.804,-1.483 -4.95,0.417 -3.475,2.679c1.783,2.729 1.212,7.454 -1.65,9.283c-4.496,2.863 -9.792,-1.233 -10.696,-5.796c-0.979,-4.95 2.154,-10.229 6.625,-12.291c3.346,-1.542 7.233,-1.359 10.646,-0.125c3.3,1.196 6.825,4.088 7.375,7.796c0.512,3.479 0.296,7.754 -0.829,11.083c-2.342,6.958 -9.096,11.654 -16.35,11.721c-7.433,0.067 -14.671,-3.458 -19.383,-9.171c-5.621,-6.804 -7.4,-16.296 -6.283,-24.883c2.604,-19.987 20.546,-33.283 38.175,-40c18.254,-6.954 39.346,-8.725 58.637,-4.279c-8.746,-2.171 -17.633,-3.354 -26.821,-3.183c-12.879,0.246 -25.738,2.871 -37.621,7.875c-20.867,8.792 -41.063,27.158 -39.817,51.758Z" style="fill:#d4899a;"/><path d="M715.725,182.35c2.2,1.375 4.025,2.992 6.658,3.458c2.237,0.392 4.579,0.538 6.846,0.421c4.467,-0.225 8.917,-1.104 13.192,-2.387c9.192,-2.75 17.55,-7.442 25.496,-12.725c15.829,-10.529 29.742,-24.442 47.654,-31.583c0.163,-0.067 0.104,-0.329 -0.071,-0.271c-17.088,5.758 -31.192,16.883 -46.492,26.075c-7.858,4.721 -16.304,8.546 -25.262,10.625c-4.308,1 -8.683,1.492 -13.113,1.362c-2.187,-0.063 -4.392,-0.208 -6.562,-0.458c-2.404,-0.283 -4.588,0.412 -6.975,0.4c-2.767,-0.021 -3.629,3.675 -1.371,5.083Z" style="fill:#d4899a;"/><path d="M766.284,207.996c0.171,1.917 0.604,3.446 1.713,5.013c0.883,1.25 1.183,2.846 2.254,3.987c0.496,0.525 1.475,0.412 1.817,-0.233c0.592,-1.121 0.254,-2.321 0.646,-3.363c0.242,-0.638 1.029,-1.288 1.321,-1.983c0.375,-0.892 0.492,-1.629 0.617,-2.6c0.408,-3.096 0.379,-6.275 0.621,-9.387c0.483,-6.354 1.267,-12.654 3.525,-18.658c2.312,-6.142 6.225,-11.75 10.633,-16.567c2.208,-2.421 4.604,-4.654 7.158,-6.704c2.504,-2.012 5.508,-3.533 7.854,-5.7c0.025,-0.021 0,-0.054 -0.029,-0.05c-3.113,0.688 -6.096,2.833 -8.675,4.646c-2.625,1.838 -5.096,3.909 -7.396,6.142c-4.917,4.771 -8.846,10.334 -12.433,16.138c-3.567,5.779 -6.762,11.858 -8.483,18.462c-0.896,3.446 -1.454,7.308 -1.142,10.858Z" style="fill:#d4899a;"/><path d="M1030.213,5.563c2.35,1.637 5.45,1.583 8.204,1.758c3.292,0.208 6.521,0.354 9.762,1.012c6.308,1.292 12.421,3.558 17.871,7.008c5.029,3.179 9.388,7 13.158,11.6c4.237,5.158 6.712,10.9 9.142,17.042c0.092,0.246 0.537,0.25 0.504,-0.071c-1.071,-12.587 -9.262,-25.542 -19.154,-33.087c-5.667,-4.329 -12.233,-7.546 -19.192,-9.167c-5.654,-1.317 -16.233,-3.629 -20.588,1.621c-0.638,0.758 -0.529,1.713 0.292,2.283Z" style="fill:#d4899a;"/><path d="M998.371,31.055c0.192,1.804 1.346,3.246 3.262,3.263c2.375,0.017 4.283,-2.063 5.646,-3.734c2.946,-3.617 6.196,-6.925 9.887,-9.792c8.85,-6.888 20.225,-8.992 31.192,-7.021c0.279,0.05 0.388,-0.325 0.121,-0.425c-9.746,-3.537 -20.054,-3.392 -29.879,-0.171c-4.563,1.5 -8.612,3.408 -12.383,6.446c-3.246,2.613 -8.338,6.762 -7.846,11.433Z" style="fill:#d4899a;"/><path d="M982.313,70.771c8.483,4.567 17.362,-6.692 20.6,-13.154c2.354,-4.692 3.267,-9.688 4.825,-14.654c1.621,-5.175 4.188,-9.408 7.662,-13.537c0.192,-0.229 -0.05,-0.613 -0.337,-0.438c-3.396,2.083 -5.854,5.496 -7.871,8.879c-2.337,3.929 -4.517,8 -6.558,12.083c-2.108,4.204 -4.017,8.525 -7.446,11.854c-3.179,3.087 -7.208,3.975 -10.875,6.217c-0.992,0.6 -1.083,2.171 0,2.75Z" style="fill:#d4899a;"/><path d="M951.1,64.959c2.512,11.571 16.117,17.825 26.95,17.954c6.371,0.079 12.7,-1.842 17.796,-5.687c4.946,-3.729 8,-8.487 10.071,-14.267c0.188,-0.517 -0.612,-0.837 -0.875,-0.371c-4.408,7.946 -13.342,13.65 -22.35,14.558c-8.708,0.875 -19.913,-2.858 -23.442,-11.629c-1.696,-4.204 -0.525,-9.021 2.183,-12.529c2.575,-3.346 6.413,-6.387 10.842,-5.404c4.621,1.021 7.558,7.113 4.95,11.317c-1.8,2.904 -6.188,3.925 -8.833,1.521c-2.187,-1.987 -1.425,-5.4 1.079,-6.508c0.175,0.333 0.367,0.65 0.6,0.942c0.221,0.329 0.733,0.208 0.742,-0.2c0.067,-0.596 0.042,-1.192 -0.071,-1.779c-0.067,-0.583 -0.483,-0.9 -1.063,-0.813c-3.254,0.521 -4.95,4.583 -3.525,7.458c1.721,3.475 6.617,3.896 9.608,1.942c3.163,-2.058 4.838,-6.379 4.088,-10.017c-0.929,-4.504 -5.329,-7.442 -9.483,-8.583c-12.808,-3.517 -21.729,10.758 -19.267,22.096Z" style="fill:#d4899a;"/><path d="M702.996,102.859c1.975,8.408 6.329,16.033 12.196,22.329c10.813,11.6 28.158,17.579 43.762,16.55c0.354,-0.021 0.358,-0.558 0,-0.558c-15.587,0.096 -29.721,-7.262 -38.712,-19.888c-4.229,-5.937 -6.883,-12.842 -8.446,-19.925c-0.758,-3.429 -1.021,-6.888 -1.354,-10.371c-0.362,-3.863 -1.433,-7.713 -1.671,-11.558c-0.079,-1.333 -1.925,-2.017 -2.633,-0.717c-2.062,3.771 -3.837,7.004 -4.3,11.379c-0.446,4.233 0.192,8.633 1.158,12.758Z" style="fill:#d4899a;"/><path d="M684.021,192.205c1.275,1.034 1.983,2.304 3.863,3.283c1.604,0.837 3.546,1.154 5.3,1.558c3.771,0.879 7.658,1.4 11.517,1.729c7.579,0.642 15.267,0.012 22.704,-1.529c7.467,-1.546 14.058,-4.542 20.846,-7.892c6.629,-3.271 12.813,-7.113 18.313,-12.088c0.217,-0.196 -0.067,-0.575 -0.313,-0.404c-5.858,4.071 -12.229,7.783 -18.962,10.217c-6.512,2.35 -13.85,3.35 -20.721,3.971c-6.971,0.633 -14.054,0.471 -20.996,-0.454c-3.246,-0.429 -6.45,-1.129 -9.625,-1.925c-1.729,-0.429 -3.475,-1.104 -5.229,-1.379c-0.908,-0.146 -1.875,-0.196 -2.788,-0.042c-0.425,0.021 -0.829,0.133 -1.204,0.321c0.212,-0.146 -0.038,-0.167 -0.758,-0.058c-0.908,-0.008 -1.962,0.512 -2.375,1.363c-0.1,0.212 -0.208,0.429 -0.279,0.658c-0.258,0.854 -0.012,2.083 0.708,2.671Z" style="fill:#d4899a;"/><path d="M1200.234,119.067c-0.525,0.187 -1.046,0.367 -1.571,0.55c0.521,-0.196 1.042,-0.396 1.554,-0.604c0.029,-0.012 0.046,0.042 0.017,0.054Z" style="fill:#d4899a;"/><path d="M1178.85,125.055c6.683,-1.3 13.275,-3.15 19.813,-5.437c-6.35,2.454 -13.004,4.267 -19.813,5.437Z" style="fill:#d4899a;"/><path d="M1154.8,127.217c-14.479,-0.271 -29.013,-3.229 -42.329,-8.946c-24.821,-10.663 -47.083,-34.254 -44.342,-63.092c1.242,-13.071 8.146,-24.654 19.071,-31.971c10.587,-7.092 24.392,-8.438 35.379,-1.467c10.908,6.929 18.788,18.075 18.346,31.396c-0.392,11.983 -7.546,22.7 -19.483,25.821c-12.525,3.271 -26.642,-5.542 -29.321,-18.317c-2.904,-13.859 12.371,-27.663 25.512,-20.579c1.221,0.658 0.646,2.558 -0.692,2.558c-9.621,0.008 -19.083,8.312 -19.333,18.062c-0.333,12.983 13.167,20.404 24.721,16.979c12.604,-3.733 19.779,-16.612 17.546,-29.342c-1.071,-6.112 -4.021,-11.717 -8.383,-16.121c-4.317,-4.358 -9.517,-6.454 -15.421,-7.742c-22.467,-4.892 -42.525,14.3 -43.7,36.121c-1.392,25.871 17.646,46.183 39.896,56.238c20.246,9.142 44.238,12.083 66.583,8.237c-7.867,1.533 -15.858,2.317 -24.05,2.162Z" style="fill:#d4899a;"/><path d="M1401.884,147.205c-10.408,1.737 -20.663,0.992 -30.983,-0.925c-11.004,-2.05 -21.738,-5.279 -32.225,-9.146c-10.508,-3.883 -20.779,-8.379 -31.729,-10.942c-12.092,-2.833 -24.571,-3.387 -36.933,-2.767c-25.683,1.296 -50.9,7.496 -76.379,10.625c-23.108,2.837 -47.133,3.688 -69.621,-3.304c-20.208,-6.279 -39.038,-18.675 -48.783,-37.954c-0.083,-0.158 0.154,-0.3 0.242,-0.142c9.471,17.533 26.717,29.254 45.45,35.083c22.375,6.967 45.933,5.158 68.654,0.904c12.283,-2.3 24.375,-5.488 36.613,-8.017c12.192,-2.512 24.454,-4.671 36.854,-5.846c12.329,-1.175 24.712,-1.233 36.996,0.467c11.321,1.567 22.179,4.912 32.712,9.283c5.858,2.425 11.479,5.221 17.213,7.9c5.479,2.554 10.671,5.809 16.246,8.129c11.283,4.7 23.363,7.754 35.642,6.417c0.133,-0.012 0.167,0.217 0.033,0.233Z" style="fill:#d4899a;"/><path d="M1435.784,97.55c-1.125,23.546 -21.487,41.208 -44.729,40.679c-15.467,-0.354 -30.108,-6.437 -44.425,-11.675c-15.704,-5.742 -31.308,-11.913 -47.142,-17.308c-0.038,-0.012 -0.021,-0.071 0.013,-0.058c10.975,3.829 22.158,7.125 33.212,10.712c10.667,3.458 21.283,7.138 32.05,10.275c10.429,3.042 21.467,5.45 32.321,3.296c8.704,-1.729 16.363,-6.384 22,-13.217c11.05,-13.4 11.442,-32.792 0.567,-46.438c-5.358,-6.717 -13.321,-11.917 -22.158,-11.808c-7.933,0.096 -14.729,5.754 -17.388,13.096c-3.104,8.562 5.296,16.221 13.662,15.312c2.333,-0.258 4.542,-1.284 6.15,-3.013c1.733,-1.854 3.204,-5.813 1.2,-7.954c-1.3,-1.392 -2.313,-0.45 -3.958,0.304c-0.742,0.342 -1.371,0.625 -2.054,1.05c-0.271,0.171 -0.496,0.429 -0.771,0.596c-0.929,0.558 -0.433,0.004 -0.696,0.4c-0.271,0.408 -0.846,0.746 -1.354,0.55c-4.663,-1.796 -3.108,-7.817 0.587,-9.921c4.271,-2.425 9.754,-0.388 11.046,4.35c2.367,8.658 -4.533,16.487 -13.333,15.788c-8.521,-0.679 -15.642,-7.558 -16.567,-16.017c-1.237,-11.254 8.125,-20.983 18.829,-22.825c24.804,-4.258 44.025,20.896 42.937,43.825Z" style="fill:#d4899a;"/><path d="M1252.275,131.934c-3.083,0.771 -6.154,1.654 -9.212,2.658c3.008,-1.058 6.087,-1.938 9.212,-2.658Z" style="fill:#d4899a;"/><path d="M1241.067,135.251c0.662,-0.225 1.329,-0.446 1.996,-0.658c-0.662,0.229 -1.329,0.467 -1.983,0.717c-0.033,0.008 -0.046,-0.046 -0.013,-0.058Z" style="fill:#d4899a;"/><path d="M1356.534,188.384c-0.592,11.687 -6.9,22.033 -17.158,27.717c-9.508,5.267 -21.821,5.983 -30.967,-0.513c-8.175,-5.804 -15.825,-20.142 -8.621,-29.429c5.033,-6.492 13.946,-11.242 22.283,-9.491c9.942,2.091 16.017,16.329 6.363,22.804c-4.054,2.721 -9.383,3.429 -13.175,-0.129c-3.858,-3.617 -4.479,-9.896 -0.196,-13.425c1.812,-1.483 4.954,0.417 3.475,2.679c-1.779,2.729 -1.208,7.454 1.658,9.283c4.492,2.863 9.787,-1.233 10.692,-5.796c0.979,-4.95 -2.154,-10.229 -6.625,-12.291c-3.342,-1.542 -7.233,-1.359 -10.646,-0.125c-3.304,1.196 -6.825,4.088 -7.371,7.796c-0.517,3.479 -0.296,7.754 0.821,11.083c2.35,6.958 9.104,11.654 16.35,11.721c7.433,0.067 14.675,-3.458 19.392,-9.171c5.617,-6.804 7.4,-16.296 6.279,-24.883c-2.6,-19.987 -20.546,-33.283 -38.175,-40c-18.254,-6.954 -39.346,-8.725 -58.637,-4.279c8.742,-2.171 17.629,-3.354 26.817,-3.183c12.883,0.246 25.746,2.871 37.625,7.875c20.871,8.792 41.058,27.158 39.817,51.758Z" style="fill:#d4899a;"/><path d="M1435.963,182.35c-2.204,1.375 -4.029,2.992 -6.658,3.458c-2.242,0.392 -4.583,0.538 -6.846,0.421c-4.471,-0.225 -8.917,-1.104 -13.2,-2.387c-9.192,-2.75 -17.546,-7.442 -25.496,-12.725c-15.825,-10.529 -29.737,-24.442 -47.65,-31.583c-0.163,-0.067 -0.1,-0.329 0.071,-0.271c17.083,5.758 31.196,16.883 46.492,26.075c7.858,4.721 16.308,8.546 25.262,10.625c4.308,1 8.687,1.492 13.108,1.362c2.192,-0.063 4.396,-0.208 6.571,-0.458c2.4,-0.283 4.583,0.412 6.967,0.4c2.767,-0.021 3.638,3.675 1.379,5.083Z" style="fill:#d4899a;"/><path d="M1385.4,207.996c-0.171,1.917 -0.6,3.446 -1.713,5.013c-0.887,1.25 -1.183,2.846 -2.258,3.987c-0.492,0.525 -1.475,0.412 -1.817,-0.233c-0.587,-1.121 -0.25,-2.321 -0.642,-3.363c-0.242,-0.638 -1.025,-1.288 -1.317,-1.983c-0.375,-0.892 -0.496,-1.629 -0.621,-2.6c-0.408,-3.096 -0.383,-6.275 -0.617,-9.387c-0.488,-6.354 -1.275,-12.654 -3.533,-18.658c-2.308,-6.142 -6.225,-11.75 -10.625,-16.567c-2.208,-2.421 -4.608,-4.654 -7.162,-6.704c-2.5,-2.012 -5.508,-3.533 -7.854,-5.7c-0.025,-0.021 0,-0.054 0.025,-0.05c3.121,0.688 6.096,2.833 8.683,4.646c2.625,1.838 5.092,3.909 7.392,6.142c4.912,4.771 8.846,10.334 12.429,16.138c3.571,5.779 6.762,11.858 8.487,18.462c0.896,3.446 1.458,7.308 1.142,10.858Z" style="fill:#d4899a;"/><path d="M1121.471,5.563c-2.35,1.637 -5.454,1.583 -8.208,1.758c-3.288,0.208 -6.517,0.354 -9.754,1.012c-6.317,1.292 -12.429,3.558 -17.879,7.008c-5.021,3.179 -9.379,7 -13.158,11.6c-4.229,5.158 -6.708,10.9 -9.133,17.042c-0.1,0.246 -0.537,0.25 -0.512,-0.071c1.075,-12.587 9.267,-25.542 19.154,-33.087c5.671,-4.329 12.242,-7.546 19.196,-9.167c5.658,-1.317 16.238,-3.629 20.592,1.621c0.629,0.758 0.525,1.713 -0.296,2.283Z" style="fill:#d4899a;"/><path d="M1153.313,31.055c-0.187,1.804 -1.346,3.246 -3.258,3.263c-2.383,0.017 -4.287,-2.063 -5.65,-3.734c-2.946,-3.617 -6.2,-6.925 -9.887,-9.792c-8.85,-6.888 -20.221,-8.992 -31.196,-7.021c-0.279,0.05 -0.383,-0.325 -0.117,-0.425c9.742,-3.537 20.058,-3.392 29.875,-0.171c4.567,1.5 8.621,3.408 12.387,6.446c3.242,2.613 8.338,6.762 7.846,11.433Z" style="fill:#d4899a;"/><path d="M1169.367,70.771c-8.479,4.567 -17.358,-6.692 -20.592,-13.154c-2.354,-4.692 -3.267,-9.688 -4.825,-14.654c-1.625,-5.175 -4.192,-9.408 -7.671,-13.537c-0.192,-0.229 0.054,-0.613 0.342,-0.438c3.396,2.083 5.854,5.496 7.871,8.879c2.333,3.929 4.517,8 6.562,12.083c2.108,4.204 4.017,8.525 7.442,11.854c3.179,3.087 7.204,3.975 10.871,6.217c0.992,0.6 1.083,2.171 0,2.75Z" style="fill:#d4899a;"/><path d="M1200.584,64.959c-2.512,11.571 -16.117,17.825 -26.95,17.954c-6.371,0.079 -12.696,-1.842 -17.796,-5.687c-4.946,-3.729 -8,-8.487 -10.075,-14.267c-0.183,-0.517 0.617,-0.837 0.875,-0.371c4.417,7.946 13.342,13.65 22.354,14.558c8.704,0.875 19.917,-2.858 23.442,-11.629c1.696,-4.204 0.525,-9.021 -2.179,-12.529c-2.575,-3.346 -6.417,-6.387 -10.846,-5.404c-4.621,1.021 -7.563,7.113 -4.95,11.317c1.804,2.904 6.188,3.925 8.833,1.521c2.187,-1.987 1.429,-5.4 -1.079,-6.508c-0.175,0.333 -0.367,0.65 -0.6,0.942c-0.221,0.329 -0.729,0.208 -0.742,-0.2c-0.071,-0.596 -0.042,-1.192 0.075,-1.779c0.067,-0.583 0.475,-0.9 1.058,-0.813c3.254,0.521 4.946,4.583 3.525,7.458c-1.717,3.475 -6.617,3.896 -9.613,1.942c-3.163,-2.058 -4.838,-6.379 -4.088,-10.017c0.929,-4.504 5.329,-7.442 9.492,-8.583c12.8,-3.517 21.725,10.758 19.262,22.096Z" style="fill:#d4899a;"/><path d="M1448.684,102.859c-1.975,8.408 -6.325,16.033 -12.192,22.329c-10.813,11.6 -28.158,17.579 -43.758,16.55c-0.354,-0.021 -0.367,-0.558 0,-0.558c15.583,0.096 29.721,-7.262 38.704,-19.888c4.229,-5.937 6.883,-12.842 8.45,-19.925c0.762,-3.429 1.021,-6.888 1.35,-10.371c0.367,-3.863 1.433,-7.713 1.675,-11.558c0.079,-1.333 1.925,-2.017 2.633,-0.717c2.062,3.771 3.833,7.004 4.3,11.379c0.446,4.233 -0.187,8.633 -1.162,12.758Z" style="fill:#d4899a;"/><path d="M1467.659,192.205c-1.275,1.034 -1.975,2.304 -3.863,3.283c-1.596,0.837 -3.542,1.154 -5.296,1.558c-3.775,0.879 -7.658,1.4 -11.521,1.729c-7.571,0.642 -15.262,0.012 -22.7,-1.529c-7.462,-1.546 -14.058,-4.542 -20.846,-7.892c-6.633,-3.271 -12.808,-7.113 -18.308,-12.088c-0.221,-0.196 0.063,-0.575 0.308,-0.404c5.858,4.071 12.225,7.783 18.962,10.217c6.512,2.35 13.846,3.35 20.721,3.971c6.975,0.633 14.05,0.471 20.992,-0.454c3.25,-0.429 6.45,-1.129 9.629,-1.925c1.729,-0.429 3.475,-1.104 5.233,-1.379c0.904,-0.146 1.875,-0.196 2.788,-0.042c0.425,0.021 0.821,0.133 1.2,0.321c-0.208,-0.146 0.038,-0.167 0.754,-0.058c0.917,-0.008 1.967,0.512 2.379,1.363c0.104,0.212 0.204,0.429 0.275,0.658c0.263,0.854 0.021,2.083 -0.708,2.671Z" style="fill:#d4899a;"/><path d="M2129.777,203.736c4.475,-3.05 6.429,-7.533 6.512,-11.887c0.167,-8.575 -5.7,-17.321 -13.113,-23.8c-8.671,-7.592 -20.242,-12.217 -33.512,-14.021c-0.029,-0.004 -0.046,0.037 -0.012,0.042c17.129,2.346 32.596,12.004 39.046,23.604c3.304,5.95 4.933,13.721 0.058,19.475c-3.542,4.183 -13.492,6.967 -17.679,1.8c-1.133,-1.396 -2.292,-2.625 -2.479,-4.283c-0.221,-1.921 0.679,-4.237 2.892,-5.442c2.325,-1.267 5.817,-1.175 7.729,0.479c0.925,0.796 1.554,2.237 0.446,3.142c-0.854,0.688 -1.708,0.388 -2.842,0.183c-4.713,-0.879 -5.204,4.808 -0.833,4.471c2.988,-0.238 4.108,-1.271 5.3,-3.133c0.929,-1.454 1.408,-3.183 0.392,-4.671c-2.075,-3.046 -7.733,-3.662 -11.575,-2.188c-5.454,2.092 -7.892,6.134 -7.763,10.45c0.137,4.471 4.875,8.217 10.829,9.296c5.988,1.075 12.2,-0.508 16.604,-3.517Z" style="fill:#d4899a;"/><path d="M2146.452,187.407c5.058,-1.442 5.496,-5.354 3.921,-8.646c-3.096,-6.462 -9.792,-11.712 -17.225,-15.762c-4.112,-2.25 -8.475,-4.317 -13.096,-5.979c-4.708,-1.7 -9.433,-2.658 -14.579,-3.383c-0.025,0 -0.038,0.017 -0.012,0.025c8.958,2.079 18.054,5.9 24.387,10.958c3.308,2.633 5.817,5.5 8.187,8.596c2.142,2.804 5.075,5.988 5.104,9.279c0.004,0.779 0.208,1.567 0.2,2.333c-0.008,0.55 -0.35,1.054 -0.167,1.617c0.371,1.125 1.946,1.346 3.279,0.962Z" style="fill:#d4899a;"/><path d="M2156.569,168.173c-0.7,-1.567 -2.379,-2.75 -4.171,-3.779c3.496,0.459 7.162,0.371 9.8,-1.237c0.208,-0.129 0.363,-0.279 0.483,-0.433c1.054,-0.233 2.071,-0.583 3.042,-1.092c3.442,-1.8 4.737,-6.746 -0.092,-8.088c-1.646,-0.458 -3.708,-0.287 -4.9,0.709c-1.129,0.937 -1.304,2.608 0.233,3.392c1.204,0.621 3.221,0.425 3.742,-0.667c0.508,-1.058 -0.8,-2.333 -2.325,-1.821c-0.271,0.092 -0.15,0.35 0.075,0.412c-0.462,0.125 -0.929,0.242 -1.396,0.358c0.35,-0.429 0.696,-0.875 1.042,-1.313c0.383,-0.238 1.179,-0.304 1.662,-0.292c1.342,0.021 2.621,0.683 2.967,1.633c0.638,1.75 -1.433,3.171 -3.563,3.625c-3.925,0.837 -8.583,-0.65 -12.317,-1.429c-8.275,-1.737 -17.221,-2.783 -25.833,-1.942c-0.525,0.05 -0.333,0.592 0.117,0.621c0.662,0.05 1.325,0.108 1.983,0.179c-0.008,0.063 0.025,0.129 0.112,0.163c4.542,1.617 9.742,3.071 13.454,5.642c1.838,1.267 3.588,2.679 5.296,4.042c1.708,1.363 3.217,3.279 5.504,4.142c2.533,0.958 6.058,-0.642 5.083,-2.825Z" style="fill:#d4899a;"/><path d="M2129.777,104.544c4.475,3.054 6.429,7.529 6.512,11.892c0.167,8.571 -5.7,17.321 -13.113,23.804c-8.671,7.583 -20.242,12.204 -33.512,14.013c-0.029,0.008 -0.046,-0.033 -0.012,-0.042c17.129,-2.346 32.596,-12.004 39.046,-23.604c3.304,-5.95 4.933,-13.717 0.058,-19.475c-3.542,-4.188 -13.492,-6.963 -17.679,-1.796c-1.133,1.396 -2.292,2.625 -2.479,4.283c-0.221,1.921 0.679,4.238 2.892,5.446c2.325,1.254 5.817,1.171 7.729,-0.483c0.925,-0.804 1.554,-2.237 0.446,-3.137c-0.854,-0.696 -1.708,-0.4 -2.842,-0.183c-4.713,0.875 -5.204,-4.817 -0.833,-4.475c2.988,0.238 4.108,1.267 5.3,3.129c0.929,1.454 1.408,3.183 0.392,4.675c-2.075,3.038 -7.733,3.658 -11.575,2.188c-5.454,-2.096 -7.892,-6.134 -7.763,-10.45c0.137,-4.471 4.875,-8.221 10.829,-9.296c5.988,-1.079 12.2,0.508 16.604,3.513Z" style="fill:#d4899a;"/><path d="M2146.452,120.877c5.058,1.442 5.496,5.354 3.921,8.642c-3.096,6.463 -9.792,11.713 -17.225,15.767c-4.112,2.246 -8.475,4.313 -13.096,5.975c-4.708,1.704 -9.433,2.658 -14.579,3.387c-0.025,0.004 -0.038,-0.021 -0.012,-0.029c8.958,-2.079 18.054,-5.9 24.387,-10.954c3.308,-2.637 5.817,-5.5 8.187,-8.596c2.142,-2.8 5.075,-5.992 5.104,-9.283c0.004,-0.779 0.208,-1.562 0.2,-2.333c-0.008,-0.546 -0.35,-1.054 -0.167,-1.612c0.371,-1.129 1.946,-1.346 3.279,-0.963Z" style="fill:#d4899a;"/><path d="M2156.569,140.107c-0.7,1.571 -2.379,2.754 -4.171,3.783c3.496,-0.463 7.162,-0.371 9.8,1.237c0.208,0.125 0.363,0.271 0.483,0.433c1.054,0.233 2.071,0.583 3.042,1.092c3.442,1.796 4.737,6.746 -0.092,8.088c-1.646,0.458 -3.708,0.287 -4.9,-0.709c-1.129,-0.941 -1.304,-2.612 0.233,-3.396c1.204,-0.621 3.221,-0.429 3.742,0.671c0.508,1.058 -0.8,2.333 -2.325,1.817c-0.271,-0.092 -0.15,-0.35 0.075,-0.408c-0.462,-0.121 -0.929,-0.246 -1.396,-0.367c0.35,0.438 0.696,0.879 1.042,1.317c0.383,0.238 1.179,0.304 1.662,0.296c1.342,-0.025 2.621,-0.683 2.967,-1.638c0.638,-1.75 -1.433,-3.167 -3.563,-3.621c-3.925,-0.846 -8.583,0.646 -12.317,1.429c-8.275,1.733 -17.221,2.788 -25.833,1.942c-0.525,-0.05 -0.333,-0.596 0.117,-0.629c0.662,-0.042 1.325,-0.1 1.983,-0.171c-0.008,-0.067 0.025,-0.129 0.112,-0.163c4.542,-1.617 9.742,-3.075 13.454,-5.637c1.838,-1.271 3.588,-2.688 5.296,-4.05c1.708,-1.362 3.217,-3.275 5.504,-4.137c2.533,-0.963 6.058,0.638 5.083,2.821Z" style="fill:#d4899a;"/><path d="M2092.81,179.936c2.746,-2.637 0.637,-6.4 -0.646,-9.233c-0.542,-1.204 -1.167,-2.338 -1.879,-3.417c2.012,1.092 4.917,2.317 7.229,1.808c2.029,-0.433 5.071,-2.429 6.392,-3.938c0.121,-0.138 -0.029,-0.321 -0.192,-0.242c-1.704,0.763 -3.008,1.271 -4.867,0.746c-1.063,-0.308 -1.875,-0.504 -3,-0.6c-2.804,-0.25 -5.471,-1.213 -7.917,-2.542c-3.875,-2.1 -7.388,-5.296 -11.579,-6.813c-0.792,-0.475 -1.617,-0.875 -2.475,-1.188c-2.154,-1.404 -4.537,-2.463 -6.912,-2.967c-0.171,-0.042 -0.288,0.192 -0.121,0.279c5.108,2.679 8.204,6.6 9.275,12.154c0.208,1.067 0.358,2.146 0.325,3.229c-0.029,1.1 -0.308,2.15 0.15,3.204c0.35,0.817 0.942,0.667 -0.137,1.117c-1.375,0.579 -3.088,0.204 -4.229,-0.608c-0.767,-0.542 -1.321,-1.238 -1.767,-2.05c-0.179,-0.408 -0.358,-0.813 -0.537,-1.221c0.354,-2.383 0.625,-2.946 0.813,-1.7c0.292,1.321 1.983,1.225 2.671,0.342c1.225,-1.587 -0.067,-4.021 -2.204,-3.721c-1.662,0.246 -2.646,2.158 -2.521,3.642c0.167,1.992 1.5,4.141 3.075,5.383c1.933,1.517 3.817,1.346 6.063,0.8c1.137,-0.271 2.392,-0.287 3.292,-1.108c0.479,-0.433 0.792,-0.992 0.987,-1.596c0.908,2.292 2.063,4.496 2.929,6.804c0.721,1.925 1.375,3.767 3.629,4.409c1.525,0.446 3.013,0.125 4.154,-0.975Z" style="fill:#d4899a;"/><path d="M2092.81,128.34c2.746,2.646 0.637,6.404 -0.646,9.237c-0.542,1.204 -1.167,2.346 -1.879,3.417c2.012,-1.087 4.917,-2.308 7.229,-1.812c2.029,0.442 5.071,2.429 6.392,3.946c0.121,0.134 -0.029,0.317 -0.192,0.246c-1.704,-0.771 -3.008,-1.275 -4.867,-0.75c-1.063,0.3 -1.875,0.504 -3,0.596c-2.804,0.25 -5.471,1.217 -7.917,2.542c-3.875,2.104 -7.388,5.3 -11.579,6.821c-0.792,0.462 -1.617,0.871 -2.475,1.183c-2.154,1.408 -4.537,2.458 -6.912,2.971c-0.171,0.029 -0.288,-0.196 -0.121,-0.288c5.108,-2.679 8.204,-6.6 9.275,-12.15c0.208,-1.071 0.358,-2.146 0.325,-3.237c-0.029,-1.092 -0.308,-2.142 0.15,-3.2c0.35,-0.813 0.942,-0.662 -0.137,-1.117c-1.375,-0.579 -3.088,-0.204 -4.229,0.604c-0.767,0.546 -1.321,1.246 -1.767,2.054c-0.179,0.408 -0.358,0.817 -0.537,1.225c0.354,2.383 0.625,2.946 0.813,1.704c0.292,-1.329 1.983,-1.229 2.671,-0.342c1.225,1.583 -0.067,4.017 -2.204,3.712c-1.662,-0.238 -2.646,-2.15 -2.521,-3.637c0.167,-1.992 1.5,-4.146 3.075,-5.392c1.933,-1.513 3.817,-1.338 6.063,-0.796c1.137,0.275 2.392,0.292 3.292,1.108c0.479,0.438 0.792,0.996 0.987,1.596c0.908,-2.292 2.063,-4.492 2.929,-6.804c0.721,-1.925 1.375,-3.762 3.629,-4.412c1.525,-0.438 3.013,-0.117 4.154,0.975Z" style="fill:#d4899a;"/><path d="M1671.127,152.178l405.871,0l0,3.929l-405.871,0l0,-3.929Z" style="fill:#d4899a;"/><path d="M2076.998,159.194c-2.792,0 -5.05,-2.258 -5.05,-5.05c0,-2.792 2.258,-5.054 5.05,-5.054c2.792,0 5.058,2.263 5.058,5.054c0,2.792 -2.267,5.05 -5.058,5.05Z" style="fill:#d4899a;"/><path d="M2059.315,159.194c-2.792,0 -5.05,-2.258 -5.05,-5.05c0,-2.792 2.258,-5.054 5.05,-5.054c2.792,0 5.054,2.263 5.054,5.054c0,2.792 -2.262,5.05 -5.054,5.05Z" style="fill:#d4899a;"/><path d="M1722.74,159.194c-3.888,0 -7.038,-2.258 -7.038,-5.05c0,-2.792 3.15,-5.054 7.038,-5.054c3.887,0 7.042,2.263 7.042,5.054c0,2.792 -3.154,5.05 -7.042,5.05Z" style="fill:#d4899a;"/><path d="M1674.648,162.144c-6.158,0 -11.146,-3.588 -11.146,-8c0,-4.421 4.987,-8 11.146,-8c6.15,0 11.146,3.579 11.146,8c0,4.412 -4.996,8 -11.146,8Z" style="fill:#d4899a;"/><path d="M2041.631,162.144c-4.421,0 -8,-3.588 -8,-8c0,-4.421 3.579,-8 8,-8c4.417,0 8,3.579 8,8c0,4.412 -3.583,8 -8,8Z" style="fill:#d4899a;"/><path d="M2093.002,162.144c-4.417,0 -8,-3.588 -8,-8c0,-4.421 3.583,-8 8,-8c4.417,0 8,3.579 8,8c0,4.412 -3.583,8 -8,8Z" style="fill:#d4899a;"/><path d="M39.018,104.041c-4.475,3.05 -6.429,7.533 -6.512,11.887c-0.167,8.575 5.7,17.321 13.113,23.8c8.671,7.592 20.242,12.217 33.512,14.021c0.029,0.004 0.046,-0.037 0.012,-0.042c-17.129,-2.346 -32.596,-12.004 -39.046,-23.604c-3.304,-5.95 -4.933,-13.721 -0.058,-19.475c3.542,-4.183 13.492,-6.967 17.679,-1.8c1.133,1.396 2.292,2.625 2.479,4.283c0.221,1.921 -0.679,4.237 -2.892,5.442c-2.325,1.267 -5.817,1.175 -7.729,-0.479c-0.925,-0.796 -1.554,-2.237 -0.446,-3.142c0.854,-0.688 1.708,-0.388 2.842,-0.183c4.713,0.879 5.204,-4.808 0.833,-4.471c-2.988,0.238 -4.108,1.271 -5.3,3.133c-0.929,1.454 -1.408,3.183 -0.392,4.671c2.075,3.046 7.733,3.662 11.575,2.188c5.454,-2.092 7.892,-6.134 7.763,-10.45c-0.137,-4.471 -4.875,-8.217 -10.829,-9.296c-5.988,-1.075 -12.2,0.508 -16.604,3.517Z" style="fill:#d4899a;"/><path d="M22.343,120.37c-5.058,1.442 -5.496,5.354 -3.921,8.646c3.096,6.462 9.792,11.712 17.225,15.762c4.112,2.25 8.475,4.317 13.096,5.979c4.708,1.7 9.433,2.658 14.579,3.383c0.025,0 0.038,-0.017 0.012,-0.025c-8.958,-2.079 -18.054,-5.9 -24.387,-10.958c-3.308,-2.633 -5.817,-5.5 -8.187,-8.596c-2.142,-2.804 -5.075,-5.988 -5.104,-9.279c-0.004,-0.779 -0.208,-1.567 -0.2,-2.333c0.008,-0.55 0.35,-1.054 0.167,-1.617c-0.371,-1.125 -1.946,-1.346 -3.279,-0.962Z" style="fill:#d4899a;"/><path d="M12.226,139.604c0.7,1.567 2.379,2.75 4.171,3.779c-3.496,-0.459 -7.162,-0.371 -9.8,1.237c-0.208,0.129 -0.363,0.279 -0.483,0.433c-1.054,0.233 -2.071,0.583 -3.042,1.092c-3.442,1.8 -4.737,6.746 0.092,8.088c1.646,0.458 3.708,0.287 4.9,-0.709c1.129,-0.937 1.304,-2.608 -0.233,-3.392c-1.204,-0.621 -3.221,-0.425 -3.742,0.667c-0.508,1.058 0.8,2.333 2.325,1.821c0.271,-0.092 0.15,-0.35 -0.075,-0.412c0.462,-0.125 0.929,-0.242 1.396,-0.358c-0.35,0.429 -0.696,0.875 -1.042,1.313c-0.383,0.238 -1.179,0.304 -1.662,0.292c-1.342,-0.021 -2.621,-0.683 -2.967,-1.633c-0.638,-1.75 1.433,-3.171 3.563,-3.625c3.925,-0.837 8.583,0.65 12.317,1.429c8.275,1.737 17.221,2.783 25.833,1.942c0.525,-0.05 0.333,-0.592 -0.117,-0.621c-0.662,-0.05 -1.325,-0.108 -1.983,-0.179c0.008,-0.063 -0.025,-0.129 -0.112,-0.163c-4.542,-1.617 -9.742,-3.071 -13.454,-5.642c-1.838,-1.267 -3.588,-2.679 -5.296,-4.042c-1.708,-1.363 -3.217,-3.279 -5.504,-4.142c-2.533,-0.958 -6.058,0.642 -5.083,2.825Z" style="fill:#d4899a;"/><path d="M39.018,203.233c-4.475,-3.054 -6.429,-7.529 -6.512,-11.892c-0.167,-8.571 5.7,-17.321 13.113,-23.804c8.671,-7.583 20.242,-12.204 33.512,-14.013c0.029,-0.008 0.046,0.033 0.012,0.042c-17.129,2.346 -32.596,12.004 -39.046,23.604c-3.304,5.95 -4.933,13.717 -0.058,19.475c3.542,4.188 13.492,6.963 17.679,1.796c1.133,-1.396 2.292,-2.625 2.479,-4.283c0.221,-1.921 -0.679,-4.238 -2.892,-5.446c-2.325,-1.254 -5.817,-1.171 -7.729,0.483c-0.925,0.804 -1.554,2.237 -0.446,3.137c0.854,0.696 1.708,0.4 2.842,0.183c4.713,-0.875 5.204,4.817 0.833,4.475c-2.988,-0.238 -4.108,-1.267 -5.3,-3.129c-0.929,-1.454 -1.408,-3.183 -0.392,-4.675c2.075,-3.038 7.733,-3.658 11.575,-2.188c5.454,2.096 7.892,6.134 7.763,10.45c-0.137,4.471 -4.875,8.221 -10.829,9.296c-5.988,1.079 -12.2,-0.508 -16.604,-3.513Z" style="fill:#d4899a;"/><path d="M22.343,186.899c-5.058,-1.442 -5.496,-5.354 -3.921,-8.642c3.096,-6.463 9.792,-11.713 17.225,-15.767c4.112,-2.246 8.475,-4.313 13.096,-5.975c4.708,-1.704 9.433,-2.658 14.579,-3.387c0.025,-0.004 0.038,0.021 0.012,0.029c-8.958,2.079 -18.054,5.9 -24.387,10.954c-3.308,2.637 -5.817,5.5 -8.187,8.596c-2.142,2.8 -5.075,5.992 -5.104,9.283c-0.004,0.779 -0.208,1.562 -0.2,2.333c0.008,0.546 0.35,1.054 0.167,1.612c-0.371,1.129 -1.946,1.346 -3.279,0.963Z" style="fill:#d4899a;"/><path d="M12.226,167.67c0.7,-1.571 2.379,-2.754 4.171,-3.783c-3.496,0.463 -7.162,0.371 -9.8,-1.237c-0.208,-0.125 -0.363,-0.271 -0.483,-0.433c-1.054,-0.233 -2.071,-0.583 -3.042,-1.092c-3.442,-1.796 -4.737,-6.746 0.092,-8.088c1.646,-0.458 3.708,-0.287 4.9,0.709c1.129,0.941 1.304,2.612 -0.233,3.396c-1.204,0.621 -3.221,0.429 -3.742,-0.671c-0.508,-1.058 0.8,-2.333 2.325,-1.817c0.271,0.092 0.15,0.35 -0.075,0.408c0.462,0.121 0.929,0.246 1.396,0.367c-0.35,-0.438 -0.696,-0.879 -1.042,-1.317c-0.383,-0.238 -1.179,-0.304 -1.662,-0.296c-1.342,0.025 -2.621,0.683 -2.967,1.638c-0.638,1.75 1.433,3.167 3.563,3.621c3.925,0.846 8.583,-0.646 12.317,-1.429c8.275,-1.733 17.221,-2.788 25.833,-1.942c0.525,0.05 0.333,0.596 -0.117,0.629c-0.662,0.042 -1.325,0.1 -1.983,0.171c0.008,0.067 -0.025,0.129 -0.112,0.163c-4.542,1.617 -9.742,3.075 -13.454,5.637c-1.838,1.271 -3.588,2.688 -5.296,4.05c-1.708,1.362 -3.217,3.275 -5.504,4.137c-2.533,0.963 -6.058,-0.638 -5.083,-2.821Z" style="fill:#d4899a;"/><path d="M75.984,127.841c-2.746,2.637 -0.637,6.4 0.646,9.233c0.542,1.204 1.167,2.338 1.879,3.417c-2.012,-1.092 -4.917,-2.317 -7.229,-1.808c-2.029,0.433 -5.071,2.429 -6.392,3.938c-0.121,0.138 0.029,0.321 0.192,0.242c1.704,-0.763 3.008,-1.271 4.867,-0.746c1.063,0.308 1.875,0.504 3,0.6c2.804,0.25 5.471,1.213 7.917,2.542c3.875,2.1 7.388,5.296 11.579,6.813c0.792,0.475 1.617,0.875 2.475,1.188c2.154,1.404 4.537,2.463 6.912,2.967c0.171,0.042 0.288,-0.192 0.121,-0.279c-5.108,-2.679 -8.204,-6.6 -9.275,-12.154c-0.208,-1.067 -0.358,-2.146 -0.325,-3.229c0.029,-1.1 0.308,-2.15 -0.15,-3.204c-0.35,-0.817 -0.942,-0.667 0.137,-1.117c1.375,-0.579 3.088,-0.204 4.229,0.608c0.767,0.542 1.321,1.238 1.767,2.05c0.179,0.408 0.358,0.813 0.537,1.221c-0.354,2.383 -0.625,2.946 -0.813,1.7c-0.292,-1.321 -1.983,-1.225 -2.671,-0.342c-1.225,1.587 0.067,4.021 2.204,3.721c1.662,-0.246 2.646,-2.158 2.521,-3.642c-0.167,-1.992 -1.5,-4.141 -3.075,-5.383c-1.933,-1.517 -3.817,-1.346 -6.063,-0.8c-1.137,0.271 -2.392,0.287 -3.292,1.108c-0.479,0.433 -0.792,0.992 -0.987,1.596c-0.908,-2.292 -2.063,-4.496 -2.929,-6.804c-0.721,-1.925 -1.375,-3.767 -3.629,-4.409c-1.525,-0.446 -3.013,-0.125 -4.154,0.975Z" style="fill:#d4899a;"/><path d="M75.984,179.437c-2.746,-2.646 -0.637,-6.404 0.646,-9.237c0.542,-1.204 1.167,-2.346 1.879,-3.417c-2.012,1.087 -4.917,2.308 -7.229,1.812c-2.029,-0.442 -5.071,-2.429 -6.392,-3.946c-0.121,-0.134 0.029,-0.317 0.192,-0.246c1.704,0.771 3.008,1.275 4.867,0.75c1.063,-0.3 1.875,-0.504 3,-0.596c2.804,-0.25 5.471,-1.217 7.917,-2.542c3.875,-2.104 7.388,-5.3 11.579,-6.821c0.792,-0.462 1.617,-0.871 2.475,-1.183c2.154,-1.408 4.537,-2.458 6.912,-2.971c0.171,-0.029 0.288,0.196 0.121,0.288c-5.108,2.679 -8.204,6.6 -9.275,12.15c-0.208,1.071 -0.358,2.146 -0.325,3.237c0.029,1.092 0.308,2.142 -0.15,3.2c-0.35,0.813 -0.942,0.662 0.137,1.117c1.375,0.579 3.088,0.204 4.229,-0.604c0.767,-0.546 1.321,-1.246 1.767,-2.054c0.179,-0.408 0.358,-0.817 0.537,-1.225c-0.354,-2.383 -0.625,-2.946 -0.813,-1.704c-0.292,1.329 -1.983,1.229 -2.671,0.342c-1.225,-1.583 0.067,-4.017 2.204,-3.712c1.662,0.238 2.646,2.15 2.521,3.637c-0.167,1.992 -1.5,4.146 -3.075,5.392c-1.933,1.513 -3.817,1.338 -6.063,0.796c-1.137,-0.275 -2.392,-0.292 -3.292,-1.108c-0.479,-0.438 -0.792,-0.996 -0.987,-1.596c-0.908,2.292 -2.063,4.492 -2.929,6.804c-0.721,1.925 -1.375,3.762 -3.629,4.412c-1.525,0.438 -3.013,0.117 -4.154,-0.975Z" style="fill:#d4899a;"/><path d="M497.668,155.599l-405.871,0l0,-3.929l405.871,0l0,3.929Z" style="fill:#d4899a;"/><path d="M91.797,148.583c2.792,0 5.05,2.258 5.05,5.05c0,2.792 -2.258,5.054 -5.05,5.054c-2.792,0 -5.058,-2.263 -5.058,-5.054c0,-2.792 2.267,-5.05 5.058,-5.05Z" style="fill:#d4899a;"/><path d="M109.48,148.583c2.792,0 5.05,2.258 5.05,5.05c0,2.792 -2.258,5.054 -5.05,5.054c-2.792,0 -5.054,-2.263 -5.054,-5.054c0,-2.792 2.262,-5.05 5.054,-5.05Z" style="fill:#d4899a;"/><path d="M446.055,148.583c3.888,0 7.038,2.258 7.038,5.05c0,2.792 -3.15,5.054 -7.038,5.054c-3.887,0 -7.042,-2.263 -7.042,-5.054c0,-2.792 3.154,-5.05 7.042,-5.05Z" style="fill:#d4899a;"/><path d="M494.147,145.633c6.158,0 11.146,3.588 11.146,8c0,4.421 -4.987,8 -11.146,8c-6.15,0 -11.146,-3.579 -11.146,-8c0,-4.412 4.996,-8 11.146,-8Z" style="fill:#d4899a;"/><path d="M127.164,145.633c4.421,0 8,3.588 8,8c0,4.421 -3.579,8 -8,8c-4.417,0 -8,-3.579 -8,-8c0,-4.412 3.583,-8 8,-8Z" style="fill:#d4899a;"/><path d="M75.793,145.633c4.417,0 8,3.588 8,8c0,4.421 -3.583,8 -8,8c-4.417,0 -8,-3.579 -8,-8c0,-4.412 3.583,-8 8,-8Z" style="fill:#d4899a;"/></g></svg>