<?xml version="1.0" encoding="UTF-8" standalone="no"?><!DOCTYPE svg PUBLIC "-//W3C//DTD SVG 1.1//EN" "http://www.w3.org/Graphics/SVG/1.1/DTD/svg11.dtd"><svg width="100%" height="100%" viewBox="0 0 754 754" version="1.1" xmlns="http://www.w3.org/2000/svg" xmlns:xlink="http://www.w3.org/1999/xlink" xml:space="preserve" xmlns:serif="http://www.serif.com/" style="fill-rule:evenodd;clip-rule:evenodd;stroke-linejoin:round;stroke-miterlimit:2;"><path d="M606.78,292.703c0.275,-9.246 -4.237,-17.921 -10.562,-24.425c-12.433,-12.791 -31.558,-19.417 -48.983,-21.067c-20.392,-1.933 -39.517,3.579 -56.3,15.046c-0.046,0.029 0,0.1 0.042,0.071c21.696,-14.775 52.371,-17.025 76.308,-6.821c12.275,5.234 25.433,14.934 28.713,28.592c2.387,9.925 -4.117,24.608 -16.171,21.471c-3.258,-0.85 -6.296,-1.429 -8.942,-3.671c-3.058,-2.592 -5.517,-6.963 -4.933,-11.088c0.621,-4.333 4.471,-7.921 8.937,-7.525c2.163,0.191 4.937,1.637 5.092,4.154c0.112,1.917 -1.233,2.392 -2.754,3.288c-6.304,3.729 1.546,12.625 5.696,7.471c2.829,-3.525 2.504,-6.238 1.037,-10.25c-1.15,-3.125 -3.188,-6.183 -6.467,-7.296c-6.675,-2.263 -13.617,2.846 -15.538,9.108c-2.725,8.887 0.629,17.425 7.117,23.642c6.721,6.433 17.283,6.904 25.204,2.146c7.963,-4.787 12.238,-13.729 12.504,-22.846Z" style="fill:#d4899a;"/><path d="M600.505,250.92c3.258,-7.5 -2.042,-13.733 -8.554,-16.892c-12.804,-6.208 -27.658,-6.808 -41.529,-4.867c-7.687,1.079 -15.371,2.684 -22.741,5.15c-7.513,2.513 -13.958,6.133 -20.5,10.537c-0.029,0.021 -0.004,0.067 0.033,0.05c12.592,-6.471 27.896,-10.529 42.079,-9.833c7.4,0.362 14.288,1.904 21.363,3.937c6.404,1.838 14.221,3.409 19.092,8.221c1.158,1.142 2.525,2.083 3.646,3.221c0.8,0.813 1.183,1.925 2.2,2.55c2.054,1.267 4.05,-0.092 4.913,-2.075Z" style="fill:#d4899a;"/><path d="M582.968,211.853c-3.058,-1.558 -6.583,-1.512 -10,-1.125c4.396,-3.046 8.167,-7.075 8.613,-12.246c0.033,-0.412 -0.021,-0.796 -0.125,-1.15c0.784,-1.467 1.346,-3.067 1.633,-4.846c1.017,-6.317 -4.887,-14.979 -12.004,-11.812c-2.417,1.079 -4.367,3.525 -4.171,6.262c0.183,2.583 2.458,5.225 5.242,4.75c2.188,-0.375 4.05,-2.808 3,-4.975c-1.017,-2.096 -4.287,-2.575 -5.154,-0.2c-0.15,0.421 0.358,0.671 0.687,0.529c-0.317,0.671 -0.633,1.342 -0.95,2.012c-0.279,-1.012 -0.554,-2.025 -0.833,-3.042c0.063,-0.754 0.813,-1.7 1.337,-2.204c1.467,-1.392 3.804,-1.779 5.575,-0.75c3.246,1.896 3.133,6.192 1.538,9.129c-2.942,5.417 -10.092,8.179 -15.221,11.004c-11.362,6.258 -22.425,14.237 -30.358,24.646c-0.479,0.633 0.517,1.225 1.042,0.792c0.779,-0.642 1.571,-1.25 2.371,-1.85c0.087,0.1 0.212,0.163 0.362,0.112c7.208,-2.454 14.892,-5.842 22.621,-6.021c3.825,-0.087 7.762,0.134 11.592,0.321c3.825,0.187 8.25,1.396 11.954,0.233c4.1,-1.283 5.508,-7.396 1.25,-9.571Z" style="fill:#d4899a;"/><path d="M460.822,146.741c9.246,-0.271 17.921,4.241 24.421,10.566c12.8,12.433 19.417,31.558 21.067,48.979c1.933,20.392 -3.575,39.517 -15.042,56.3c-0.029,0.042 -0.104,0.004 -0.071,-0.042c14.775,-21.692 17.025,-52.367 6.821,-76.304c-5.233,-12.275 -14.933,-25.433 -28.596,-28.717c-9.921,-2.383 -24.604,4.121 -21.471,16.171c0.85,3.258 1.429,6.3 3.671,8.95c2.592,3.058 6.963,5.508 11.092,4.925c4.329,-0.612 7.912,-4.467 7.521,-8.933c-0.191,-2.162 -1.638,-4.942 -4.146,-5.088c-1.925,-0.117 -2.396,1.225 -3.292,2.746c-3.729,6.308 -12.633,-1.537 -7.471,-5.692c3.521,-2.833 6.233,-2.513 10.246,-1.038c3.133,1.15 6.183,3.183 7.296,6.463c2.267,6.679 -2.846,13.612 -9.104,15.538c-8.892,2.729 -17.429,-0.625 -23.642,-7.113c-6.437,-6.725 -6.908,-17.283 -2.146,-25.204c4.783,-7.963 13.725,-12.242 22.846,-12.508Z" style="fill:#d4899a;"/><path d="M502.601,153.02c7.504,-3.258 13.733,2.038 16.892,8.554c6.213,12.804 6.813,27.658 4.867,41.529c-1.075,7.687 -2.679,15.371 -5.142,22.737c-2.517,7.517 -6.138,13.954 -10.546,20.5c-0.021,0.033 -0.067,0.008 -0.046,-0.029c6.466,-12.592 10.525,-27.9 9.833,-42.083c-0.367,-7.396 -1.904,-14.283 -3.933,-21.367c-1.846,-6.396 -3.412,-14.217 -8.225,-19.087c-1.142,-1.154 -2.083,-2.525 -3.221,-3.646c-0.817,-0.796 -1.925,-1.175 -2.554,-2.196c-1.262,-2.054 0.092,-4.054 2.075,-4.913Z" style="fill:#d4899a;"/><path d="M541.668,170.553c1.562,3.058 1.516,6.583 1.133,10.004c3.033,-4.396 7.071,-8.171 12.238,-8.613c0.417,-0.037 0.8,0.017 1.158,0.125c1.458,-0.779 3.062,-1.35 4.842,-1.633c6.317,-1.016 14.979,4.888 11.813,12.004c-1.079,2.416 -3.529,4.367 -6.263,4.171c-2.579,-0.183 -5.225,-2.458 -4.75,-5.242c0.379,-2.192 2.804,-4.054 4.971,-3.004c2.1,1.017 2.579,4.292 0.2,5.154c-0.421,0.154 -0.671,-0.354 -0.525,-0.687c-0.671,0.317 -1.346,0.633 -2.017,0.954c1.017,0.275 2.029,0.554 3.038,0.829c0.762,-0.058 1.708,-0.808 2.208,-1.337c1.396,-1.463 1.788,-3.804 0.75,-5.567c-1.896,-3.25 -6.187,-3.129 -9.125,-1.542c-5.421,2.942 -8.179,10.092 -11.004,15.217c-6.262,11.367 -14.242,22.433 -24.65,30.358c-0.629,0.483 -1.221,-0.512 -0.788,-1.042c0.633,-0.779 1.25,-1.571 1.846,-2.367c-0.1,-0.087 -0.163,-0.221 -0.108,-0.363c2.454,-7.208 5.838,-14.896 6.017,-22.621c0.092,-3.829 -0.129,-7.771 -0.317,-11.596c-0.187,-3.821 -1.396,-8.246 -0.237,-11.95c1.287,-4.104 7.396,-5.508 9.571,-1.254Z" style="fill:#d4899a;"/><path d="M461.593,204.874c-0.167,5.512 2.525,10.688 6.296,14.567c7.421,7.633 18.825,11.579 29.217,12.567c12.163,1.15 23.571,-2.133 33.587,-8.975c0.021,-0.017 0,-0.063 -0.025,-0.046c-12.942,8.817 -31.238,10.159 -45.517,4.071c-7.321,-3.121 -15.175,-8.908 -17.133,-17.054c-1.421,-5.917 2.458,-14.679 9.646,-12.808c1.95,0.508 3.758,0.854 5.338,2.192c1.825,1.542 3.288,4.15 2.938,6.613c-0.363,2.583 -2.663,4.725 -5.321,4.487c-1.296,-0.116 -2.954,-0.979 -3.042,-2.475c-0.067,-1.146 0.733,-1.429 1.642,-1.963c3.758,-2.225 -0.921,-7.529 -3.396,-4.458c-1.692,2.104 -1.5,3.725 -0.621,6.113c0.683,1.871 1.9,3.692 3.858,4.354c3.983,1.35 8.117,-1.696 9.267,-5.433c1.625,-5.296 -0.375,-10.391 -4.242,-14.1c-4.013,-3.838 -10.313,-4.121 -15.033,-1.279c-4.75,2.854 -7.3,8.188 -7.458,13.629Z" style="fill:#d4899a;"/><path d="M465.33,229.795c-1.942,4.475 1.217,8.187 5.108,10.075c7.633,3.704 16.496,4.063 24.771,2.9c4.583,-0.642 9.167,-1.596 13.563,-3.067c4.479,-1.5 8.325,-3.658 12.225,-6.288c0.021,-0.012 0.004,-0.041 -0.021,-0.029c-7.504,3.858 -16.638,6.279 -25.1,5.866c-4.408,-0.217 -8.521,-1.137 -12.742,-2.35c-3.821,-1.096 -8.483,-2.033 -11.387,-4.904c-0.688,-0.679 -1.504,-1.242 -2.171,-1.925c-0.479,-0.479 -0.7,-1.142 -1.313,-1.517c-1.225,-0.754 -2.417,0.054 -2.934,1.237Z" style="fill:#d4899a;"/><path d="M475.793,253.095c1.821,0.933 3.925,0.904 5.962,0.675c-2.621,1.812 -4.871,4.217 -5.133,7.304c-0.021,0.242 0.012,0.475 0.075,0.688c-0.467,0.871 -0.804,1.825 -0.975,2.887c-0.604,3.771 2.912,8.933 7.158,7.042c1.45,-0.642 2.604,-2.1 2.492,-3.729c-0.112,-1.542 -1.471,-3.121 -3.125,-2.833c-1.308,0.221 -2.421,1.671 -1.796,2.962c0.604,1.254 2.558,1.538 3.079,0.121c0.087,-0.25 -0.217,-0.4 -0.412,-0.313c0.187,-0.4 0.379,-0.8 0.567,-1.204c0.163,0.609 0.329,1.213 0.492,1.817c-0.033,0.45 -0.479,1.012 -0.792,1.313c-0.875,0.833 -2.271,1.063 -3.325,0.446c-1.938,-1.129 -1.867,-3.688 -0.917,-5.442c1.754,-3.233 6.021,-4.879 9.071,-6.562c6.783,-3.733 13.388,-8.496 18.113,-14.7c0.291,-0.383 -0.3,-0.733 -0.621,-0.475c-0.462,0.383 -0.933,0.746 -1.408,1.104c-0.054,-0.063 -0.138,-0.1 -0.221,-0.071c-4.296,1.467 -8.883,3.488 -13.487,3.596c-2.283,0.05 -4.642,-0.079 -6.921,-0.192c-2.283,-0.108 -4.917,-0.833 -7.133,-0.142c-2.442,0.767 -3.279,4.413 -0.742,5.708Z" style="fill:#d4899a;"/><path d="M548.651,291.937c-5.512,0.163 -10.683,-2.533 -14.567,-6.304c-7.633,-7.421 -11.583,-18.825 -12.571,-29.212c-1.15,-12.167 2.138,-23.575 8.975,-33.583c0.021,-0.029 0.063,-0.004 0.046,0.025c-8.813,12.937 -10.159,31.238 -4.071,45.512c3.125,7.321 8.908,15.171 17.059,17.129c5.921,1.421 14.675,-2.458 12.808,-9.646c-0.508,-1.95 -0.85,-3.758 -2.192,-5.338c-1.546,-1.825 -4.154,-3.288 -6.612,-2.938c-2.588,0.367 -4.725,2.663 -4.492,5.325c0.116,1.292 0.979,2.95 2.479,3.038c1.146,0.067 1.425,-0.733 1.963,-1.638c2.221,-3.763 7.529,0.917 4.454,3.392c-2.1,1.692 -3.717,1.5 -6.112,0.621c-1.867,-0.688 -3.692,-1.9 -4.354,-3.854c-1.346,-3.983 1.7,-8.121 5.433,-9.267c5.304,-1.629 10.396,0.371 14.1,4.242c3.842,4.008 4.121,10.308 1.283,15.033c-2.854,4.75 -8.192,7.3 -13.629,7.463Z" style="fill:#d4899a;"/><path d="M523.735,288.191c-4.479,1.941 -8.192,-1.217 -10.079,-5.104c-3.704,-7.638 -4.062,-16.496 -2.904,-24.771c0.646,-4.583 1.6,-9.167 3.071,-13.563c1.496,-4.483 3.663,-8.325 6.283,-12.229c0.013,-0.017 0.042,0 0.034,0.017c-3.858,7.512 -6.284,16.646 -5.867,25.104c0.217,4.413 1.133,8.521 2.35,12.742c1.096,3.816 2.033,8.479 4.9,11.387c0.679,0.688 1.242,1.508 1.921,2.171c0.483,0.479 1.154,0.704 1.521,1.313c0.758,1.229 -0.05,2.417 -1.229,2.934Z" style="fill:#d4899a;"/><path d="M500.43,277.728c-0.933,-1.825 -0.908,-3.925 -0.675,-5.967c-1.817,2.621 -4.221,4.875 -7.304,5.138c-0.246,0.021 -0.475,-0.008 -0.688,-0.075c-0.875,0.467 -1.829,0.804 -2.892,0.975c-3.767,0.604 -8.933,-2.917 -7.042,-7.158c0.642,-1.442 2.1,-2.604 3.733,-2.487c1.542,0.108 3.117,1.467 2.833,3.125c-0.225,1.308 -1.675,2.421 -2.967,1.792c-1.254,-0.608 -1.538,-2.562 -0.121,-3.075c0.254,-0.092 0.404,0.212 0.312,0.412c0.404,-0.192 0.804,-0.384 1.204,-0.571c-0.6,-0.167 -1.204,-0.329 -1.812,-0.496c-0.454,0.038 -1.016,0.483 -1.313,0.796c-0.837,0.875 -1.071,2.271 -0.45,3.325c1.129,1.938 3.692,1.867 5.442,0.917c3.233,-1.754 4.879,-6.017 6.567,-9.075c3.733,-6.775 8.496,-13.379 14.7,-18.108c0.379,-0.287 0.729,0.308 0.471,0.621c-0.379,0.467 -0.746,0.937 -1.1,1.412c0.058,0.054 0.096,0.133 0.063,0.221c-1.458,4.296 -3.483,8.879 -3.587,13.492c-0.05,2.279 0.079,4.633 0.191,6.912c0.108,2.283 0.833,4.921 0.138,7.129c-0.767,2.446 -4.408,3.283 -5.704,0.746Z" style="fill:#d4899a;"/><path d="M190.389,463.153c-0.192,6.333 2.9,12.275 7.233,16.729c8.521,8.762 21.617,13.3 33.558,14.433c13.963,1.321 27.062,-2.45 38.563,-10.304c0.025,-0.025 0,-0.075 -0.033,-0.05c-14.858,10.117 -35.871,11.663 -52.267,4.671c-8.408,-3.583 -17.425,-10.229 -19.671,-19.583c-1.633,-6.8 2.821,-16.854 11.075,-14.708c2.237,0.579 4.312,0.975 6.129,2.512c2.096,1.775 3.779,4.771 3.379,7.596c-0.425,2.967 -3.062,5.425 -6.117,5.154c-1.487,-0.134 -3.392,-1.121 -3.491,-2.846c-0.079,-1.313 0.842,-1.638 1.883,-2.25c4.321,-2.558 -1.054,-8.65 -3.896,-5.117c-1.942,2.413 -1.721,4.271 -0.712,7.017c0.783,2.146 2.179,4.238 4.429,4.996c4.575,1.55 9.317,-1.946 10.637,-6.233c1.867,-6.092 -0.425,-11.937 -4.871,-16.192c-4.608,-4.413 -11.838,-4.738 -17.267,-1.471c-5.45,3.275 -8.379,9.4 -8.562,15.646Z" style="fill:#d4899a;"/><path d="M194.689,491.774c-2.233,5.137 1.396,9.404 5.858,11.571c8.767,4.254 18.946,4.663 28.446,3.333c5.271,-0.742 10.533,-1.837 15.575,-3.525c5.15,-1.721 9.562,-4.2 14.046,-7.221c0.021,-0.012 0.004,-0.046 -0.021,-0.037c-8.629,4.438 -19.108,7.217 -28.829,6.742c-5.063,-0.25 -9.783,-1.304 -14.633,-2.696c-4.387,-1.262 -9.742,-2.337 -13.079,-5.633c-0.788,-0.783 -1.725,-1.429 -2.492,-2.208c-0.55,-0.558 -0.808,-1.317 -1.508,-1.746c-1.4,-0.867 -2.775,0.063 -3.363,1.421Z" style="fill:#d4899a;"/><path d="M206.701,518.533c2.092,1.071 4.508,1.037 6.85,0.775c-3.008,2.079 -5.596,4.846 -5.9,8.388c-0.025,0.283 0.008,0.546 0.083,0.792c-0.533,1 -0.921,2.096 -1.117,3.312c-0.691,4.329 3.346,10.263 8.221,8.092c1.658,-0.738 2.992,-2.412 2.858,-4.287c-0.125,-1.771 -1.683,-3.583 -3.592,-3.254c-1.496,0.258 -2.775,1.921 -2.058,3.404c0.696,1.437 2.942,1.771 3.533,0.142c0.108,-0.292 -0.246,-0.463 -0.471,-0.362c0.217,-0.459 0.433,-0.921 0.654,-1.383c0.188,0.696 0.375,1.392 0.567,2.083c-0.042,0.521 -0.558,1.171 -0.917,1.508c-1,0.958 -2.604,1.225 -3.817,0.517c-2.225,-1.296 -2.142,-4.238 -1.046,-6.25c2.008,-3.712 6.908,-5.604 10.417,-7.538c7.788,-4.287 15.367,-9.754 20.8,-16.883c0.325,-0.433 -0.358,-0.842 -0.717,-0.542c-0.529,0.437 -1.079,0.858 -1.625,1.267c-0.054,-0.071 -0.15,-0.112 -0.246,-0.079c-4.933,1.683 -10.204,4.004 -15.496,4.125c-2.621,0.058 -5.321,-0.092 -7.942,-0.221c-2.617,-0.125 -5.65,-0.954 -8.187,-0.158c-2.808,0.883 -3.771,5.071 -0.854,6.554Z" style="fill:#d4899a;"/><path d="M290.368,563.137c-6.333,0.183 -12.275,-2.908 -16.729,-7.237c-8.758,-8.521 -13.3,-21.617 -14.433,-33.554c-1.321,-13.967 2.454,-27.067 10.312,-38.563c0.017,-0.029 0.063,0 0.046,0.029c-10.121,14.858 -11.667,35.867 -4.675,52.267c3.587,8.408 10.233,17.425 19.587,19.671c6.8,1.633 16.854,-2.821 14.704,-11.075c-0.583,-2.237 -0.975,-4.317 -2.517,-6.129c-1.771,-2.096 -4.763,-3.779 -7.592,-3.375c-2.967,0.421 -5.421,3.058 -5.15,6.117c0.129,1.483 1.117,3.387 2.842,3.487c1.317,0.075 1.638,-0.842 2.254,-1.883c2.554,-4.317 8.646,1.054 5.117,3.896c-2.417,1.946 -4.271,1.725 -7.021,0.712c-2.142,-0.787 -4.238,-2.179 -4.996,-4.425c-1.55,-4.575 1.95,-9.329 6.237,-10.642c6.087,-1.871 11.938,0.425 16.192,4.871c4.408,4.604 4.733,11.838 1.471,17.263c-3.279,5.454 -9.404,8.388 -15.65,8.571Z" style="fill:#d4899a;"/><path d="M261.751,558.837c-5.146,2.229 -9.409,-1.4 -11.575,-5.858c-4.25,-8.771 -4.667,-18.946 -3.333,-28.45c0.742,-5.267 1.837,-10.529 3.525,-15.575c1.721,-5.15 4.204,-9.558 7.221,-14.042c0.012,-0.025 0.046,-0.004 0.037,0.017c-4.433,8.629 -7.217,19.113 -6.738,28.829c0.246,5.067 1.304,9.783 2.696,14.633c1.254,4.383 2.333,9.737 5.629,13.075c0.783,0.792 1.425,1.729 2.208,2.496c0.558,0.55 1.317,0.808 1.746,1.508c0.867,1.408 -0.063,2.775 -1.417,3.367Z" style="fill:#d4899a;"/><path d="M234.989,546.824c-1.071,-2.096 -1.033,-4.513 -0.775,-6.854c-2.083,3.012 -4.842,5.6 -8.383,5.9c-0.283,0.025 -0.546,-0.008 -0.796,-0.083c-0.996,0.533 -2.1,0.921 -3.317,1.116c-4.325,0.696 -10.258,-3.346 -8.083,-8.221c0.738,-1.658 2.412,-2.992 4.287,-2.858c1.767,0.125 3.575,1.688 3.25,3.592c-0.254,1.5 -1.925,2.779 -3.404,2.054c-1.437,-0.696 -1.767,-2.938 -0.138,-3.529c0.283,-0.104 0.459,0.246 0.358,0.471c0.463,-0.217 0.925,-0.433 1.383,-0.654c-0.696,-0.188 -1.392,-0.375 -2.079,-0.567c-0.525,0.042 -1.171,0.554 -1.512,0.912c-0.954,1.004 -1.229,2.608 -0.521,3.821c1.3,2.225 4.242,2.142 6.254,1.054c3.712,-2.017 5.604,-6.917 7.534,-10.425c4.292,-7.783 9.762,-15.363 16.887,-20.796c0.437,-0.329 0.842,0.354 0.546,0.713c-0.442,0.533 -0.858,1.075 -1.271,1.625c0.071,0.058 0.112,0.15 0.079,0.25c-1.683,4.933 -4.004,10.2 -4.125,15.492c-0.054,2.621 0.092,5.321 0.221,7.946c0.121,2.617 0.95,5.646 0.158,8.183c-0.879,2.808 -5.067,3.771 -6.554,0.858Z" style="fill:#d4899a;"/><path d="M289.847,523.316c0.104,-3.779 -1.737,-7.321 -4.317,-9.979c-5.088,-5.225 -12.896,-7.933 -20.017,-8.608c-8.333,-0.788 -16.146,1.467 -23.004,6.15c-0.017,0.013 0,0.042 0.017,0.029c8.863,-6.037 21.4,-6.958 31.179,-2.792c5.017,2.142 10.388,6.104 11.729,11.687c0.979,4.05 -1.675,10.054 -6.604,8.771c-1.329,-0.346 -2.575,-0.583 -3.659,-1.5c-1.25,-1.058 -2.254,-2.842 -2.008,-4.529c0.246,-1.771 1.821,-3.238 3.646,-3.075c0.888,0.079 2.021,0.671 2.079,1.696c0.05,0.787 -0.5,0.979 -1.121,1.346c-2.579,1.521 0.629,5.158 2.325,3.05c1.158,-1.438 1.025,-2.546 0.425,-4.183c-0.471,-1.283 -1.3,-2.529 -2.642,-2.983c-2.733,-0.925 -5.559,1.162 -6.35,3.721c-1.112,3.629 0.258,7.121 2.908,9.658c2.75,2.629 7.063,2.821 10.296,0.879c3.254,-1.958 5,-5.612 5.117,-9.337Z" style="fill:#d4899a;"/><path d="M287.28,506.249c1.329,-3.071 -0.833,-5.612 -3.5,-6.908c-5.229,-2.533 -11.3,-2.779 -16.971,-1.987c-3.133,0.442 -6.275,1.096 -9.288,2.104c-3.067,1.029 -5.7,2.504 -8.375,4.308c-0.017,0.008 0,0.025 0.017,0.021c5.142,-2.646 11.392,-4.304 17.192,-4.021c3.025,0.146 5.833,0.779 8.729,1.609c2.617,0.75 5.809,1.392 7.796,3.358c0.475,0.467 1.033,0.854 1.496,1.321c0.317,0.329 0.479,0.783 0.887,1.037c0.846,0.521 1.663,-0.033 2.017,-0.842Z" style="fill:#d4899a;"/><path d="M280.114,490.283c-1.25,-0.637 -2.692,-0.617 -4.088,-0.458c1.792,-1.246 3.338,-2.892 3.517,-5.004c0.017,-0.167 -0.004,-0.325 -0.05,-0.471c0.321,-0.6 0.554,-1.254 0.671,-1.979c0.412,-2.579 -1.996,-6.121 -4.904,-4.825c-0.992,0.442 -1.787,1.438 -1.704,2.558c0.071,1.054 1,2.133 2.138,1.942c0.896,-0.154 1.658,-1.146 1.229,-2.033c-0.412,-0.858 -1.758,-1.054 -2.109,-0.083c-0.062,0.175 0.15,0.275 0.288,0.217c-0.138,0.275 -0.267,0.55 -0.396,0.821c-0.112,-0.412 -0.225,-0.825 -0.337,-1.242c0.025,-0.308 0.329,-0.696 0.546,-0.9c0.596,-0.571 1.554,-0.729 2.279,-0.308c1.321,0.775 1.275,2.529 0.625,3.729c-1.204,2.217 -4.121,3.346 -6.212,4.5c-4.646,2.554 -9.167,5.817 -12.408,10.071c-0.196,0.258 0.208,0.496 0.425,0.321c0.317,-0.262 0.642,-0.508 0.967,-0.754c0.033,0.042 0.092,0.067 0.146,0.046c2.946,-1.004 6.087,-2.387 9.246,-2.463c1.562,-0.033 3.175,0.058 4.742,0.133c1.558,0.075 3.367,0.567 4.883,0.096c1.671,-0.525 2.25,-3.021 0.508,-3.913Z" style="fill:#d4899a;"/><path d="M230.205,463.678c3.775,-0.108 7.321,1.733 9.983,4.317c5.225,5.083 7.929,12.896 8.6,20.017c0.796,8.329 -1.458,16.142 -6.142,23c-0.017,0.017 -0.042,0 -0.033,-0.017c6.037,-8.863 6.958,-21.396 2.792,-31.175c-2.142,-5.017 -6.108,-10.396 -11.687,-11.733c-4.054,-0.975 -10.05,1.679 -8.767,6.604c0.346,1.333 0.579,2.575 1.496,3.654c1.063,1.254 2.846,2.254 4.529,2.017c1.775,-0.25 3.238,-1.825 3.075,-3.65c-0.079,-0.883 -0.667,-2.021 -1.692,-2.083c-0.792,-0.042 -0.979,0.504 -1.346,1.125c-1.525,2.579 -5.163,-0.629 -3.058,-2.325c1.442,-1.158 2.554,-1.025 4.192,-0.421c1.279,0.467 2.525,1.296 2.983,2.637c0.925,2.729 -1.162,5.563 -3.725,6.35c-3.629,1.112 -7.121,-0.258 -9.658,-2.908c-2.629,-2.746 -2.821,-7.058 -0.875,-10.3c1.954,-3.25 5.608,-5 9.333,-5.108Z" style="fill:#d4899a;"/><path d="M247.276,466.245c3.067,-1.333 5.612,0.833 6.9,3.496c2.542,5.229 2.783,11.3 1.992,16.967c-0.446,3.142 -1.096,6.279 -2.104,9.292c-1.025,3.071 -2.504,5.7 -4.304,8.375c-0.008,0.012 -0.033,0.004 -0.025,-0.008c2.65,-5.15 4.304,-11.404 4.021,-17.196c-0.146,-3.021 -0.779,-5.838 -1.604,-8.729c-0.758,-2.617 -1.4,-5.813 -3.363,-7.8c-0.467,-0.471 -0.854,-1.033 -1.317,-1.492c-0.333,-0.325 -0.784,-0.479 -1.042,-0.896c-0.517,-0.842 0.037,-1.658 0.846,-2.008Z" style="fill:#d4899a;"/><path d="M263.239,473.408c0.637,1.25 0.616,2.692 0.458,4.092c1.242,-1.8 2.892,-3.342 5.004,-3.521c0.167,-0.012 0.325,0.008 0.475,0.05c0.596,-0.317 1.254,-0.55 1.975,-0.667c2.583,-0.412 6.121,1.996 4.829,4.904c-0.442,0.987 -1.442,1.783 -2.562,1.704c-1.058,-0.075 -2.133,-1.004 -1.938,-2.142c0.154,-0.896 1.146,-1.658 2.033,-1.229c0.854,0.417 1.05,1.754 0.079,2.109c-0.175,0.062 -0.275,-0.146 -0.213,-0.284c-0.279,0.134 -0.55,0.263 -0.829,0.392c0.417,0.112 0.833,0.225 1.246,0.337c0.308,-0.025 0.691,-0.329 0.9,-0.542c0.571,-0.604 0.729,-1.558 0.308,-2.279c-0.775,-1.325 -2.529,-1.279 -3.729,-0.629c-2.217,1.204 -3.342,4.125 -4.496,6.217c-2.558,4.646 -5.821,9.166 -10.071,12.404c-0.258,0.196 -0.504,-0.208 -0.325,-0.425c0.262,-0.317 0.512,-0.642 0.754,-0.967c-0.041,-0.038 -0.062,-0.092 -0.046,-0.15c1.008,-2.942 2.392,-6.083 2.463,-9.242c0.038,-1.562 -0.054,-3.175 -0.133,-4.738c-0.079,-1.562 -0.571,-3.367 -0.092,-4.883c0.525,-1.675 3.021,-2.25 3.909,-0.512Z" style="fill:#d4899a;"/><path d="M474.268,345.712c5.846,1.3 13.329,7.667 9.633,14.346c-2.929,5.3 -10.688,5.437 -14.65,1.429c-4.371,-4.421 -4.442,-11.287 -1.558,-16.487c2.225,0.033 4.425,0.242 6.575,0.713Zm39.725,165.062c-1.1,-22.137 -22.325,-42.608 -44.963,-39.733c-11.529,1.463 -23.471,9.113 -24.637,21.55c-1.083,11.612 8.083,21.721 20.025,19.437c5.296,-1.012 8.946,-4.483 10.054,-9.796c0.6,-2.871 -2.942,-4.25 -4.6,-1.938c-2.308,3.2 -7.737,5.133 -11.563,4.354c-4.958,-1.012 -7.833,-6.204 -8.267,-10.925c-1.162,-12.629 12.075,-20.75 23.242,-21.125c21.596,-0.725 39.854,21.654 38.479,42.312c-1.425,21.475 -20.25,39.979 -41.221,42.842c-23.154,3.163 -47.1,-4.425 -65.062,-19.079c-32.383,-26.408 -47.438,-71.833 -36.788,-112.321c10.396,-39.517 46.146,-73.271 86.608,-80.15c3.45,-0.587 7.058,-1.1 10.646,-1.196c-2.912,5.467 -3.254,12.021 1.008,17.554c5.554,7.217 18.775,6.196 21.458,-3.254c1.517,-5.333 -1.429,-10.275 -5.7,-13.325c-3.929,-2.804 -8.671,-3.5 -13.392,-3.413c6.183,-7.783 16.308,-7.517 24.559,-12.187c2.958,-1.679 5.517,-4.358 6.525,-7.667c1.542,-5.054 -0.946,-10.125 -3.171,-14.546c-1.2,-2.392 -2.729,-4.871 -3.334,-7.487c-0.554,-2.429 0.412,-7.192 4.004,-6.479c2.225,0.446 3.308,-2.271 1.509,-3.571c-4.488,-3.225 -10.129,-0.446 -12.442,4.058c-3.1,6.046 0.612,12.5 4.625,17.021c2.767,3.117 6.362,6.775 5.604,11.342c-0.567,3.421 -3.663,5.358 -6.563,6.767c-5.234,2.558 -11.154,3.537 -16.221,6.463c-2.742,1.579 -5.163,3.792 -6.992,6.358c-1.146,0.071 -2.275,0.171 -3.388,0.292c-12.529,1.366 -24.842,4.408 -36.466,9.325c-22.938,9.708 -42.458,26.613 -54.988,48.179c-26.179,45.058 -16.142,106.679 22.171,141.883c20.087,18.458 51.15,32.688 78.246,22.104c21.75,-8.496 42.221,-28.725 40.992,-53.65Z" style="fill:#d4899a;"/><path d="M697.564,707.403c-6.125,-13.717 -18.8,-21.625 -32.463,-26.604c-15.65,-5.7 -32.567,-8.287 -49.021,-10.425c-64.917,-8.413 -133.996,-0.554 -195.271,-27.962c-26.512,-11.858 -48.979,-30.496 -64.717,-54.975c-15.071,-23.454 -23.896,-50.858 -25.4,-78.692c-3.121,-57.596 27.113,-113.008 72.775,-147c5.463,-4.062 11.158,-7.854 16.933,-11.454c0.221,-0.142 0.025,-0.488 -0.208,-0.358c-43.842,23.612 -76.579,67.737 -88.525,115.812c-12.008,48.317 -0.612,101.087 29.954,140.35c16.217,20.825 37.654,36.579 61.808,47.062c26.179,11.358 54.2,16.75 82.433,19.862c31.6,3.483 63.433,4 95.05,7.254c15.871,1.633 31.687,4.029 47.167,7.921c12.996,3.267 25.904,8.05 35.571,17.704c8.071,8.062 13.558,22.133 7.325,32.812c-6.192,10.612 -21.354,14.533 -31.796,8.046c-11.129,-6.929 -15.308,-23.046 -7.563,-33.954c4.104,-5.775 12.504,-10.196 19.358,-6.213c3.979,2.312 6.662,9.254 3.217,12.975c-2.154,2.325 -6.096,3.288 -8.55,1.7c-6.158,-3.971 -11.275,4.479 -7.283,9.442c8.742,10.862 26.492,3.979 28.892,-8.742c2.425,-12.875 -12.567,-22.733 -24.192,-19.837c-25.108,6.258 -21.954,43.5 0.963,50.304c10.775,3.2 23.529,-0.833 30.546,-9.583c8.138,-10.15 8.138,-23.954 2.996,-35.446Z" style="fill:#d4899a;"/><path d="M357.231,409.224c2.6,-3.754 5.379,-7.408 8.3,-10.988c-3,3.45 -5.758,7.154 -8.3,10.988Z" style="fill:#d4899a;"/><path d="M639.901,508.487c-1.392,-33.129 -25.704,-67.667 -59.021,-75.275c-15.587,-3.554 -32.7,-0.429 -47.033,6.287c-14.304,6.704 -26.554,17.017 -33.417,31.467c-13.154,27.688 -3.492,65.271 25.271,78.787c14.446,6.783 31.95,5.717 44.363,-4.787c5.7,-4.825 9.741,-11.496 11.887,-18.592c2.392,-7.929 1.896,-15.75 -2.221,-23.067c-8.029,-14.275 -26.467,-18.538 -40.129,-9.571c-12.008,7.875 -12.067,25.308 -3.404,35.646c4.096,4.892 10.021,7.829 16.442,7.317c1.617,-0.125 1.658,-2.621 0,-2.546c-13.592,0.633 -25.729,-19.658 -11.433,-27.654c4.583,-2.567 9.146,-4.717 14.558,-4.163c5.883,0.596 10.712,3.904 13.908,8.792c3.354,5.138 6.046,12.292 4.933,18.475c-1.329,7.358 -6.829,13.313 -13.058,17.108c-15.221,9.271 -34.4,4.279 -47.117,-7.021c-22.2,-19.725 -23.387,-57.012 -4.179,-79.125c9.625,-11.075 22.979,-18.258 37.504,-20.242c14.004,-1.908 28.467,2.675 40.779,9.029c26.533,13.692 40.617,42.117 39.412,71.446c-1.35,32.85 -21.762,60.446 -49.392,76.825c-29.904,17.725 -66.621,22.967 -100.917,21.6c-32.954,-1.313 -66.567,-10.633 -92.796,-31.25c-24.279,-19.079 -41.513,-46.838 -47.954,-77.029c-6.825,-31.983 -0.525,-66.392 15.871,-94.546c1.412,-2.421 2.9,-4.821 4.471,-7.175c-6.929,9.979 -12.642,20.633 -16.742,32.333c-5.954,16.979 -8.442,35.267 -7.162,53.217c2.408,33.717 18.067,66.063 42.783,89.096c27.146,25.3 63.654,36.871 100.112,39.363c38.042,2.6 79.308,-3.104 112.088,-23.683c31.321,-19.662 53.183,-53.229 51.592,-91.062Z" style="fill:#d4899a;"/><path d="M367.01,396.445c-0.5,0.596 -0.987,1.192 -1.479,1.792c0.512,-0.583 1.017,-1.162 1.538,-1.733c0.041,-0.038 -0.025,-0.1 -0.058,-0.058Z" style="fill:#d4899a;"/><path d="M377.018,595.399c0.383,0.496 0.779,0.975 1.167,1.463c-0.367,-0.5 -0.742,-1.004 -1.104,-1.513c-0.033,-0.05 -0.1,0 -0.062,0.05Z" style="fill:#d4899a;"/><path d="M736.851,630.787c-2.058,-2.104 -4.525,-3.921 -6.888,-5.663c-4.817,-3.558 -10.042,-6.292 -15.583,-8.546c-10.825,-4.413 -22.404,-6.134 -34.067,-6.008c-26.883,0.3 -52.508,10.508 -77.592,19.042c-50.866,17.304 -107.579,28.517 -159.979,11.121c-16.542,-5.488 -32.996,-13.9 -46.746,-25.25c9.942,8.608 21.075,15.7 33.517,21.221c21.408,9.5 44.742,14.042 68.092,14.667c27.8,0.75 55.637,-3.742 82.571,-10.279c13.654,-3.312 27.187,-7.046 40.792,-10.529c13.45,-3.446 27.25,-7.054 41.175,-7.621c13.512,-0.554 26.3,0.596 39.262,4.617c5.704,1.775 11.142,4.237 16.229,7.379c2.525,1.558 4.908,3.267 7.133,5.233c1.604,1.425 3.038,3.079 5.2,3.675c1.471,0.404 3.167,0.325 4.688,0.479c2.65,0.275 5.063,-2.513 5,-5.004c-0.079,-3.254 -0.404,-6.071 -2.804,-8.533Z" style="fill:#d4899a;"/><path d="M378.185,596.862c5.104,6.904 11.142,13.108 17.813,18.621c-6.433,-5.571 -12.354,-11.779 -17.813,-18.621Z" style="fill:#d4899a;"/><path d="M748.914,542.783c-18.583,-3.017 -37.321,0.704 -54.487,8.058c-17.596,7.538 -32.9,19.642 -48.163,30.992c-15.421,11.466 -30.879,22.996 -47.858,32.108c-16.913,9.092 -34.863,16.229 -53.379,21.312c-21.004,5.758 -42.6,8.608 -64.346,9.3c-0.037,0 -0.037,0.058 0,0.058c36.175,0.683 72.6,-7.412 105.617,-22.075c17.471,-7.754 33.725,-17.646 49.525,-28.358c15.821,-10.729 31.629,-21.396 49.287,-28.908c19.158,-8.15 39.533,-13.721 60.45,-10.325c3.383,0.55 6.75,-0.879 7.758,-4.404c0.858,-3.004 -1.05,-7.213 -4.404,-7.758Z" style="fill:#d4899a;"/><path d="M692.639,469.612c-11.479,-2.296 -24.621,2.471 -30.504,12.975c-5.425,9.696 -3.246,22.492 5.471,29.575c7.704,6.262 18.533,5.592 23.954,-3.129c2.633,-4.246 3.721,-9.283 1.683,-14.029c-2.158,-5.033 -7.35,-8.996 -12.963,-8.204c-5.596,0.783 -9.775,6.371 -8.404,11.992c1.408,5.758 7.5,8.796 12.762,5.896c1.775,-0.979 1.042,-4.046 -1.058,-3.917c-1.942,0.117 -4.242,-1.179 -5.017,-3.088c-0.992,-2.429 1.046,-4.846 3.025,-6.058c7.054,-4.317 12.883,4.879 11.754,11.054c-2.058,11.162 -15.942,14.85 -24.146,7.896c-8.371,-7.096 -6.113,-17.842 0.646,-25.104c5.779,-6.213 13.658,-8.092 21.7,-5.625c8.463,2.596 13.113,9.963 13.213,18.671c0.104,9.996 -4.667,19.288 -9.6,27.704c-10.292,17.567 -24.808,32.463 -40.387,45.404c-19.488,16.179 -41.304,28.546 -62.192,42.687c-0.046,0.029 -0.004,0.1 0.046,0.071c13.908,-7.421 27.383,-16.021 40.458,-24.829c12.371,-8.337 24.304,-17.413 35.233,-27.592c10.159,-9.467 19.521,-19.858 27.467,-31.262c7.233,-10.387 14.929,-22.333 15.729,-35.35c0.754,-12.129 -6.65,-23.292 -18.871,-25.738Z" style="fill:#d4899a;"/><path d="M506.626,437.741c-6.542,1.3 -9.546,9.175 -10.817,15c-1.258,5.763 -1.396,11.975 0.808,17.475c0.163,0.408 0.708,0.342 0.754,-0.1c0.629,-5.529 1.958,-10.617 5.367,-15.113c3.171,-4.196 7.812,-6.192 9.917,-11.225c1.583,-3.762 -2.825,-6.675 -6.029,-6.037Z" style="fill:#d4899a;"/><path d="M481.551,453.695c-7.638,-4.587 -15.417,-2.321 -20.85,4.054c-0.696,0.813 -0.587,2.458 0.708,2.671c2.096,0.346 4.033,1.133 6,1.875c2.9,1.1 6.083,1.233 9.125,1.696c2.358,0.358 4.883,0.421 7.171,1.054c2.887,0.796 5.117,3.058 7.388,4.913c0.312,0.25 0.7,0.012 0.642,-0.375c-0.792,-5.458 -5.371,-12.992 -10.183,-15.888Z" style="fill:#d4899a;"/><path d="M490.922,447.258c-0.987,-3.475 -4.137,-7.262 -8.146,-5.442c-1.562,0.712 -1.912,1.975 -1.75,3.579c0.187,1.929 1.396,3.208 2.929,4.288c1.133,0.792 2.358,1.475 3.442,2.337c0.762,0.612 2.621,2.367 2.85,3.396c0.012,0.046 0.079,0.029 0.083,-0.012c0.046,-0.554 0.558,-1.125 0.738,-1.654c0.233,-0.717 0.154,-1.437 0.188,-2.158c0.058,-1.483 0.075,-2.896 -0.333,-4.333Z" style="fill:#d4899a;"/><path d="M500.164,340.674c-5.788,-3.304 -13.054,-3.625 -18.854,-0.308c-0.446,0.254 -0.238,0.921 0.25,0.937c5.642,0.192 11.271,1.896 14.829,6.55c2.779,3.633 2.921,8.425 6.733,11.204c1.742,1.271 4.425,0.271 5.433,-1.425c3.771,-6.358 -3.108,-13.942 -8.392,-16.958Z" style="fill:#d4899a;"/><path d="M509.63,332.416c-4.088,-0.983 -9.496,-0.962 -12.738,1.996c-0.242,0.225 -0.146,0.742 0.204,0.796c3.867,0.592 7.317,0.629 10.775,2.741c2.879,1.754 4.917,4.754 8.533,4.813c0.729,0.012 1.404,-0.525 1.6,-1.217c1.417,-4.967 -4.333,-8.15 -8.375,-9.129Z" style="fill:#d4899a;"/><path d="M604.126,654.033c-35.242,-1.813 -70.483,9.229 -105.508,1.233c-0.221,-0.05 -0.317,0.288 -0.092,0.342c21.783,5.512 43.854,3.187 65.987,1.963c22.233,-1.225 46.254,-2.217 67.054,7.183c8.879,4.012 17.629,10.596 19.917,20.575c2.45,10.658 -3.154,21.75 -10.55,29.162c-6.813,6.842 -16.392,12.371 -26.292,11.258c-10.321,-1.162 -19.529,-9.067 -18.775,-20.113c0.867,-12.721 14.762,-20.371 25.108,-11.712c4.842,4.054 6.262,11.421 1.762,16.383c-2.275,2.512 -5.85,3.867 -8.967,1.975c-3.263,-1.979 -4.708,-6.779 -2,-9.767c0.558,-0.621 -0.312,-1.508 -0.921,-0.921c-6.087,5.862 2.254,15.504 9.429,12.254c8.55,-3.871 7.908,-15.521 1.404,-20.837c-7.45,-6.083 -18.575,-4.829 -23.979,3.225c-5.904,8.775 -3.804,20.704 3.675,27.754c8.679,8.179 22.383,9.846 33.175,5.096c12.196,-5.367 22.004,-17.95 24.433,-31.025c5.858,-31.563 -30.308,-42.763 -54.862,-44.029Z" style="fill:#d4899a;"/><path d="M558.222,584.024c-6.679,-21.175 -34.483,-30.792 -49.592,-12.254c-6.563,8.042 -7.237,19.538 -0.929,27.967c6.379,8.533 18.309,10.75 27.142,4.471c9.35,-6.646 11.079,-23.525 -1.304,-28.063c-7.162,-2.625 -21.104,1.225 -19.291,11.158c0.771,4.217 4.592,6.758 8.666,6.896c1.342,0.042 1.317,-1.987 0,-2.075c-5.229,-0.346 -8.633,-6.325 -4.55,-10.462c2.267,-2.304 5.017,-1.767 7.379,-0.063c2.575,1.854 5.883,6.471 6.192,9.658c0.375,3.954 -2.879,7.829 -6.175,9.629c-5.329,2.9 -11.8,0.454 -15.667,-3.738c-8.288,-8.992 -4.729,-22.408 4.496,-29.221c9.492,-7 21.683,-5.625 30.508,1.771c18.717,15.688 10.771,42.246 -6.175,55.696c-18.642,14.8 -44.175,15.304 -66.779,13.008c-41.517,-4.204 -83.812,-22.167 -108.288,-57.279c-27.608,-39.612 -27.279,-92.583 -7.871,-135.496c20.275,-44.825 58.85,-78.354 104.787,-95.075c0.217,-0.075 0.129,-0.408 -0.092,-0.342c-48.55,15.413 -89.662,53.771 -108.8,100.912c-20.629,50.821 -13.292,111.559 26.921,150.784c17.887,17.446 40.587,29.354 64.467,36.279c25.333,7.35 55.629,11.496 80.988,2.392c11.442,-4.104 22.733,-11.475 29.246,-21.992c6.113,-9.871 8.225,-23.45 4.721,-34.562Z" style="fill:#d4899a;"/><path d="M408.518,285.828c-5.196,2.887 -12.063,2.817 -16.479,-1.554c-4.008,-3.963 -3.875,-11.721 1.425,-14.654c6.675,-3.692 13.05,3.787 14.342,9.637c0.479,2.142 0.683,4.35 0.713,6.571Zm-219.421,-5.308c-10.583,27.096 3.646,58.162 22.104,78.246c35.204,38.313 96.829,48.354 141.887,22.171c21.562,-12.529 38.467,-32.046 48.175,-54.992c4.921,-11.621 7.958,-23.933 9.325,-36.462c0.125,-1.109 0.225,-2.242 0.296,-3.383c2.562,-1.838 4.775,-4.254 6.354,-6.992c2.929,-5.071 3.904,-10.992 6.463,-16.229c1.408,-2.892 3.346,-5.992 6.767,-6.554c4.567,-0.754 8.221,2.837 11.338,5.6c4.521,4.013 10.979,7.725 17.025,4.625c4.504,-2.308 7.284,-7.95 4.058,-12.437c-1.296,-1.804 -4.017,-0.717 -3.566,1.508c0.712,3.596 -4.05,4.558 -6.479,4c-2.621,-0.6 -5.104,-2.129 -7.492,-3.333c-4.421,-2.225 -9.492,-4.708 -14.546,-3.167c-3.304,1.008 -5.992,3.567 -7.667,6.525c-4.671,8.25 -4.404,18.371 -12.183,24.554c0.087,-4.721 -0.608,-9.462 -3.417,-13.388c-3.05,-4.275 -7.992,-7.221 -13.321,-5.708c-9.458,2.683 -10.475,15.908 -3.263,21.463c5.537,4.263 12.092,3.921 17.554,1.004c-0.092,3.596 -0.604,7.2 -1.192,10.654c-6.875,40.462 -40.629,76.208 -80.146,86.608c-40.492,10.646 -85.913,-4.413 -112.325,-36.792c-14.65,-17.962 -22.242,-41.908 -19.079,-65.058c2.862,-20.975 21.371,-39.796 42.842,-41.217c20.662,-1.375 43.037,16.879 42.308,38.471c-0.371,11.167 -8.492,24.404 -21.121,23.242c-4.721,-0.433 -9.912,-3.308 -10.925,-8.266c-0.779,-3.825 1.154,-9.259 4.358,-11.563c2.308,-1.662 0.929,-5.196 -1.942,-4.6c-5.312,1.113 -8.783,4.758 -9.796,10.054c-2.283,11.942 7.825,21.112 19.433,20.029c12.446,-1.167 20.092,-13.109 21.554,-24.638c2.879,-22.637 -17.592,-43.867 -39.733,-44.963c-24.921,-1.229 -45.154,19.246 -53.65,40.988Z" style="fill:#d4899a;"/><path d="M46.122,55.954c13.713,6.133 21.625,18.808 26.6,32.467c5.704,15.654 8.292,32.571 10.421,49.025c8.417,64.917 0.558,133.987 27.967,195.267c11.858,26.516 30.5,48.979 54.984,64.717c23.446,15.075 50.854,23.9 78.683,25.404c57.6,3.121 113.008,-27.117 147,-72.779c4.066,-5.458 7.85,-11.158 11.458,-16.933c0.137,-0.225 0.483,-0.025 0.354,0.213c-23.608,43.837 -67.737,76.579 -115.812,88.521c-48.317,12.008 -101.087,0.608 -140.35,-29.954c-20.825,-16.217 -36.579,-37.654 -47.062,-61.812c-11.358,-26.171 -16.75,-54.192 -19.858,-82.429c-3.483,-31.596 -4.004,-63.433 -7.262,-95.05c-1.625,-15.863 -4.021,-31.687 -7.913,-47.167c-3.271,-13 -8.054,-25.9 -17.708,-35.571c-8.062,-8.067 -22.133,-13.558 -32.808,-7.325c-10.612,6.192 -14.542,21.358 -8.05,31.796c6.925,11.133 23.05,15.313 33.954,7.563c5.775,-4.1 10.196,-12.5 6.213,-19.358c-2.312,-3.971 -9.259,-6.658 -12.975,-3.212c-2.321,2.15 -3.283,6.092 -1.7,8.546c3.971,6.158 -4.479,11.279 -9.442,7.287c-10.867,-8.742 -3.979,-26.492 8.742,-28.891c12.879,-2.425 22.737,12.567 19.837,24.192c-6.262,25.108 -43.496,21.954 -50.3,-0.958c-3.204,-10.783 0.829,-23.537 9.579,-30.55c10.15,-8.142 23.954,-8.146 35.45,-3.004Z" style="fill:#d4899a;"/><path d="M344.297,396.299c3.754,-2.608 7.404,-5.383 10.992,-8.312c-3.454,3.004 -7.154,5.762 -10.992,8.312Z" style="fill:#d4899a;"/><path d="M245.035,113.624c33.133,1.392 67.671,25.7 75.271,59.017c3.558,15.584 0.433,32.704 -6.279,47.038c-6.704,14.304 -17.017,26.55 -31.471,33.417c-27.683,13.154 -65.271,3.496 -78.783,-25.275c-6.787,-14.442 -5.721,-31.95 4.787,-44.363c4.817,-5.696 11.492,-9.737 18.587,-11.883c7.925,-2.392 15.75,-1.9 23.067,2.221c14.275,8.029 18.533,26.458 9.571,40.125c-7.879,12.008 -25.304,12.071 -35.646,3.408c-4.892,-4.096 -7.829,-10.021 -7.321,-16.45c0.134,-1.613 2.625,-1.65 2.55,0c-0.633,13.596 19.658,25.738 27.654,11.442c2.567,-4.583 4.717,-9.15 4.163,-14.558c-0.592,-5.884 -3.9,-10.717 -8.796,-13.908c-5.129,-3.358 -12.287,-6.046 -18.471,-4.933c-7.358,1.325 -13.313,6.829 -17.104,13.058c-9.279,15.221 -4.279,34.396 7.021,47.112c19.721,22.2 57.004,23.388 79.121,4.179c11.075,-9.621 18.262,-22.971 20.237,-37.5c1.913,-14 -2.666,-28.475 -9.029,-40.783c-13.692,-26.529 -42.108,-40.617 -71.437,-39.408c-32.85,1.35 -60.45,21.758 -76.833,49.392c-17.721,29.904 -22.958,66.625 -21.596,100.912c1.313,32.954 10.633,66.563 31.25,92.796c19.083,24.279 46.842,41.513 77.029,47.954c31.983,6.825 66.396,0.529 94.542,-15.871c2.429,-1.412 4.825,-2.9 7.179,-4.462c-9.975,6.925 -20.633,12.633 -32.333,16.733c-16.975,5.95 -35.267,8.446 -53.212,7.162c-33.717,-2.408 -66.067,-18.071 -89.1,-42.783c-25.296,-27.142 -36.875,-63.658 -39.359,-100.112c-2.6,-38.038 3.1,-79.308 23.679,-112.079c19.662,-31.325 53.229,-53.188 91.062,-51.596Z" style="fill:#d4899a;"/><path d="M357.08,386.512c-0.596,0.5 -1.196,0.987 -1.792,1.475c0.579,-0.504 1.162,-1.013 1.729,-1.534c0.042,-0.037 0.1,0.025 0.063,0.058Z" style="fill:#d4899a;"/><path d="M158.122,376.508c-0.496,-0.388 -0.975,-0.783 -1.463,-1.171c0.5,0.371 1.004,0.742 1.513,1.1c0.05,0.038 -0.004,0.104 -0.05,0.071Z" style="fill:#d4899a;"/><path d="M122.735,16.674c2.104,2.058 3.921,4.525 5.663,6.883c3.558,4.817 6.287,10.05 8.546,15.583c4.417,10.829 6.138,22.408 6.012,34.067c-0.3,26.888 -10.508,52.508 -19.046,77.596c-17.308,50.862 -28.513,107.575 -11.121,159.979c5.488,16.533 13.9,32.992 25.25,46.746c-8.608,-9.942 -15.696,-21.079 -21.221,-33.521c-9.5,-21.408 -14.042,-44.737 -14.666,-68.088c-0.75,-27.8 3.742,-55.633 10.283,-82.575c3.316,-13.654 7.041,-27.187 10.525,-40.792c3.446,-13.45 7.05,-27.246 7.625,-41.171c0.55,-13.513 -0.592,-26.3 -4.621,-39.263c-1.775,-5.708 -4.237,-11.142 -7.383,-16.233c-1.554,-2.521 -3.258,-4.913 -5.229,-7.129c-1.425,-1.608 -3.083,-3.042 -3.671,-5.204c-0.408,-1.467 -0.329,-3.167 -0.488,-4.683c-0.271,-2.65 2.512,-5.063 5.008,-5.004c3.259,0.079 6.075,0.4 8.533,2.808Z" style="fill:#d4899a;"/><path d="M156.66,375.337c-6.9,-5.104 -13.112,-11.133 -18.621,-17.808c5.571,6.425 11.779,12.354 18.621,17.808Z" style="fill:#d4899a;"/><path d="M210.739,4.612c3.017,18.583 -0.704,37.325 -8.054,54.487c-7.542,17.596 -19.642,32.9 -30.996,48.163c-11.466,15.421 -22.992,30.883 -32.112,47.85c-9.083,16.917 -16.225,34.867 -21.308,53.387c-5.758,21.004 -8.608,42.596 -9.296,64.346c0,0.038 -0.058,0.038 -0.058,0c-0.683,-36.179 7.408,-72.6 22.067,-105.621c7.762,-17.466 17.65,-33.725 28.358,-49.521c10.733,-15.821 21.396,-31.629 28.917,-49.291c8.146,-19.154 13.717,-39.533 10.317,-60.446c-0.542,-3.387 0.883,-6.75 4.408,-7.762c3.004,-0.854 7.213,1.05 7.758,4.408Z" style="fill:#d4899a;"/><path d="M283.91,60.887c2.3,11.475 -2.471,24.625 -12.971,30.504c-9.7,5.425 -22.496,3.246 -29.575,-5.471c-6.267,-7.704 -5.6,-18.537 3.129,-23.954c4.246,-2.637 9.288,-3.721 14.021,-1.688c5.033,2.158 9,7.358 8.213,12.967c-0.792,5.592 -6.375,9.775 -11.996,8.404c-5.758,-1.408 -8.792,-7.504 -5.891,-12.763c0.975,-1.775 4.046,-1.042 3.912,1.058c-0.117,1.942 1.183,4.238 3.092,5.017c2.429,0.992 4.842,-1.042 6.058,-3.025c4.313,-7.058 -4.883,-12.888 -11.062,-11.754c-11.158,2.054 -14.846,15.942 -7.892,24.146c7.096,8.367 17.842,6.116 25.104,-0.646c6.213,-5.783 8.096,-13.658 5.629,-21.7c-2.6,-8.471 -9.971,-13.121 -18.675,-13.208c-9.992,-0.108 -19.288,4.663 -27.7,9.592c-17.575,10.292 -32.467,24.813 -45.404,40.392c-16.183,19.488 -28.546,41.304 -42.692,62.188c-0.029,0.046 -0.096,0.004 -0.071,-0.046c7.421,-13.904 16.025,-27.383 24.829,-40.454c8.337,-12.375 17.417,-24.308 27.592,-35.233c9.462,-10.163 19.862,-19.521 31.262,-27.463c10.387,-7.237 22.329,-14.929 35.35,-15.737c12.129,-0.75 23.292,6.654 25.738,18.875Z" style="fill:#d4899a;"/><path d="M315.781,246.903c-1.3,6.538 -9.179,9.538 -15,10.813c-5.762,1.258 -11.971,1.392 -17.475,-0.813c-0.408,-0.163 -0.342,-0.708 0.104,-0.754c5.525,-0.625 10.612,-1.958 15.112,-5.363c4.196,-3.175 6.192,-7.808 11.217,-9.921c3.767,-1.579 6.679,2.829 6.042,6.037Z" style="fill:#d4899a;"/><path d="M299.826,271.974c4.587,7.633 2.325,15.412 -4.054,20.846c-0.817,0.696 -2.458,0.583 -2.671,-0.704c-0.346,-2.104 -1.129,-4.037 -1.875,-6.004c-1.1,-2.904 -1.237,-6.079 -1.692,-9.129c-0.358,-2.35 -0.421,-4.883 -1.054,-7.167c-0.804,-2.879 -3.062,-5.117 -4.913,-7.383c-0.254,-0.313 -0.012,-0.7 0.375,-0.642c5.454,0.787 12.992,5.371 15.883,10.183Z" style="fill:#d4899a;"/><path d="M306.268,262.603c3.471,0.987 7.258,4.138 5.437,8.142c-0.712,1.562 -1.975,1.908 -3.583,1.754c-1.921,-0.187 -3.204,-1.396 -4.283,-2.933c-0.787,-1.133 -1.471,-2.358 -2.333,-3.438c-0.617,-0.766 -2.375,-2.621 -3.396,-2.854c-0.054,-0.012 -0.037,-0.079 0.008,-0.083c0.558,-0.046 1.129,-0.558 1.658,-0.733c0.708,-0.238 1.433,-0.158 2.154,-0.187c1.488,-0.063 2.896,-0.079 4.338,0.333Z" style="fill:#d4899a;"/><path d="M412.847,253.362c3.3,5.783 3.625,13.054 0.308,18.854c-0.254,0.446 -0.921,0.233 -0.937,-0.254c-0.188,-5.642 -1.896,-11.267 -6.55,-14.825c-3.629,-2.779 -8.421,-2.925 -11.2,-6.738c-1.275,-1.742 -0.275,-4.425 1.421,-5.433c6.358,-3.775 13.942,3.108 16.958,8.396Z" style="fill:#d4899a;"/><path d="M421.106,243.895c0.983,4.084 0.958,9.492 -2,12.733c-0.221,0.25 -0.738,0.146 -0.792,-0.204c-0.587,-3.858 -0.629,-7.313 -2.741,-10.775c-1.758,-2.879 -4.75,-4.908 -4.813,-8.529c-0.017,-0.729 0.521,-1.4 1.217,-1.6c4.971,-1.421 8.15,4.338 9.129,8.375Z" style="fill:#d4899a;"/><path d="M99.485,149.399c1.812,35.237 -9.229,70.483 -1.233,105.508c0.054,0.221 -0.283,0.317 -0.342,0.092c-5.508,-21.783 -3.179,-43.858 -1.958,-65.988c1.229,-22.237 2.221,-46.258 -7.179,-67.058c-4.013,-8.883 -10.6,-17.625 -20.579,-19.912c-10.654,-2.446 -21.746,3.154 -29.162,10.546c-6.842,6.821 -12.367,16.396 -11.254,26.296c1.163,10.317 9.067,19.529 20.109,18.775c12.721,-0.867 20.371,-14.763 11.712,-25.113c-4.054,-4.842 -11.425,-6.258 -16.383,-1.762c-2.512,2.279 -3.867,5.85 -1.971,8.967c1.971,3.263 6.779,4.712 9.763,2.004c0.621,-0.567 1.508,0.308 0.921,0.917c-5.862,6.092 -15.504,-2.25 -12.254,-9.425c3.871,-8.554 15.521,-7.908 20.837,-1.404c6.087,7.446 4.833,18.571 -3.225,23.984c-8.775,5.896 -20.7,3.8 -27.75,-3.679c-8.183,-8.684 -9.854,-22.388 -5.1,-33.179c5.371,-12.192 17.95,-22 31.029,-24.429c31.558,-5.862 42.758,30.304 44.021,54.863Z" style="fill:#d4899a;"/><path d="M169.501,195.303c21.171,6.675 30.787,34.483 12.254,49.592c-8.046,6.554 -19.537,7.233 -27.975,0.929c-8.525,-6.379 -10.746,-18.313 -4.467,-27.142c6.646,-9.35 23.525,-11.083 28.067,1.308c2.625,7.154 -1.229,21.104 -11.163,19.283c-4.212,-0.771 -6.758,-4.592 -6.892,-8.662c-0.046,-1.342 1.983,-1.321 2.075,0c0.346,5.225 6.321,8.629 10.458,4.55c2.304,-2.271 1.763,-5.021 0.067,-7.379c-1.854,-2.575 -6.479,-5.887 -9.658,-6.192c-3.958,-0.375 -7.833,2.879 -9.629,6.175c-2.904,5.333 -0.454,11.8 3.737,15.662c8.987,8.292 22.404,4.733 29.212,-4.496c7.004,-9.487 5.629,-21.683 -1.766,-30.504c-15.683,-18.717 -42.242,-10.775 -55.696,6.171c-14.796,18.646 -15.304,44.179 -13.013,66.779c4.208,41.517 22.175,83.812 57.284,108.287c39.612,27.613 92.583,27.283 135.496,7.871c44.829,-20.271 78.354,-58.85 95.071,-104.787c0.079,-0.213 0.417,-0.125 0.342,0.096c-15.408,48.546 -53.767,89.658 -100.908,108.796c-50.825,20.629 -111.558,13.292 -150.787,-26.925c-17.442,-17.883 -29.35,-40.579 -36.275,-64.463c-7.35,-25.333 -11.492,-55.625 -2.392,-80.983c4.104,-11.442 11.484,-22.733 21.992,-29.246c9.867,-6.112 23.45,-8.229 34.567,-4.721Z" style="fill:#d4899a;"/></svg>