<?xml version="1.0" encoding="UTF-8" standalone="no"?><!DOCTYPE svg PUBLIC "-//W3C//DTD SVG 1.1//EN" "http://www.w3.org/Graphics/SVG/1.1/DTD/svg11.dtd"><svg width="100%" height="100%" viewBox="0 0 5551 453" version="1.1" xmlns="http://www.w3.org/2000/svg" xmlns:xlink="http://www.w3.org/1999/xlink" xml:space="preserve" xmlns:serif="http://www.serif.com/" style="fill-rule:evenodd;clip-rule:evenodd;stroke-linejoin:round;stroke-miterlimit:2;"><path d="M20.587,369.883c22.779,42.171 68.837,73.212 120.225,81.025c45.554,6.929 88.437,-5.487 117.654,-34.029c41.996,-41.008 50.137,-111.804 18.125,-157.796c-16.804,-24.133 -44.429,-40.4 -75.817,-44.617c-29.238,-3.942 -57.762,3.629 -78.3,20.746c-22.5,18.783 -34.425,49.271 -31.858,81.579c2.429,30.658 17.329,56.283 40.867,70.279c4.95,2.954 11.338,1.321 14.288,-3.629c2.933,-4.929 1.321,-11.338 -3.629,-14.271c-17.654,-10.521 -28.871,-30.192 -30.763,-54.029c-1.996,-25.192 7.358,-49.688 24.442,-63.942c16.058,-13.383 38.7,-19.254 62.171,-16.096c25.225,3.404 48.212,16.804 61.496,35.888c26.458,38.004 19.463,96.754 -15.592,130.987c-24.496,23.925 -60.938,34.254 -99.967,28.317c-45.054,-6.858 -85.279,-33.787 -105,-70.312c-36.908,-68.296 -16.233,-165.192 48.071,-225.363c55.679,-52.1 139.133,-79.429 234.808,-76.892c127.588,3.367 250.971,55.4 370.312,105.746c140.488,59.254 285.779,120.554 438.488,102.325c99.517,-11.842 191.129,-56.717 279.742,-100.104c17.292,-8.471 34.567,-16.925 51.858,-25.137c99.654,-47.242 217.138,-92.275 333.021,-68.108c61.842,12.9 118.733,45.279 173.767,76.596c27.033,15.383 54.983,31.283 83.454,44.929c135.383,64.792 296.579,81.233 442.275,45.104c92.5,-22.95 179.983,-66.804 255.137,-127.413c11.821,11.354 22.325,24.392 30.833,38.975c7.379,-12.658 16.233,-24.167 26.146,-34.408c73.821,58.229 159.029,100.467 249.287,122.846c145.675,36.113 306.875,19.688 442.275,-45.104c28.471,-13.646 56.425,-29.55 83.454,-44.929c55.017,-31.321 111.929,-63.7 173.783,-76.596c115.867,-24.167 233.35,20.867 333.004,68.108c17.275,8.212 34.55,16.667 51.842,25.137c88.613,43.388 180.242,88.263 279.758,100.104c152.725,18.246 298.004,-43.075 438.492,-102.342c119.321,-50.329 242.725,-102.363 370.296,-105.729c95.696,-2.588 179.15,24.792 234.825,76.892c64.304,60.175 84.967,157.067 48.071,225.363c-19.721,36.529 -59.967,63.454 -105,70.312c-39.046,5.938 -75.467,-4.392 -99.967,-28.317c-35.071,-34.237 -42.05,-92.983 -15.592,-130.987c13.283,-19.079 36.267,-32.483 61.492,-35.888c23.471,-3.158 46.113,2.708 62.171,16.096c17.067,14.254 26.442,38.75 24.425,63.942c-1.892,23.838 -13.108,43.508 -30.746,54.029c-4.946,2.933 -6.579,9.342 -3.629,14.271c2.933,4.95 9.321,6.579 14.288,3.629c23.542,-13.992 38.438,-39.617 40.867,-70.258c2.571,-32.325 -9.358,-62.813 -31.875,-81.596c-20.521,-17.117 -49.062,-24.688 -78.279,-20.746c-31.371,4.217 -59.029,20.488 -75.817,44.617c-32.033,45.988 -23.887,116.771 18.125,157.796c29.217,28.558 72.1,40.954 117.654,34.029c51.371,-7.812 97.446,-38.854 120.208,-81.025c41.25,-76.371 18.821,-184.046 -52.171,-250.471c-57.204,-53.542 -140.992,-82.675 -236.979,-82.675c-4.183,0 -8.404,0.05 -12.638,0.175c-131.492,3.454 -256.738,56.267 -377.846,107.358c-144.358,60.888 -280.696,118.388 -427.917,100.833c-95.988,-11.421 -186.008,-55.504 -273.038,-98.125c-17.396,-8.508 -34.737,-17.013 -52.1,-25.263c-96.771,-45.888 -223.575,-95.279 -346.196,-69.687c-65.054,13.575 -123.404,46.787 -179.825,78.904c-26.721,15.208 -54.342,30.921 -82.137,44.238c-131.113,62.725 -287.188,78.663 -428.263,43.663c-86.283,-21.371 -167.779,-61.579 -238.646,-116.858c13.975,-11.354 29.392,-20.471 45.767,-26.667c-35.554,-13.454 -67.083,-40.225 -87.571,-75.312c-20.488,35.087 -52.012,61.858 -87.571,75.312c14.392,5.45 28.075,13.175 40.679,22.654c-72.121,57.45 -155.783,98.975 -244.096,120.867c-141.075,34.983 -297.154,19.062 -428.246,-43.662c-27.829,-13.317 -55.433,-29.029 -82.154,-44.238c-56.425,-32.117 -114.775,-65.329 -179.846,-78.904c-122.621,-25.575 -249.408,23.8 -346.179,69.688c-17.379,8.263 -34.721,16.754 -52.1,25.263c-87.05,42.621 -177.033,86.7 -273.037,98.125c-147.258,17.517 -283.575,-39.946 -427.933,-100.833c-121.096,-51.092 -246.337,-103.904 -377.829,-107.358c-4.254,-0.121 -8.454,-0.175 -12.637,-0.175c-95.988,0 -179.775,29.15 -236.979,82.675c-71.008,66.425 -93.421,174.096 -52.188,250.471l0.008,-0Z" style="fill:#f2c4ce;"/></svg>