<?xml version="1.0" encoding="UTF-8" standalone="no"?><!DOCTYPE svg PUBLIC "-//W3C//DTD SVG 1.1//EN" "http://www.w3.org/Graphics/SVG/1.1/DTD/svg11.dtd"><svg width="100%" height="100%" viewBox="0 0 765 182" version="1.1" xmlns="http://www.w3.org/2000/svg" xmlns:xlink="http://www.w3.org/1999/xlink" xml:space="preserve" xmlns:serif="http://www.serif.com/" style="fill-rule:evenodd;clip-rule:evenodd;stroke-linejoin:round;stroke-miterlimit:2;"><path d="M760.056,127.335c-0.1,0.208 -0.263,0.208 -0.325,0.208c-0.742,0.042 -1.479,0.083 -2.442,0.167c-11.258,1.792 -22.296,3.375 -33.246,3.333c-3.312,-0.042 -9.608,0.042 -16.996,0.083c-14.1,0.167 -32.962,0.333 -41.35,0c-0.058,-0.583 -0.15,-1.167 -0.183,-1.792c-0.317,-5.583 -0.025,-10.917 0.288,-16.542c0.254,-4.625 0.517,-9.375 0.4,-14.292c-0.092,-3.958 -0.054,-7.417 -0.029,-10.542c0.071,-7.867 0.133,-14.062 -1.742,-21.604c-0.696,-2.817 -0.583,-5.813 -0.463,-8.987c0.158,-4.242 0.308,-8.625 -1.525,-12.829c-0.479,-2.254 -2.537,-3.537 -3.354,-4.033c-1.767,-1.079 -3.204,-1.987 -4.45,-2.775c-5.175,-3.275 -7.321,-4.633 -15.85,-7.092c-6.354,-1.833 -11.033,-2.892 -15.563,-3.917c-6.492,-1.467 -12.1,-2.733 -20.962,-5.95c-2.254,-0.821 -4.617,-2.217 -4.488,-3.683c0.146,-1.583 3.108,-2.571 4.867,-3.017c3.713,-0.942 5.921,-1.646 7.7,-2.217c2.95,-0.942 4.729,-1.508 10.717,-2.363c23.633,-3.367 33.975,-2.771 56.637,-1.462l2.588,0.146c17.571,1.012 35,0.958 52.037,-0.179c9.087,-1.529 18.483,-3.108 27.829,-3.554c-5.263,6.163 -10.425,12.654 -15.421,18.929c-5.942,7.475 -12.092,15.2 -18.408,22.375c-4.133,4.704 -8.463,10.271 -7.408,16.858c0.579,3.625 2.775,6.633 4.537,9.05c7.063,9.683 13.521,19.846 19.767,29.679c5.35,8.417 10.883,17.125 16.8,25.542c0.133,0.167 0.092,0.333 0.038,0.458Zm-100.783,37.125c-2.117,4.5 -8.129,8.208 -13.687,8.5c-45.45,2.25 -86.829,3.125 -126.508,2.625c-13.658,-0.167 -27.504,0.083 -40.896,0.333c-22.779,0.417 -46.329,0.875 -69.417,-0.792c-39.437,-2.792 -79.513,-1.833 -114.871,-1c-31.154,0.75 -62.829,0.75 -93.462,0.708l-19.808,0c-16.146,0 -33.558,0.25 -51.475,2c-4.042,0.375 -10.579,-0.708 -13.371,-1.167c-2.896,-0.5 -6.487,-2.167 -7.879,-5.333c-1.104,-2.5 -0.713,-5.708 -0.338,-8.792l0.067,-0.542c1.775,-14.708 0.917,-27.917 -2.783,-42.833c-1.742,-7 -1.129,-13.917 -0.487,-21.25c0.433,-4.917 0.883,-10 0.587,-15.233l-0.237,-4.304c-0.196,-3.671 -0.383,-7.083 -0.688,-11.067c-0.388,-5.146 -0.563,-10.588 0.808,-15.542c0.258,-0.942 0.463,-1.863 0.667,-2.767c2.371,2.117 5.858,2.308 7.688,2.396c33.583,1.583 67.7,1.404 95.892,-0.504c26.804,0.104 53.979,-0.55 80.254,-1.187c46.1,-1.117 93.775,-2.271 140.742,0.708c38.233,2.425 77.467,3.054 123.467,1.975l1.979,-0.046c20.375,-0.479 41.45,-0.975 62.196,0.333l1.35,0.087c11.621,0.738 26.088,1.654 37.542,-0.762c0.937,-0.2 1.771,-0.483 2.512,-0.833c0.3,2.221 0.258,4.571 0.167,7.021c-0.125,3.358 -0.258,6.833 0.6,10.292c1.729,6.963 1.675,12.604 1.604,20.433c-0.029,3.167 -0.062,6.708 0.033,10.708c0.108,4.708 -0.15,9.375 -0.4,13.917c-0.304,5.5 -0.621,11.208 -0.288,17.083c0.212,3.708 0.817,7.375 1.404,10.917c0.396,2.417 0.796,4.833 1.071,7.292c0.662,5.875 -1.983,12.292 -4.033,16.625Zm-649.575,-35.125c-1.592,-0.125 -2.871,-0.25 -3.721,-0.833c-1.271,-0.875 -1.512,-2.958 -1.092,-4.5c0.567,-2.083 2.088,-3.958 3.554,-5.792c5.179,-6.458 10.567,-11.042 16.262,-15.875c5.613,-4.792 11.421,-9.75 16.875,-16.525c3.413,-4.246 8.092,-10.062 8.217,-17.033c0.2,-10.85 -9.738,-20.558 -15.675,-25.375c-8.183,-6.642 -17.804,-18.342 -28.596,-34.779c-0.121,-0.183 -0.212,-0.342 -0.287,-0.479l0.137,0c24.821,0.108 46.658,1.008 67.775,1.883c21.167,0.875 43.05,1.779 67.963,1.888c3.508,0.013 16.762,0.617 19.975,0.913c4.133,0.375 7.892,2.308 7.812,3.262c-0.308,3.788 -6.121,5.754 -10.467,6.904c-6.638,1.754 -14.442,3.417 -21.988,5.021c-7.608,1.621 -15.471,3.296 -22.221,5.079c-1.929,0.513 -4.217,1.137 -6.262,2.375c-4.992,2.367 -5.975,6.775 -6.929,11.046c-0.221,0.975 -0.442,1.988 -0.725,3.008c-1.558,5.646 -1.383,11.579 -0.963,17.146c0.3,3.946 0.483,7.325 0.679,10.967l0.237,4.312c0.279,4.888 -0.154,9.804 -0.575,14.554c-0.65,7.417 -1.321,15.042 0.604,22.792c0.983,3.958 1.733,7.75 2.304,11.542c-30.862,0.958 -62.1,0.458 -92.896,-1.5Zm99.679,-89.137c1.546,-1.379 3.933,-2.013 6.046,-2.571c6.638,-1.754 14.446,-3.417 21.996,-5.025c7.6,-1.617 15.462,-3.292 22.208,-5.075c2.104,-0.558 6.204,-1.65 9.429,-3.917c0.004,2.229 -0.025,4.429 -0.05,6.592c-0.067,5.333 -0.1,10.837 0.325,16.496c-18.071,0.221 -37.067,-0.092 -55.929,-0.983c-2.104,-0.096 -4.358,-0.367 -5.146,-1.596c-0.7,-1.096 0.029,-2.95 1.121,-3.921Zm488.192,-10.871c0.054,-1.808 0.112,-3.642 0.158,-5.504c0.875,0.496 1.837,0.958 2.938,1.358c9.142,3.317 15.158,4.679 21.529,6.117c4.462,1.008 9.075,2.05 15.296,3.846c7.888,2.275 9.587,3.35 14.646,6.55c1.263,0.8 2.721,1.721 4.513,2.813c1.029,0.629 1.204,0.942 1.246,0.875c-0.129,0.225 -0.913,0.75 -2.258,1.038c-10.833,2.283 -24.942,1.387 -36.275,0.671l-1.358,-0.087c-6.825,-0.429 -13.671,-0.621 -20.513,-0.729c-0.254,-5.8 -0.104,-11.242 0.079,-16.946Zm149.608,69.467c-6.283,-9.875 -12.783,-20.1 -19.937,-29.9c-1.542,-2.117 -3.296,-4.517 -3.696,-7.029c-0.729,-4.575 2.867,-9.117 6.3,-13.017c6.396,-7.262 12.579,-15.033 18.558,-22.554c4.971,-6.242 10.108,-12.704 15.317,-18.804c1.179,-1.383 1.429,-3.263 0.654,-4.896c-0.779,-1.637 -2.408,-2.646 -4.2,-2.592c-9.804,0.208 -19.804,1.888 -28.392,3.342c-16.612,1.1 -33.85,1.15 -51.225,0.154l-2.588,-0.15c-22.983,-1.325 -33.471,-1.929 -57.571,1.504c-6.379,0.908 -8.517,1.592 -11.483,2.542c-1.804,0.575 -3.854,1.229 -7.425,2.138c-5.254,1.333 -8.075,3.733 -8.383,7.137c-0.033,0.358 -0.013,0.708 0.017,1.054c-0.004,3.992 -0.125,7.758 -0.242,11.454c-0.183,5.713 -0.333,11.175 -0.088,17.046c-12.575,-0.096 -25.112,0.146 -37.387,0.437l-1.983,0.046c-45.858,1.075 -84.963,0.45 -123.058,-1.967c-47.171,-2.996 -94.95,-1.842 -141.15,-0.713c-26.242,0.633 -53.383,1.288 -80.292,1.188c-10.892,0.733 -22.65,1.204 -34.896,1.421c-0.437,-5.508 -0.4,-10.813 -0.333,-16.375c0.058,-4.533 0.117,-9.217 -0.117,-14.092l-0.012,0c0.146,-5.646 -8.6,-7.7 -12.054,-8.013c-3.283,-0.3 -16.804,-0.917 -20.379,-0.933c-24.825,-0.104 -46.667,-1.008 -67.787,-1.883c-21.163,-0.875 -43.042,-1.775 -67.946,-1.887c-0.912,0 -2.833,-0.013 -4.133,1.492c-0.8,0.925 -1.821,2.971 0.338,6.254c11.058,16.842 21.004,28.9 29.558,35.842c5.279,4.283 14.108,12.792 13.946,21.65c-0.092,4.962 -3.308,9.362 -7.183,14.183c-5.179,6.463 -10.563,11.046 -16.258,15.879c-5.617,4.792 -11.421,9.708 -16.875,16.5c-1.692,2.125 -3.604,4.5 -4.429,7.5c-0.863,3.167 -0.288,7.375 2.95,9.625c1.983,1.375 4.354,1.5 6.087,1.625c20.808,1.333 41.817,2 62.775,2c10.371,0 20.725,-0.167 31.033,-0.5c0.892,8.25 0.804,16.333 -0.237,24.958l-0.062,0.542c-0.433,3.542 -0.921,7.542 0.696,11.208c1.821,4.167 6.079,7.167 11.4,8.083c4.008,0.667 8.458,1.292 12.196,1.292c0.842,0 1.646,0 2.404,-0.083c17.721,-1.708 34.996,-1.958 51.021,-1.958l19.804,0c30.663,0 62.367,0.042 93.583,-0.708c35.25,-0.875 75.208,-1.833 114.417,0.958c23.304,1.667 46.958,1.25 69.842,0.833c13.358,-0.25 27.171,-0.5 40.75,-0.333c39.775,0.5 81.254,-0.375 126.8,-2.667c7.25,-0.333 14.858,-5.167 17.692,-11.125c2.296,-4.875 5.25,-12.125 4.458,-19.208c-0.288,-2.5 -0.696,-5 -1.108,-7.5c-0.221,-1.333 -0.421,-2.625 -0.617,-3.958c8.754,0.292 26.367,0.125 40.85,0c7.35,-0.083 13.629,-0.125 16.921,-0.125c11.325,0.083 22.558,-1.542 33.8,-3.375c0.696,-0.042 1.396,-0.083 2.096,-0.083c1.858,-0.083 3.525,-1.167 4.35,-2.833c0.838,-1.708 0.683,-3.708 -0.408,-5.25c-5.85,-8.333 -11.354,-17 -16.675,-25.375Z" style="fill:url(#_Linear1);"/><defs><linearGradient id="_Linear1" x1="0" y1="0" x2="1" y2="0" gradientUnits="userSpaceOnUse" gradientTransform="matrix(445.6875,-445.6875,445.6875,445.6875,160.454312,289.668737)"><stop offset="0" style="stop-color:#ddbc82;stop-opacity:1"/><stop offset="0.3" style="stop-color:#9b7860;stop-opacity:1"/><stop offset="0.66" style="stop-color:#dcbb81;stop-opacity:1"/><stop offset="1" style="stop-color:#9a7760;stop-opacity:1"/></linearGradient></defs></svg>