<?xml version="1.0" encoding="UTF-8" standalone="no"?><!DOCTYPE svg PUBLIC "-//W3C//DTD SVG 1.1//EN" "http://www.w3.org/Graphics/SVG/1.1/DTD/svg11.dtd"><svg width="100%" height="100%" viewBox="0 0 1002 107" version="1.1" xmlns="http://www.w3.org/2000/svg" xmlns:xlink="http://www.w3.org/1999/xlink" xml:space="preserve" xmlns:serif="http://www.serif.com/" style="fill-rule:evenodd;clip-rule:evenodd;stroke-linejoin:round;stroke-miterlimit:2;"><path d="M962.267,103.043c4.471,-3.05 6.425,-7.529 6.508,-11.888c0.167,-8.575 -5.7,-17.325 -13.108,-23.804c-8.675,-7.583 -20.246,-12.212 -33.513,-14.016c-0.038,-0.004 -0.05,0.037 -0.013,0.041c17.125,2.35 32.592,12.004 39.042,23.604c3.308,5.95 4.929,13.721 0.058,19.475c-3.542,4.183 -13.496,6.962 -17.679,1.8c-1.133,-1.396 -2.288,-2.625 -2.479,-4.287c-0.221,-1.921 0.679,-4.237 2.892,-5.442c2.325,-1.263 5.817,-1.171 7.729,0.479c0.925,0.804 1.554,2.237 0.442,3.142c-0.846,0.687 -1.7,0.392 -2.837,0.183c-4.713,-0.875 -5.208,4.813 -0.833,4.471c2.988,-0.233 4.108,-1.266 5.3,-3.129c0.929,-1.454 1.408,-3.183 0.392,-4.675c-2.075,-3.038 -7.733,-3.658 -11.575,-2.187c-5.454,2.096 -7.892,6.133 -7.763,10.454c0.137,4.471 4.871,8.217 10.829,9.292c5.992,1.079 12.196,-0.504 16.608,-3.512Z" style="fill:#d4899a;"/><path d="M978.942,86.714c5.054,-1.446 5.492,-5.358 3.912,-8.646c-3.096,-6.463 -9.787,-11.712 -17.217,-15.767c-4.117,-2.242 -8.479,-4.312 -13.096,-5.975c-4.713,-1.7 -9.438,-2.658 -14.583,-3.383c-0.025,-0.004 -0.038,0.017 -0.008,0.025c8.95,2.079 18.05,5.9 24.387,10.954c3.304,2.637 5.817,5.504 8.183,8.6c2.142,2.8 5.079,5.988 5.104,9.279c0.008,0.779 0.208,1.567 0.2,2.333c-0.004,0.546 -0.35,1.054 -0.167,1.613c0.371,1.129 1.946,1.346 3.283,0.967Z" style="fill:#d4899a;"/><path d="M989.054,67.48c-0.704,-1.571 -2.379,-2.754 -4.171,-3.783c3.496,0.458 7.162,0.375 9.8,-1.233c0.208,-0.129 0.367,-0.275 0.483,-0.433c1.054,-0.233 2.071,-0.583 3.042,-1.092c3.442,-1.8 4.737,-6.75 -0.092,-8.091c-1.642,-0.454 -3.708,-0.288 -4.9,0.708c-1.125,0.942 -1.3,2.613 0.229,3.396c1.208,0.617 3.225,0.425 3.746,-0.667c0.508,-1.058 -0.804,-2.337 -2.325,-1.821c-0.271,0.092 -0.146,0.35 0.075,0.412c-0.463,0.121 -0.929,0.242 -1.396,0.362c0.35,-0.442 0.692,-0.879 1.042,-1.317c0.383,-0.238 1.183,-0.304 1.663,-0.296c1.342,0.025 2.625,0.688 2.971,1.642c0.633,1.746 -1.438,3.162 -3.567,3.621c-3.925,0.842 -8.579,-0.65 -12.312,-1.429c-8.279,-1.737 -17.229,-2.783 -25.838,-1.942c-0.525,0.05 -0.333,0.587 0.117,0.621c0.667,0.05 1.325,0.108 1.983,0.179c-0.008,0.062 0.025,0.129 0.117,0.163c4.537,1.612 9.738,3.071 13.45,5.637c1.838,1.271 3.587,2.688 5.3,4.046c1.704,1.367 3.217,3.279 5.5,4.142c2.529,0.958 6.062,-0.642 5.083,-2.825Z" style="fill:#d4899a;"/><path d="M962.267,3.856c4.471,3.05 6.425,7.529 6.508,11.887c0.167,8.571 -5.7,17.321 -13.108,23.8c-8.675,7.583 -20.246,12.208 -33.513,14.016c-0.038,0.004 -0.05,-0.033 -0.013,-0.037c17.125,-2.354 32.592,-12.004 39.042,-23.608c3.308,-5.95 4.929,-13.717 0.058,-19.475c-3.542,-4.179 -13.496,-6.962 -17.679,-1.796c-1.133,1.396 -2.288,2.625 -2.479,4.283c-0.221,1.921 0.679,4.237 2.892,5.446c2.325,1.258 5.817,1.171 7.729,-0.483c0.925,-0.796 1.554,-2.233 0.442,-3.137c-0.846,-0.692 -1.7,-0.396 -2.837,-0.183c-4.713,0.875 -5.208,-4.817 -0.833,-4.475c2.988,0.238 4.108,1.267 5.3,3.129c0.929,1.454 1.408,3.183 0.392,4.679c-2.075,3.033 -7.733,3.658 -11.575,2.179c-5.454,-2.092 -7.892,-6.129 -7.763,-10.446c0.137,-4.471 4.871,-8.221 10.829,-9.296c5.992,-1.079 12.196,0.508 16.608,3.517Z" style="fill:#d4899a;"/><path d="M978.942,20.184c5.054,1.442 5.492,5.358 3.912,8.646c-3.096,6.463 -9.787,11.713 -17.217,15.767c-4.117,2.242 -8.479,4.308 -13.096,5.975c-4.713,1.696 -9.438,2.654 -14.583,3.383c-0.025,0.004 -0.038,-0.025 -0.008,-0.029c8.95,-2.079 18.05,-5.9 24.387,-10.954c3.304,-2.637 5.817,-5.5 8.183,-8.596c2.142,-2.8 5.079,-5.992 5.104,-9.283c0.008,-0.779 0.208,-1.562 0.2,-2.333c-0.004,-0.546 -0.35,-1.05 -0.167,-1.608c0.371,-1.129 1.946,-1.35 3.283,-0.967Z" style="fill:#d4899a;"/><path d="M989.054,39.414c-0.704,1.571 -2.379,2.754 -4.171,3.787c3.496,-0.463 7.162,-0.375 9.8,1.233c0.208,0.125 0.367,0.271 0.483,0.433c1.054,0.229 2.071,0.583 3.042,1.088c3.442,1.804 4.737,6.75 -0.092,8.091c-1.642,0.458 -3.708,0.288 -4.9,-0.712c-1.125,-0.938 -1.3,-2.608 0.229,-3.392c1.208,-0.617 3.225,-0.425 3.746,0.667c0.508,1.058 -0.804,2.338 -2.325,1.821c-0.271,-0.092 -0.146,-0.35 0.075,-0.412c-0.463,-0.121 -0.929,-0.242 -1.396,-0.362c0.35,0.442 0.692,0.879 1.042,1.317c0.383,0.238 1.183,0.308 1.663,0.296c1.342,-0.025 2.625,-0.687 2.971,-1.637c0.633,-1.75 -1.438,-3.167 -3.567,-3.621c-3.925,-0.842 -8.579,0.646 -12.312,1.429c-8.279,1.733 -17.229,2.783 -25.838,1.941c-0.525,-0.054 -0.333,-0.592 0.117,-0.625c0.667,-0.05 1.325,-0.108 1.983,-0.175c-0.008,-0.067 0.025,-0.129 0.117,-0.163c4.537,-1.613 9.738,-3.075 13.45,-5.642c1.838,-1.267 3.587,-2.683 5.3,-4.046c1.704,-1.363 3.217,-3.275 5.5,-4.142c2.529,-0.954 6.062,0.642 5.083,2.825Z" style="fill:#d4899a;"/><path d="M925.296,79.247c2.75,-2.646 0.633,-6.404 -0.646,-9.238c-0.542,-1.204 -1.171,-2.341 -1.883,-3.417c2.017,1.092 4.925,2.313 7.229,1.808c2.033,-0.437 5.071,-2.425 6.396,-3.942c0.121,-0.138 -0.025,-0.313 -0.196,-0.238c-1.696,0.762 -3,1.267 -4.858,0.742c-1.071,-0.3 -1.879,-0.5 -3.004,-0.6c-2.804,-0.246 -5.467,-1.208 -7.917,-2.538c-3.875,-2.1 -7.388,-5.3 -11.579,-6.817c-0.796,-0.471 -1.617,-0.871 -2.471,-1.183c-2.158,-1.408 -4.542,-2.458 -6.917,-2.971c-0.171,-0.037 -0.288,0.196 -0.121,0.279c5.108,2.683 8.204,6.604 9.275,12.154c0.208,1.071 0.363,2.146 0.329,3.237c-0.033,1.092 -0.312,2.142 0.146,3.2c0.35,0.813 0.942,0.667 -0.138,1.117c-1.375,0.579 -3.083,0.204 -4.229,-0.608c-0.767,-0.542 -1.317,-1.237 -1.762,-2.05c-0.183,-0.404 -0.363,-0.817 -0.546,-1.221c0.363,-2.383 0.633,-2.954 0.817,-1.704c0.292,1.321 1.988,1.229 2.671,0.342c1.229,-1.587 -0.067,-4.021 -2.204,-3.712c-1.662,0.238 -2.646,2.15 -2.521,3.637c0.167,1.987 1.496,4.142 3.079,5.383c1.933,1.517 3.813,1.346 6.058,0.8c1.137,-0.271 2.392,-0.292 3.292,-1.113c0.479,-0.433 0.792,-0.987 0.987,-1.587c0.908,2.288 2.062,4.488 2.925,6.8c0.725,1.921 1.379,3.767 3.629,4.413c1.529,0.437 3.017,0.116 4.158,-0.975Z" style="fill:#d4899a;"/><path d="M925.296,27.651c2.75,2.642 0.633,6.404 -0.646,9.233c-0.542,1.208 -1.171,2.341 -1.883,3.421c2.017,-1.092 4.925,-2.312 7.229,-1.812c2.033,0.437 5.071,2.425 6.396,3.946c0.121,0.134 -0.025,0.313 -0.196,0.238c-1.696,-0.762 -3,-1.271 -4.858,-0.746c-1.071,0.304 -1.879,0.504 -3.004,0.6c-2.804,0.25 -5.467,1.213 -7.917,2.542c-3.875,2.1 -7.388,5.292 -11.579,6.817c-0.796,0.467 -1.617,0.867 -2.471,1.179c-2.158,1.408 -4.542,2.463 -6.917,2.971c-0.171,0.033 -0.288,-0.196 -0.121,-0.283c5.108,-2.679 8.204,-6.6 9.275,-12.15c0.208,-1.071 0.363,-2.142 0.329,-3.233c-0.033,-1.092 -0.312,-2.146 0.146,-3.2c0.35,-0.813 0.942,-0.667 -0.138,-1.121c-1.375,-0.579 -3.083,-0.204 -4.229,0.608c-0.767,0.546 -1.317,1.242 -1.762,2.05c-0.183,0.408 -0.363,0.817 -0.546,1.225c0.363,2.383 0.633,2.95 0.817,1.704c0.292,-1.325 1.988,-1.229 2.671,-0.342c1.229,1.588 -0.067,4.017 -2.204,3.712c-1.662,-0.238 -2.646,-2.15 -2.521,-3.637c0.167,-1.987 1.496,-4.142 3.079,-5.383c1.933,-1.521 3.813,-1.35 6.058,-0.804c1.137,0.275 2.392,0.292 3.292,1.112c0.479,0.438 0.792,0.992 0.987,1.592c0.908,-2.288 2.062,-4.492 2.925,-6.804c0.725,-1.921 1.379,-3.763 3.629,-4.408c1.529,-0.438 3.017,-0.121 4.158,0.975Z" style="fill:#d4899a;"/><rect x="503.613" y="51.48" width="405.875" height="3.933" style="fill:#d4899a;"/><path d="M909.488,58.501c-2.792,0 -5.054,-2.263 -5.054,-5.054c0,-2.788 2.262,-5.05 5.054,-5.05c2.792,0 5.054,2.262 5.054,5.05c0,2.792 -2.262,5.054 -5.054,5.054Z" style="fill:#d4899a;"/><path d="M891.8,58.501c-2.787,0 -5.05,-2.263 -5.05,-5.054c0,-2.788 2.262,-5.05 5.05,-5.05c2.792,0 5.054,2.262 5.054,5.05c0,2.792 -2.262,5.054 -5.054,5.054Z" style="fill:#d4899a;"/><path d="M555.229,58.501c-3.887,0 -7.037,-2.263 -7.037,-5.054c0,-2.788 3.15,-5.05 7.037,-5.05c3.887,0 7.037,2.262 7.037,5.05c0,2.792 -3.15,5.054 -7.037,5.054Z" style="fill:#d4899a;"/><path d="M507.133,61.451c-6.154,0 -11.142,-3.584 -11.142,-8.004c0,-4.417 4.988,-8 11.142,-8c6.154,0 11.146,3.583 11.146,8c0,4.421 -4.992,8.004 -11.146,8.004Z" style="fill:#d4899a;"/><path d="M874.113,61.451c-4.417,0 -8,-3.584 -8,-8.004c0,-4.417 3.583,-8 8,-8c4.421,0 8.004,3.583 8.004,8c0,4.421 -3.583,8.004 -8.004,8.004Z" style="fill:#d4899a;"/><path d="M925.488,61.451c-4.417,0 -8,-3.584 -8,-8.004c0,-4.417 3.583,-8 8,-8c4.417,0 7.996,3.583 7.996,8c0,4.421 -3.579,8.004 -7.996,8.004Z" style="fill:#d4899a;"/><path d="M39.017,103.043c-4.471,-3.05 -6.425,-7.529 -6.508,-11.888c-0.167,-8.575 5.7,-17.325 13.108,-23.804c8.671,-7.583 20.242,-12.212 33.512,-14.016c0.033,-0.004 0.05,0.037 0.013,0.041c-17.125,2.35 -32.592,12.004 -39.042,23.604c-3.308,5.95 -4.933,13.721 -0.058,19.475c3.538,4.183 13.492,6.962 17.675,1.8c1.138,-1.396 2.292,-2.625 2.483,-4.287c0.221,-1.921 -0.683,-4.237 -2.896,-5.442c-2.321,-1.263 -5.817,-1.171 -7.729,0.479c-0.925,0.804 -1.554,2.237 -0.442,3.142c0.85,0.687 1.704,0.392 2.837,0.183c4.712,-0.875 5.204,4.813 0.838,4.471c-2.988,-0.233 -4.113,-1.266 -5.3,-3.129c-0.929,-1.454 -1.412,-3.183 -0.396,-4.675c2.075,-3.038 7.733,-3.658 11.575,-2.187c5.458,2.096 7.892,6.133 7.762,10.454c-0.133,4.471 -4.871,8.217 -10.829,9.292c-5.988,1.079 -12.196,-0.504 -16.604,-3.512Z" style="fill:#d4899a;"/><path d="M22.342,86.714c-5.058,-1.446 -5.492,-5.358 -3.917,-8.646c3.096,-6.463 9.792,-11.712 17.217,-15.767c4.121,-2.242 8.483,-4.312 13.1,-5.975c4.708,-1.7 9.437,-2.658 14.579,-3.383c0.025,-0.004 0.033,0.017 0.008,0.025c-8.95,2.079 -18.05,5.9 -24.383,10.954c-3.304,2.637 -5.817,5.504 -8.187,8.6c-2.142,2.8 -5.079,5.988 -5.104,9.279c-0.004,0.779 -0.208,1.567 -0.2,2.333c0.008,0.546 0.35,1.054 0.167,1.613c-0.371,1.129 -1.946,1.346 -3.279,0.967Z" style="fill:#d4899a;"/><path d="M12.225,67.48c0.704,-1.571 2.383,-2.754 4.171,-3.783c-3.496,0.458 -7.158,0.375 -9.796,-1.233c-0.213,-0.129 -0.367,-0.275 -0.483,-0.433c-1.054,-0.233 -2.075,-0.583 -3.042,-1.092c-3.446,-1.8 -4.742,-6.75 0.092,-8.091c1.642,-0.454 3.704,-0.288 4.9,0.708c1.125,0.942 1.296,2.613 -0.233,3.396c-1.204,0.617 -3.225,0.425 -3.746,-0.667c-0.508,-1.058 0.804,-2.337 2.325,-1.821c0.271,0.092 0.146,0.35 -0.075,0.412c0.467,0.121 0.929,0.242 1.396,0.362c-0.346,-0.442 -0.692,-0.879 -1.042,-1.317c-0.383,-0.238 -1.175,-0.304 -1.658,-0.296c-1.342,0.025 -2.625,0.688 -2.971,1.642c-0.637,1.746 1.437,3.162 3.562,3.621c3.929,0.842 8.583,-0.65 12.317,-1.429c8.279,-1.737 17.225,-2.783 25.838,-1.942c0.525,0.05 0.333,0.587 -0.121,0.621c-0.663,0.05 -1.325,0.108 -1.979,0.179c0.008,0.062 -0.025,0.129 -0.121,0.163c-4.529,1.612 -9.738,3.071 -13.45,5.637c-1.838,1.271 -3.583,2.688 -5.296,4.046c-1.708,1.367 -3.217,3.279 -5.504,4.142c-2.529,0.958 -6.058,-0.642 -5.083,-2.825Z" style="fill:#d4899a;"/><path d="M39.017,3.856c-4.471,3.05 -6.425,7.529 -6.508,11.887c-0.167,8.571 5.7,17.321 13.108,23.8c8.671,7.583 20.242,12.208 33.512,14.016c0.033,0.004 0.05,-0.033 0.013,-0.037c-17.125,-2.354 -32.592,-12.004 -39.042,-23.608c-3.308,-5.95 -4.933,-13.717 -0.058,-19.475c3.538,-4.179 13.492,-6.962 17.675,-1.796c1.138,1.396 2.292,2.625 2.483,4.283c0.221,1.921 -0.683,4.237 -2.896,5.446c-2.321,1.258 -5.817,1.171 -7.729,-0.483c-0.925,-0.796 -1.554,-2.233 -0.442,-3.137c0.85,-0.692 1.704,-0.396 2.837,-0.183c4.712,0.875 5.204,-4.817 0.838,-4.475c-2.988,0.238 -4.113,1.267 -5.3,3.129c-0.929,1.454 -1.412,3.183 -0.396,4.679c2.075,3.033 7.733,3.658 11.575,2.179c5.458,-2.092 7.892,-6.129 7.762,-10.446c-0.133,-4.471 -4.871,-8.221 -10.829,-9.296c-5.988,-1.079 -12.196,0.508 -16.604,3.517Z" style="fill:#d4899a;"/><path d="M22.342,20.184c-5.058,1.442 -5.492,5.358 -3.917,8.646c3.096,6.463 9.792,11.713 17.217,15.767c4.121,2.242 8.483,4.308 13.1,5.975c4.708,1.696 9.437,2.654 14.579,3.383c0.025,0.004 0.033,-0.025 0.008,-0.029c-8.95,-2.079 -18.05,-5.9 -24.383,-10.954c-3.304,-2.637 -5.817,-5.5 -8.187,-8.596c-2.142,-2.8 -5.079,-5.992 -5.104,-9.283c-0.004,-0.779 -0.208,-1.562 -0.2,-2.333c0.008,-0.546 0.35,-1.05 0.167,-1.608c-0.371,-1.129 -1.946,-1.35 -3.279,-0.967Z" style="fill:#d4899a;"/><path d="M12.225,39.414c0.704,1.571 2.383,2.754 4.171,3.787c-3.496,-0.463 -7.158,-0.375 -9.796,1.233c-0.213,0.125 -0.367,0.271 -0.483,0.433c-1.054,0.229 -2.075,0.583 -3.042,1.088c-3.446,1.804 -4.742,6.75 0.092,8.091c1.642,0.458 3.704,0.288 4.9,-0.712c1.125,-0.938 1.296,-2.608 -0.233,-3.392c-1.204,-0.617 -3.225,-0.425 -3.746,0.667c-0.508,1.058 0.804,2.338 2.325,1.821c0.271,-0.092 0.146,-0.35 -0.075,-0.412c0.467,-0.121 0.929,-0.242 1.396,-0.362c-0.346,0.442 -0.692,0.879 -1.042,1.317c-0.383,0.238 -1.175,0.308 -1.658,0.296c-1.342,-0.025 -2.625,-0.687 -2.971,-1.637c-0.637,-1.75 1.437,-3.167 3.562,-3.621c3.929,-0.842 8.583,0.646 12.317,1.429c8.279,1.733 17.225,2.783 25.838,1.941c0.525,-0.054 0.333,-0.592 -0.121,-0.625c-0.663,-0.05 -1.325,-0.108 -1.979,-0.175c0.008,-0.067 -0.025,-0.129 -0.121,-0.163c-4.529,-1.613 -9.738,-3.075 -13.45,-5.642c-1.838,-1.267 -3.583,-2.683 -5.296,-4.046c-1.708,-1.363 -3.217,-3.275 -5.504,-4.142c-2.529,-0.954 -6.058,0.642 -5.083,2.825Z" style="fill:#d4899a;"/><path d="M75.988,79.247c-2.75,-2.646 -0.637,-6.404 0.642,-9.238c0.542,-1.204 1.175,-2.341 1.883,-3.417c-2.013,1.092 -4.925,2.313 -7.229,1.808c-2.033,-0.437 -5.075,-2.425 -6.392,-3.942c-0.121,-0.138 0.025,-0.313 0.192,-0.238c1.7,0.762 3.004,1.267 4.862,0.742c1.071,-0.3 1.879,-0.5 3.004,-0.6c2.804,-0.246 5.467,-1.208 7.917,-2.538c3.875,-2.1 7.383,-5.3 11.575,-6.817c0.796,-0.471 1.617,-0.871 2.475,-1.183c2.158,-1.408 4.538,-2.458 6.913,-2.971c0.171,-0.037 0.288,0.196 0.125,0.279c-5.108,2.683 -8.204,6.604 -9.279,12.154c-0.208,1.071 -0.358,2.146 -0.329,3.237c0.033,1.092 0.313,2.142 -0.142,3.2c-0.354,0.813 -0.946,0.667 0.133,1.117c1.379,0.579 3.087,0.204 4.233,-0.608c0.762,-0.542 1.312,-1.237 1.758,-2.05c0.183,-0.404 0.362,-0.817 0.546,-1.221c-0.358,-2.383 -0.633,-2.954 -0.817,-1.704c-0.288,1.321 -1.983,1.229 -2.671,0.342c-1.225,-1.587 0.067,-4.021 2.204,-3.712c1.663,0.238 2.646,2.15 2.521,3.637c-0.167,1.987 -1.496,4.142 -3.079,5.383c-1.929,1.517 -3.808,1.346 -6.058,0.8c-1.138,-0.271 -2.388,-0.292 -3.288,-1.113c-0.483,-0.433 -0.792,-0.987 -0.992,-1.587c-0.904,2.288 -2.063,4.488 -2.925,6.8c-0.725,1.921 -1.379,3.767 -3.629,4.413c-1.529,0.437 -3.012,0.116 -4.154,-0.975Z" style="fill:#d4899a;"/><path d="M75.988,27.651c-2.75,2.642 -0.637,6.404 0.642,9.233c0.542,1.208 1.175,2.341 1.883,3.421c-2.013,-1.092 -4.925,-2.312 -7.229,-1.812c-2.033,0.437 -5.075,2.425 -6.392,3.946c-0.121,0.134 0.025,0.313 0.192,0.238c1.7,-0.762 3.004,-1.271 4.862,-0.746c1.071,0.304 1.879,0.504 3.004,0.6c2.804,0.25 5.467,1.213 7.917,2.542c3.875,2.1 7.383,5.292 11.575,6.817c0.796,0.467 1.617,0.867 2.475,1.179c2.158,1.408 4.538,2.463 6.913,2.971c0.171,0.033 0.288,-0.196 0.125,-0.283c-5.108,-2.679 -8.204,-6.6 -9.279,-12.15c-0.208,-1.071 -0.358,-2.142 -0.329,-3.233c0.033,-1.092 0.313,-2.146 -0.142,-3.2c-0.354,-0.813 -0.946,-0.667 0.133,-1.121c1.379,-0.579 3.087,-0.204 4.233,0.608c0.762,0.546 1.312,1.242 1.758,2.05c0.183,0.408 0.362,0.817 0.546,1.225c-0.358,2.383 -0.633,2.95 -0.817,1.704c-0.288,-1.325 -1.983,-1.229 -2.671,-0.342c-1.225,1.588 0.067,4.017 2.204,3.712c1.663,-0.238 2.646,-2.15 2.521,-3.637c-0.167,-1.987 -1.496,-4.142 -3.079,-5.383c-1.929,-1.521 -3.808,-1.35 -6.058,-0.804c-1.138,0.275 -2.388,0.292 -3.288,1.112c-0.483,0.438 -0.792,0.992 -0.992,1.592c-0.904,-2.288 -2.063,-4.492 -2.925,-6.804c-0.725,-1.921 -1.379,-3.763 -3.629,-4.408c-1.529,-0.438 -3.012,-0.121 -4.154,0.975Z" style="fill:#d4899a;"/><rect x="91.796" y="51.48" width="405.875" height="3.933" style="fill:#d4899a;"/><path d="M91.796,58.501c2.787,0 5.05,-2.263 5.05,-5.054c0,-2.788 -2.263,-5.05 -5.05,-5.05c-2.792,0 -5.054,2.262 -5.054,5.05c0,2.792 2.262,5.054 5.054,5.054Z" style="fill:#d4899a;"/><path d="M109.479,58.501c2.792,0 5.054,-2.263 5.054,-5.054c0,-2.788 -2.262,-5.05 -5.054,-5.05c-2.792,0 -5.05,2.262 -5.05,5.05c0,2.792 2.258,5.054 5.05,5.054Z" style="fill:#d4899a;"/><path d="M446.054,58.501c3.887,0 7.037,-2.263 7.037,-5.054c0,-2.788 -3.15,-5.05 -7.037,-5.05c-3.888,0 -7.038,2.262 -7.038,5.05c0,2.792 3.15,5.054 7.038,5.054Z" style="fill:#d4899a;"/><path d="M494.15,61.451c6.154,0 11.146,-3.584 11.146,-8.004c0,-4.417 -4.992,-8 -11.146,-8c-6.158,0 -11.142,3.583 -11.142,8c0,4.421 4.983,8.004 11.142,8.004Z" style="fill:#d4899a;"/><path d="M127.167,61.451c4.417,0 8,-3.584 8,-8.004c0,-4.417 -3.583,-8 -8,-8c-4.421,0 -8.004,3.583 -8.004,8c0,4.421 3.583,8.004 8.004,8.004Z" style="fill:#d4899a;"/><path d="M75.792,61.451c4.421,0 8.004,-3.584 8.004,-8.004c0,-4.417 -3.583,-8 -8.004,-8c-4.417,0 -8,3.583 -8,8c0,4.421 3.583,8.004 8,8.004Z" style="fill:#d4899a;"/></svg>